<svg width="48" height="48" viewBox="0 0 48 48" fill="none" xmlns="http://www.w3.org/2000/svg">
<path d="M34.3985 2.73993e-06C31.9127 0.00292994 29.4751 0.686787 27.3506 1.97733C25.226 3.26787 23.4956 5.11577 22.3471 7.32041C20.7863 5.74288 18.7918 4.66498 16.6169 4.22372C14.442 3.78245 12.1851 3.99773 10.1329 4.84219C8.08065 5.68666 6.32582 7.12218 5.09139 8.96634C3.85696 10.8105 3.19867 12.98 3.20017 15.1992V16.7991C3.20017 17.0113 3.28445 17.2147 3.43447 17.3647C3.58449 17.5148 3.78796 17.5991 4.00012 17.5991C4.03293 17.5959 4.06552 17.5909 4.09772 17.5839C4.47314 20.8281 6.0813 23.8038 8.58947 25.8954C8.65827 25.9522 8.73027 26.001 8.79986 26.0554V29.0224L2.14742 31.2399C2.0016 31.2884 1.87283 31.3778 1.7765 31.4976C1.68018 31.6173 1.62038 31.7623 1.60425 31.9151L0.00433802 47.1143C-0.00732017 47.2257 0.00458355 47.3384 0.0392774 47.445C0.0739713 47.5516 0.130681 47.6497 0.205728 47.733C0.280776 47.8163 0.372487 47.8828 0.474914 47.9284C0.577341 47.9739 0.688197 47.9975 0.800295 47.9974H27.9988C28.1106 47.9974 28.2212 47.974 28.3234 47.9286C28.4256 47.8833 28.5171 47.817 28.5921 47.7341C28.6671 47.6512 28.7239 47.5535 28.7588 47.4472C28.7937 47.341 28.806 47.2287 28.7948 47.1175L27.1949 31.9183C27.1787 31.7655 27.1189 31.6205 27.0226 31.5008C26.9263 31.381 26.7975 31.2916 26.6517 31.2431L19.9993 29.0224V26.0554C20.0689 26.001 20.1409 25.9522 20.2096 25.8954C21.5891 24.7422 22.7093 23.3104 23.4967 21.694C25.5565 24.4706 28.5965 26.3585 31.9986 26.9737V28.7984H30.3987C30.1865 28.7984 29.9831 28.8827 29.833 29.0327C29.683 29.1828 29.5987 29.3862 29.5987 29.5984V32.7982C29.5987 33.0104 29.683 33.2139 29.833 33.3639C29.9831 33.5139 30.1865 33.5982 30.3987 33.5982V43.9976C30.3987 45.0584 30.8201 46.0758 31.5702 46.8259C32.3203 47.576 33.3377 47.9974 34.3985 47.9974C35.4593 47.9974 36.4767 47.576 37.2268 46.8259C37.9769 46.0758 38.3983 45.0584 38.3983 43.9976V33.5982C38.6104 33.5982 38.8139 33.5139 38.9639 33.3639C39.1139 33.2139 39.1982 33.0104 39.1982 32.7982V29.5984C39.1982 29.3862 39.1139 29.1828 38.9639 29.0327C38.8139 28.8827 38.6104 28.7984 38.3983 28.7984H36.7984V26.9737C40.1434 26.376 43.1432 24.547 45.2067 21.8473C47.2701 19.1476 48.2476 15.7729 47.9465 12.3883C47.6454 9.00362 46.0874 5.85451 43.5798 3.56149C41.0721 1.26847 37.7965 -0.00215353 34.3985 2.73993e-06ZM4.80008 15.1992C4.79609 13.2417 5.3919 11.3299 6.50729 9.72128C7.62268 8.11263 9.20412 6.88429 11.0387 6.20162C12.8733 5.51894 14.8731 5.4147 16.7687 5.90291C18.6644 6.39113 20.365 7.44837 21.6416 8.93232C20.8998 10.9079 20.6425 13.0325 20.8912 15.128C19.9694 14.9622 19.1349 14.4782 18.5334 13.7602C17.9318 13.0423 17.6013 12.136 17.5994 11.1994C17.5995 11.0795 17.5727 10.9612 17.5209 10.8531C17.4691 10.745 17.3937 10.65 17.3002 10.5749C17.2068 10.4999 17.0976 10.4468 16.9809 10.4196C16.8642 10.3924 16.7428 10.3918 16.6258 10.4178L16.1459 10.525C12.1087 11.417 8.26529 13.0294 4.80008 15.2848V15.1992ZM15.9475 42.3177L14.3996 45.4087L12.8516 42.3177L14.3996 36.638L15.9475 42.3177ZM18.3993 34.0878L16.485 33.4478L18.3993 32.4926V34.0878ZM10.3998 34.0878V32.4926L12.3141 33.4526L10.3998 34.0878ZM3.14177 32.5942L8.79986 30.7079V46.3975H1.68905L3.14177 32.5942ZM10.3998 35.7749L13.2348 34.8293L11.2277 42.1889C11.1765 42.3787 11.1964 42.5807 11.2837 42.7569L13.1052 46.3975H10.3998V35.7749ZM15.6939 46.3975L17.5194 42.7553C17.6067 42.5791 17.6266 42.3771 17.5754 42.1873L15.5683 34.8277L18.3993 35.7749V46.3975H15.6939ZM25.6574 32.5942L27.1101 46.3975H19.9993V30.7079L25.6574 32.5942ZM18.3993 30.7039L14.3996 32.7038L10.3998 30.7039V27.0625C11.6432 27.6782 13.012 27.9985 14.3996 27.9985C15.7871 27.9985 17.1559 27.6782 18.3993 27.0625V30.7039ZM19.1849 24.6659C17.8418 25.7858 16.1484 26.3992 14.3996 26.3992C12.6508 26.3992 10.9574 25.7858 9.61422 24.6659C8.4328 23.6787 7.46925 22.457 6.7846 21.078C6.09994 19.6991 5.7091 18.193 5.63683 16.6551C8.8326 14.5667 12.3684 13.0524 16.0851 12.1801C16.3054 13.4046 16.9265 14.521 17.8507 15.3538C18.7749 16.1866 19.9497 16.6886 21.1904 16.7807C21.4634 17.9338 21.887 19.046 22.4503 20.0885C21.7706 21.8681 20.6464 23.444 19.1849 24.6659ZM36.7984 43.9976C36.7984 44.6341 36.5455 45.2445 36.0954 45.6946C35.6454 46.1446 35.035 46.3975 34.3985 46.3975C33.762 46.3975 33.1516 46.1446 32.7015 45.6946C32.2515 45.2445 31.9986 44.6341 31.9986 43.9976V33.5982H36.7984V43.9976ZM37.5983 31.9983H31.1987V30.3984H37.5983V31.9983ZM35.1984 28.7984H33.5985V27.1577C33.8649 27.1737 34.1281 27.1985 34.3985 27.1985C34.6689 27.1985 34.9321 27.1737 35.1984 27.1577V28.7984ZM34.3985 25.5986C32.0252 25.5986 29.7053 24.8949 27.732 23.5764C25.7587 22.2579 24.2207 20.3838 23.3125 18.1912C22.4043 15.9986 22.1667 13.586 22.6297 11.2583C23.0927 8.93066 24.2355 6.79258 25.9137 5.11444C27.5918 3.43631 29.7299 2.29348 32.0575 1.83048C34.3852 1.36748 36.7978 1.60511 38.9904 2.51331C41.183 3.42151 43.0571 4.9595 44.3756 6.93279C45.6941 8.90607 46.3978 11.226 46.3978 13.5993C46.3942 16.7806 45.1289 19.8306 42.8793 22.0801C40.6298 24.3297 37.5798 25.595 34.3985 25.5986Z" fill="#050A19"/>
<path d="M34.3985 3.19958C32.3417 3.19958 30.331 3.8095 28.6208 4.95221C26.9107 6.09491 25.5777 7.71908 24.7906 9.61933C24.0035 11.5196 23.7976 13.6106 24.1989 15.6279C24.6001 17.6451 25.5906 19.4981 27.045 20.9525C28.4993 22.4069 30.3523 23.3974 32.3696 23.7986C34.3869 24.1999 36.4779 23.994 38.3782 23.2069C40.2784 22.4197 41.9026 21.0868 43.0453 19.3766C44.188 17.6665 44.7979 15.6558 44.7979 13.599C44.7947 10.8419 43.6981 8.1986 41.7485 6.24902C39.7989 4.29943 37.1556 3.20276 34.3985 3.19958ZM34.3985 22.3985C32.6581 22.3985 30.9568 21.8825 29.5097 20.9156C28.0626 19.9487 26.9348 18.5744 26.2688 16.9665C25.6028 15.3586 25.4285 13.5893 25.768 11.8823C26.1076 10.1754 26.9456 8.60746 28.1763 7.37682C29.4069 6.14618 30.9748 5.30811 32.6818 4.96858C34.3887 4.62905 36.158 4.80331 37.7659 5.46932C39.3738 6.13534 40.7481 7.26319 41.715 8.71027C42.6819 10.1573 43.198 11.8586 43.198 13.599C43.1952 15.932 42.2673 18.1686 40.6176 19.8182C38.968 21.4678 36.7314 22.3958 34.3985 22.3985Z" fill="#050A19"/>
<path d="M38.6328 9.36527C39.7529 10.4898 40.3819 12.0123 40.3819 13.5994C40.3819 15.1866 39.7529 16.7091 38.6328 17.8336L39.764 18.9648C41.184 17.5402 41.9814 15.6109 41.9814 13.5994C41.9814 11.588 41.184 9.65864 39.764 8.23413L38.6328 9.36527Z" fill="#050A19"/>
<path d="M38.0403 18.4833L36.4404 19.2832L37.1559 20.7142L38.7558 19.9143L38.0403 18.4833Z" fill="#050A19"/>
</svg>
