<svg width="46" height="47" viewBox="0 0 46 47" fill="none" xmlns="http://www.w3.org/2000/svg">
<path d="M44.3266 44.0624H20.8267C20.6319 44.0624 20.4451 43.985 20.3074 43.8473C20.1697 43.7096 20.0923 43.5228 20.0923 43.328V8.07812C20.0923 7.88335 20.1697 7.69656 20.3074 7.55884C20.4451 7.42112 20.6319 7.34375 20.8267 7.34375H44.3266C44.5213 7.34375 44.7081 7.42112 44.8459 7.55884C44.9836 7.69656 45.061 7.88335 45.061 8.07812V43.328C45.061 43.5228 44.9836 43.7096 44.8459 43.8473C44.7081 43.985 44.5213 44.0624 44.3266 44.0624ZM21.561 42.5936H43.5922V8.8125H21.561V42.5936Z" fill="#11192E"/>
<path d="M44.3266 32.3125H20.8267C20.6319 32.3125 20.4451 32.2351 20.3074 32.0974C20.1697 31.9597 20.0923 31.7729 20.0923 31.5781C20.0923 31.3834 20.1697 31.1966 20.3074 31.0588C20.4451 30.9211 20.6319 30.8438 20.8267 30.8438H44.3266C44.5213 30.8438 44.7081 30.9211 44.8459 31.0588C44.9836 31.1966 45.061 31.3834 45.061 31.5781C45.061 31.7729 44.9836 31.9597 44.8459 32.0974C44.7081 32.2351 44.5213 32.3125 44.3266 32.3125Z" fill="#11192E"/>
<path d="M32.5767 44.0624C32.3819 44.0624 32.1951 43.985 32.0574 43.8473C31.9197 43.7096 31.8423 43.5228 31.8423 43.328V19.8281C31.8423 19.6334 31.9197 19.4466 32.0574 19.3088C32.1951 19.1711 32.3819 19.0938 32.5767 19.0938C32.7714 19.0938 32.9582 19.1711 33.0959 19.3088C33.2337 19.4466 33.311 19.6334 33.311 19.8281V43.328C33.311 43.5228 33.2337 43.7096 33.0959 43.8473C32.9582 43.985 32.7714 44.0624 32.5767 44.0624Z" fill="#11192E"/>
<path d="M44.3267 44.0624C44.1319 44.0624 43.9451 43.985 43.8074 43.8473C43.6697 43.7096 43.5923 43.5228 43.5923 43.328V19.8281C43.5923 19.6334 43.6697 19.4466 43.8074 19.3088C43.9451 19.1711 44.1319 19.0938 44.3267 19.0938C44.5214 19.0938 44.7082 19.1711 44.8459 19.3088C44.9837 19.4466 45.061 19.6334 45.061 19.8281V43.328C45.061 43.5228 44.9837 43.7096 44.8459 43.8473C44.7082 43.985 44.5214 44.0624 44.3267 44.0624Z" fill="#11192E"/>
<path d="M44.3266 20.5625H20.8267C20.6319 20.5625 20.4451 20.4851 20.3074 20.3474C20.1697 20.2097 20.0923 20.0229 20.0923 19.8281C20.0923 19.6334 20.1697 19.4466 20.3074 19.3088C20.4451 19.1711 20.6319 19.0938 20.8267 19.0938H44.3266C44.5213 19.0938 44.7081 19.1711 44.8459 19.3088C44.9836 19.4466 45.061 19.6334 45.061 19.8281C45.061 20.0229 44.9836 20.2097 44.8459 20.3474C44.7081 20.4851 44.5213 20.5625 44.3266 20.5625Z" fill="#11192E"/>
<path d="M29.4848 26.5366H23.6099C23.4151 26.5366 23.2283 26.4592 23.0906 26.3215C22.9529 26.1838 22.8755 25.997 22.8755 25.8022C22.8755 25.6075 22.9529 25.4207 23.0906 25.283C23.2283 25.1452 23.4151 25.0679 23.6099 25.0679H29.4848C29.6796 25.0679 29.8664 25.1452 30.0041 25.283C30.1418 25.4207 30.2192 25.6075 30.2192 25.8022C30.2192 25.997 30.1418 26.1838 30.0041 26.3215C29.8664 26.4592 29.6796 26.5366 29.4848 26.5366Z" fill="#11192E"/>
<path d="M26.5474 29.4741C26.3526 29.4741 26.1658 29.3967 26.0281 29.259C25.8904 29.1213 25.813 28.9345 25.813 28.7397V22.8647C25.813 22.67 25.8904 22.4832 26.0281 22.3455C26.1658 22.2077 26.3526 22.1304 26.5474 22.1304C26.7421 22.1304 26.9289 22.2077 27.0666 22.3455C27.2044 22.4832 27.2817 22.67 27.2817 22.8647V28.7397C27.2817 28.9345 27.2044 29.1213 27.0666 29.259C26.9289 29.3967 26.7421 29.4741 26.5474 29.4741Z" fill="#11192E"/>
<path d="M41.3891 26.5366H35.5142C35.3194 26.5366 35.1326 26.4592 34.9949 26.3215C34.8572 26.1838 34.7798 25.997 34.7798 25.8022C34.7798 25.6075 34.8572 25.4207 34.9949 25.283C35.1326 25.1452 35.3194 25.0679 35.5142 25.0679H41.3891C41.5839 25.0679 41.7707 25.1452 41.9084 25.283C42.0461 25.4207 42.1235 25.6075 42.1235 25.8022C42.1235 25.997 42.0461 26.1838 41.9084 26.3215C41.7707 26.4592 41.5839 26.5366 41.3891 26.5366Z" fill="#11192E"/>
<path d="M28.6258 40.1776C28.4314 40.1768 28.2452 40.0988 28.1081 39.9609L23.9515 35.8081C23.8137 35.6703 23.7363 35.4834 23.7363 35.2885C23.7363 35.0936 23.8137 34.9067 23.9515 34.7689C24.0893 34.6311 24.2762 34.5537 24.4711 34.5537C24.666 34.5537 24.8529 34.6311 24.9907 34.7689L29.1399 38.9218C29.242 39.0245 29.3114 39.1551 29.3395 39.2971C29.3676 39.4392 29.353 39.5863 29.2977 39.7202C29.2424 39.854 29.1487 39.9684 29.0285 40.0492C28.9083 40.1299 28.7669 40.1733 28.6221 40.1739L28.6258 40.1776Z" fill="#11192E"/>
<path d="M24.4693 40.1776C24.3238 40.1777 24.1815 40.1345 24.0605 40.0536C23.9395 39.9727 23.8453 39.8577 23.7898 39.7231C23.7343 39.5885 23.7201 39.4405 23.7489 39.2978C23.7777 39.1552 23.8483 39.0243 23.9516 38.9218L28.1045 34.7689C28.2444 34.6426 28.4275 34.5749 28.616 34.5798C28.8044 34.5848 28.9838 34.6621 29.1168 34.7956C29.2499 34.9291 29.3265 35.1087 29.3308 35.2972C29.3351 35.4857 29.2668 35.6686 29.1399 35.808L24.9907 39.9609C24.9224 40.0296 24.8412 40.0842 24.7517 40.1213C24.6622 40.1585 24.5662 40.1776 24.4693 40.1776Z" fill="#11192E"/>
<path d="M41.602 38.0991H35.727C35.5323 38.0991 35.3455 38.0217 35.2078 37.884C35.07 37.7463 34.9927 37.5595 34.9927 37.3647C34.9927 37.17 35.07 36.9832 35.2078 36.8455C35.3455 36.7077 35.5323 36.6304 35.727 36.6304H41.602C41.7968 36.6304 41.9836 36.7077 42.1213 36.8455C42.259 36.9832 42.3364 37.17 42.3364 37.3647C42.3364 37.5595 42.259 37.7463 42.1213 37.884C41.9836 38.0217 41.7968 38.0991 41.602 38.0991Z" fill="#11192E"/>
<path d="M38.6645 33.9573C38.5011 33.9573 38.3414 34.0057 38.2056 34.0965C38.0697 34.1873 37.9638 34.3163 37.9013 34.4673C37.8387 34.6182 37.8224 34.7844 37.8543 34.9446C37.8861 35.1049 37.9648 35.2521 38.0804 35.3676C38.1959 35.4832 38.3431 35.5619 38.5034 35.5937C38.6636 35.6256 38.8297 35.6093 38.9807 35.5467C39.1317 35.4842 39.2607 35.3783 39.3515 35.2424C39.4423 35.1066 39.4907 34.9468 39.4907 34.7834C39.4907 34.5643 39.4037 34.3542 39.2487 34.1993C39.0938 34.0443 38.8837 33.9573 38.6645 33.9573Z" fill="#11192E"/>
<path d="M38.6645 39.1199C38.5011 39.1199 38.3414 39.1683 38.2056 39.2591C38.0697 39.3499 37.9638 39.4789 37.9013 39.6299C37.8387 39.7808 37.8224 39.947 37.8543 40.1072C37.8861 40.2675 37.9648 40.4147 38.0804 40.5302C38.1959 40.6458 38.3431 40.7245 38.5034 40.7563C38.6636 40.7882 38.8297 40.7719 38.9807 40.7093C39.1317 40.6468 39.2607 40.5409 39.3515 40.405C39.4423 40.2692 39.4907 40.1094 39.4907 39.946C39.4907 39.7269 39.4037 39.5168 39.2487 39.3619C39.0938 39.2069 38.8837 39.1199 38.6645 39.1199Z" fill="#11192E"/>
<path d="M32.5768 46.9996H0.734373C0.539605 46.9996 0.352814 46.9223 0.215093 46.7845C0.0773712 46.6468 0 46.46 0 46.2653V10.5601C0 10.3653 0.0773712 10.1785 0.215093 10.0408C0.352814 9.90305 0.539605 9.82568 0.734373 9.82568C0.92914 9.82568 1.11593 9.90305 1.25365 10.0408C1.39137 10.1785 1.46875 10.3653 1.46875 10.5601V45.5309H32.5768C32.7715 45.5309 32.9583 45.6083 33.0961 45.746C33.2338 45.8837 33.3111 46.0705 33.3111 46.2653C33.3111 46.46 33.2338 46.6468 33.0961 46.7845C32.9583 46.9223 32.7715 46.9996 32.5768 46.9996Z" fill="#11192E"/>
<path d="M32.5766 6.3817C32.3818 6.3817 32.195 6.30433 32.0573 6.16661C31.9196 6.02888 31.8422 5.84209 31.8422 5.64733V1.46875H10.5454C10.3506 1.46875 10.1638 1.39137 10.0261 1.25365C9.88841 1.11593 9.81104 0.92914 9.81104 0.734373C9.81104 0.539605 9.88841 0.352814 10.0261 0.215093C10.1638 0.0773712 10.3506 0 10.5454 0L32.5766 0C32.7714 0 32.9581 0.0773712 33.0959 0.215093C33.2336 0.352814 33.311 0.539605 33.311 0.734373V5.64733C33.311 5.84209 33.2336 6.02888 33.0959 6.16661C32.9581 6.30433 32.7714 6.3817 32.5766 6.3817Z" fill="#11192E"/>
<path d="M10.5601 11.2948H0.734219C0.589423 11.2942 0.448038 11.2508 0.327838 11.1701C0.207637 11.0893 0.113986 10.9749 0.0586573 10.8411C0.00332843 10.7072 -0.0112087 10.5601 0.0168733 10.418C0.0449554 10.276 0.114403 10.1454 0.216487 10.0427L10.0461 0.216792C10.1489 0.115948 10.2792 0.0475855 10.4206 0.0202144C10.5621 -0.00715678 10.7084 0.00767211 10.8415 0.0628552C10.9745 0.118038 11.0884 0.211138 11.169 0.330566C11.2495 0.449995 11.2932 0.590476 11.2945 0.734524V10.5604C11.2945 10.7552 11.2171 10.942 11.0794 11.0797C10.9417 11.2174 10.7549 11.2948 10.5601 11.2948ZM2.50773 9.82606H9.82575V2.50803L2.50773 9.82606Z" fill="#11192E"/>
<path d="M17.757 17.625H6.10254C5.90777 17.625 5.72098 17.5476 5.58326 17.4099C5.44554 17.2722 5.36816 17.0854 5.36816 16.8906C5.36816 16.6959 5.44554 16.5091 5.58326 16.3713C5.72098 16.2336 5.90777 16.1562 6.10254 16.1562H17.757C17.9518 16.1562 18.1386 16.2336 18.2763 16.3713C18.414 16.5091 18.4914 16.6959 18.4914 16.8906C18.4914 17.0854 18.414 17.2722 18.2763 17.4099C18.1386 17.5476 17.9518 17.625 17.757 17.625Z" fill="#11192E"/>
<path d="M17.757 22.582H6.10254C5.90777 22.582 5.72098 22.5047 5.58326 22.3669C5.44554 22.2292 5.36816 22.0424 5.36816 21.8477C5.36816 21.6529 5.44554 21.4661 5.58326 21.3284C5.72098 21.1907 5.90777 21.1133 6.10254 21.1133H17.757C17.9518 21.1133 18.1386 21.1907 18.2763 21.3284C18.414 21.4661 18.4914 21.6529 18.4914 21.8477C18.4914 22.0424 18.414 22.2292 18.2763 22.3669C18.1386 22.5047 17.9518 22.582 17.757 22.582Z" fill="#11192E"/>
<path d="M12.8918 27.5391H6.10254C5.90777 27.5391 5.72098 27.4617 5.58326 27.324C5.44554 27.1862 5.36816 26.9995 5.36816 26.8047C5.36816 26.6099 5.44554 26.4231 5.58326 26.2854C5.72098 26.1477 5.90777 26.0703 6.10254 26.0703H12.8918C13.0866 26.0703 13.2734 26.1477 13.4111 26.2854C13.5488 26.4231 13.6262 26.6099 13.6262 26.8047C13.6262 26.9995 13.5488 27.1862 13.4111 27.324C13.2734 27.4617 13.0866 27.5391 12.8918 27.5391Z" fill="#11192E"/>
</svg>
