<svg width="279" height="31" viewBox="0 0 279 31" fill="none" xmlns="http://www.w3.org/2000/svg">
<path d="M82.3168 0.611084H77.8206H74.996H72.1137H70.3267L60.9307 29.6682H69.2891L71.0185 23.8346H81.8557L83.585 29.6682H92.2317L82.8933 0.611084H82.3168ZM73.036 16.7786L75.5724 8.11149H77.1865L79.7805 16.7786H73.036Z" fill="white"/>
<path d="M243.722 0.611084H239.226H236.401H233.519H231.732L222.336 29.6682H230.694L232.424 23.8346H243.319L245.048 29.6682H253.695L244.356 0.611084H243.722ZM234.499 16.7786L237.035 8.11149H238.649L241.243 16.7786H234.499Z" fill="white"/>
<path d="M99.6105 0.611084H95.1143V29.6682H103.3V8.11149H116.155V0.611084H103.3H99.6105Z" fill="white"/>
<path d="M133.275 0.611084H127.684H123.994H119.498V29.6682H127.684V21.1122H133.275C140.884 21.1122 144.746 16.5008 144.746 10.8894C144.804 5.22244 140.884 0.611084 133.275 0.611084ZM133.275 14.0563H127.684V7.66702H133.275C135.523 7.66702 136.561 9.11154 136.561 10.8339C136.618 12.6117 135.523 14.0563 133.275 14.0563Z" fill="white"/>
<path d="M163.596 0C154.43 0 147.455 6.55596 147.455 15.1676C147.455 23.7792 154.43 30.3352 163.596 30.3352C172.761 30.3352 179.736 23.7792 179.736 15.1676C179.736 6.55596 172.761 0 163.596 0ZM163.596 22.3903C159.215 22.3903 156.044 19.3345 156.044 15.112C156.044 10.8896 159.215 7.83382 163.596 7.83382C167.977 7.83382 171.147 10.8896 171.147 15.112C171.147 19.3901 167.977 22.3903 163.596 22.3903Z" fill="white"/>
<path d="M211.21 0.611084H208.501L201.584 13.2229L194.782 0.611084H191.842H187.461H183.656V29.6682H191.842V11.8895L198.298 23.8346H204.581L211.21 11.7784V29.6682H219.396V0.611084H215.476H211.21Z" fill="white"/>
<path d="M279.001 0.611084H269.086H260.9H250.985V8.11149H260.9V29.6682H269.086V8.11149H279.001V0.611084Z" fill="white"/>
<path d="M31.9351 0.611084L20.3486 7.11152L8.76198 0.611084L0 15.1676L11.7019 21.7236V29.613H29.1682V21.6125L40.6395 15.1676L31.9351 0.611084ZM20.3486 10.1117L23.4037 15.2232H17.2934L20.3486 10.1117ZM11.7019 19.5012L2.7093 14.5009L9.51136 3.27793L18.9651 8.61162L14.93 15.2787L13.7771 17.2233L13.7194 17.3344L12.2207 19.8346L11.7019 19.5012ZM27.2083 27.724H13.7194V21.1125L16.0829 17.1678H24.5566L27.1506 21.5014V27.724H27.2083ZM28.4764 19.779L27.2083 17.6678L26.92 17.1678L25.7671 15.2232L21.732 8.55606L31.1857 3.22237L37.9302 14.4453L29.1682 19.3346L28.4764 19.779Z" fill="white"/>
</svg>
