<svg width="156" height="17" viewBox="0 0 156 17" fill="none" xmlns="http://www.w3.org/2000/svg">
<path d="M46.0262 0.341797H43.5122H41.9328H40.3213H39.3221L34.0684 16.5886H38.7419L39.7089 13.3268H45.7684L46.7353 16.5886H51.57L46.3485 0.341797H46.0262ZM40.837 9.38162L42.2551 4.53553H43.1576L44.608 9.38162H40.837Z" fill="#11192E"/>
<path d="M136.274 0.341797H133.76H132.181H130.569H129.57L124.316 16.5886H128.99L129.957 13.3268H136.049L137.016 16.5886H141.85L136.629 0.341797H136.274ZM131.117 9.38162L132.535 4.53553H133.438L134.888 9.38162H131.117Z" fill="#11192E"/>
<path d="M55.6957 0.341797H53.1816V16.5886H57.7585V4.53553H64.9461V0.341797H57.7585H55.6957Z" fill="#11192E"/>
<path d="M74.5187 0.341797H71.3923H69.3295H66.8154V16.5886H71.3923V11.8047H74.5187C78.7733 11.8047 80.9328 9.22629 80.9328 6.08876C80.965 2.92016 78.7733 0.341797 74.5187 0.341797ZM74.5187 7.85945H71.3923V4.28701H74.5187C75.7758 4.28701 76.3559 5.09469 76.3559 6.0577C76.3882 7.05177 75.7758 7.85945 74.5187 7.85945Z" fill="#11192E"/>
<path d="M91.4721 0C86.3473 0 82.4473 3.66566 82.4473 8.48071C82.4473 13.2958 86.3473 16.9614 91.4721 16.9614C96.5969 16.9614 100.497 13.2958 100.497 8.48071C100.497 3.66566 96.5969 0 91.4721 0ZM91.4721 12.5191C89.0225 12.5191 87.2498 10.8106 87.2498 8.44965C87.2498 6.08872 89.0225 4.38015 91.4721 4.38015C93.9216 4.38015 95.6944 6.08872 95.6944 8.44965C95.6944 10.8416 93.9216 12.5191 91.4721 12.5191Z" fill="#11192E"/>
<path d="M118.096 0.341797H116.581L112.713 7.39348L108.91 0.341797H107.266H104.817H102.689V16.5886H107.266V6.64793L110.876 13.3268H114.389L118.096 6.5858V16.5886H122.673V0.341797H120.481H118.096Z" fill="#11192E"/>
<path d="M155.999 0.341797H150.456H145.879H140.335V4.53553H145.879V16.5886H150.456V4.53553H155.999V0.341797Z" fill="#11192E"/>
<path d="M17.8562 0.341797L11.3777 3.97638L4.89917 0.341797L0 8.48077L6.54298 12.1464V16.5576H16.3091V12.0843L22.7231 8.48077L17.8562 0.341797ZM11.3777 5.65388L13.086 8.51184H9.66942L11.3777 5.65388ZM6.54298 10.9038L1.51488 8.10799L5.31818 1.83291L10.6041 4.81513L8.34794 8.5429L7.70331 9.63017L7.67108 9.6923L6.83306 11.0902L6.54298 10.9038ZM15.2132 15.5014H7.67108V11.8047L8.99256 9.5991H13.7306L15.181 12.0222V15.5014H15.2132ZM15.9223 11.0591L15.2132 9.87869L15.0521 9.5991L14.4074 8.51184L12.1512 4.78406L17.4372 1.80184L21.2083 8.07693L16.3091 10.8106L15.9223 11.0591Z" fill="#11192E"/>
</svg>
