<svg width="185" height="77" viewBox="0 0 185 77" fill="none" xmlns="http://www.w3.org/2000/svg">
<path d="M180.359 32.229C179.31 32.228 178.236 31.846 177.627 31.529C165.225 25.07 151.152 21.252 137.488 21.252C135.775 21.252 134.506 21.32 132.91 21.481C135.49 25.577 139.93 31.538 142.971 35.191C143.764 36.14 143.996 36.712 143.996 37.626C143.996 39.218 142.32 40.761 140.539 40.761C139.348 40.761 138.635 40.292 137.535 38.997C133.83 34.65 128.267 26.946 125.631 22.575C112.662 24.868 98.2029 32.528 89.6599 39.294C88.6829 40.077 88.0039 40.398 87.0249 40.398C85.2089 40.398 83.6299 38.835 83.6299 37.048C83.6299 36.016 84.0109 35.238 85.3449 34.125C98.3839 23.273 118.636 14.701 135.835 14.701C142.653 14.701 149.23 15.646 155.589 17.203C159.452 18.146 165.179 20.065 170.058 22.193C157.269 14.466 141.24 7.406 131.105 7.406C128.519 7.406 126.937 8.272 126.937 10.013C126.937 11.038 127.509 12.411 128.363 13.79C126.334 13.995 123.662 14.407 121.64 14.948C120.583 13.012 119.849 10.944 119.849 8.725C119.849 3.782 123.068 0.740997 129.554 0.740997C144.245 0.740997 168.935 14.434 181.255 24.437C182.665 25.583 184.054 27.003 184.054 28.668C184.054 30.316 182.627 32.228 180.359 32.229Z" fill="white"/>
<path d="M20.7031 61.361C20.7031 60.48 21.2361 59.933 22.0571 59.933C22.8781 59.933 23.3871 60.48 23.3871 61.361V62.847C24.1041 61.382 25.6881 59.933 27.1161 59.933C28.0341 59.933 28.4791 60.472 28.4791 61.187C28.4791 61.884 28.0981 62.41 26.9161 62.736C24.4671 63.419 23.3931 64.789 23.3931 67.418V75.025C23.3931 75.906 22.8771 76.454 22.0571 76.454C21.2371 76.454 20.7031 75.906 20.7031 75.025V61.361Z" fill="white"/>
<path d="M80.957 61.361C80.957 60.48 81.488 59.933 82.311 59.933C83.129 59.933 83.643 60.48 83.643 61.361V62.847C84.356 61.382 85.94 59.933 87.37 59.933C88.288 59.933 88.735 60.472 88.735 61.187C88.735 61.884 88.35 62.41 87.171 62.736C84.72 63.419 83.648 64.789 83.648 67.418V75.025C83.648 75.906 83.13 76.454 82.312 76.454C81.49 76.454 80.958 75.906 80.958 75.025V61.361H80.957Z" fill="white"/>
<path d="M36.1344 59.933C38.7614 59.933 40.4484 60.988 40.4484 61.935C40.4484 62.503 40.0264 63.07 39.3874 63.07C38.4034 63.07 37.9404 62.277 36.1334 62.277C33.0824 62.277 31.5164 65.006 31.5164 68.194C31.5164 71.649 33.2784 74.112 36.1334 74.112C38.1214 74.112 38.5574 73.29 39.4924 73.29C40.1014 73.29 40.4674 73.701 40.4674 74.33C40.4674 74.938 39.9654 75.434 39.0594 75.852C38.2684 76.216 37.2214 76.454 36.1334 76.454C31.5614 76.454 28.8154 73.02 28.8154 68.194C28.8164 63.468 31.5864 59.933 36.1344 59.933Z" fill="white"/>
<path d="M44.3797 69.226C44.4307 71.869 46.1437 74.111 49.1507 74.111C52.3107 74.111 53.0567 72.342 54.1977 72.342C54.8367 72.342 55.2857 72.775 55.2857 73.453C55.2857 74.759 52.4027 76.453 49.1747 76.453C46.7587 76.453 45.1397 75.686 43.9347 74.462C42.3997 72.905 41.6807 70.607 41.6807 68.194C41.6807 63.78 44.4147 59.931 48.9387 59.931C53.1477 59.931 55.8747 63.647 55.8747 67.797C55.8747 68.738 55.4937 69.225 54.3887 69.225H44.3797V69.226ZM53.1867 67.221C53.1867 64.913 51.8727 62.277 48.9267 62.277C46.0317 62.277 44.4817 64.548 44.3797 67.221H53.1867Z" fill="white"/>
<path d="M61.3843 75.026C61.3843 75.906 60.8633 76.453 60.0423 76.453C59.2213 76.453 58.6943 75.906 58.6943 75.026V55.894C58.6943 55.014 59.2213 54.466 60.0423 54.466C60.8633 54.466 61.3843 55.014 61.3843 55.894V75.026Z" fill="white"/>
<path d="M71.1678 76.458C66.8908 76.458 64.0508 73.051 64.0508 68.194C64.0508 63.335 66.8908 59.928 71.1678 59.928C75.4388 59.928 78.2848 63.334 78.2848 68.194C78.2848 73.051 75.4388 76.458 71.1678 76.458ZM71.1678 74.111C73.7848 74.111 75.5818 71.826 75.5818 68.195C75.5818 64.56 73.7848 62.277 71.1678 62.277C68.5468 62.277 66.7498 64.56 66.7498 68.195C66.7498 71.825 68.5458 74.111 71.1678 74.111Z" fill="white"/>
<path d="M107.386 61.048C105.888 66.198 103.427 74.663 103.226 75.361C102.999 76.131 102.531 76.454 101.798 76.454C101.062 76.454 100.607 76.182 100.366 75.361C100.159 74.636 97.5766 65.765 96.0976 60.668C95.8476 59.827 95.6206 58.833 95.4496 57.991C95.3476 58.814 95.2156 59.777 95.0726 60.677C94.3046 65.493 93.1136 73.001 92.7836 75.12C92.6376 76.053 92.1626 76.454 91.3816 76.454C90.6516 76.454 90.1826 75.961 90.1826 75.179C90.1826 74.876 90.2456 74.481 90.3326 73.964C90.3326 73.964 93.0296 57.743 93.2446 56.503C93.4746 55.177 94.1626 54.468 95.2796 54.468C96.2776 54.468 97.0646 55.053 97.3816 56.156C97.5766 56.842 99.7506 64.461 101.132 69.277C101.388 70.166 101.642 71.213 101.839 72.158C102.021 71.23 102.261 70.232 102.509 69.363C103.886 64.552 106.103 56.843 106.298 56.156C106.614 55.052 107.318 54.468 108.314 54.468C109.363 54.468 110.132 55.155 110.347 56.503C110.546 57.746 113.261 73.964 113.261 73.964C113.349 74.481 113.407 74.876 113.407 75.179C113.407 75.961 112.94 76.454 112.21 76.454C111.429 76.454 110.952 76.053 110.81 75.12C110.488 73.06 109.355 65.915 108.587 61.094C108.431 60.11 108.282 58.993 108.163 57.971C107.966 58.863 107.709 59.958 107.386 61.048Z" fill="white"/>
<path d="M118.138 55.197C119.048 55.197 119.779 55.926 119.779 56.837C119.779 57.748 119.049 58.477 118.138 58.477C117.227 58.477 116.497 57.748 116.497 56.837C116.498 55.926 117.228 55.197 118.138 55.197ZM119.484 61.361C119.484 60.48 118.959 59.933 118.138 59.933C117.317 59.933 116.796 60.48 116.796 61.361V75.025C116.796 75.906 117.317 76.454 118.138 76.454C118.959 76.454 119.484 75.906 119.484 75.025V61.361Z" fill="white"/>
<path d="M124.16 56.624C124.16 55.743 124.681 55.196 125.5 55.196C126.322 55.196 126.85 55.743 126.85 56.624V60.115H127.944C128.823 60.115 129.28 60.546 129.28 61.275C129.28 62.004 128.823 62.44 127.944 62.44H126.85V75.025C126.85 75.905 126.323 76.453 125.5 76.453C124.682 76.453 124.16 75.905 124.16 75.025V62.441H123.183C122.306 62.441 121.849 62.005 121.849 61.276C121.849 60.547 122.306 60.116 123.183 60.116H124.16V56.624Z" fill="white"/>
<path d="M132.634 56.624C132.634 55.743 133.159 55.196 133.982 55.196C134.802 55.196 135.324 55.743 135.324 56.624V60.115H136.416C137.301 60.115 137.752 60.546 137.752 61.275C137.752 62.004 137.301 62.44 136.416 62.44H135.324V75.025C135.324 75.905 134.803 76.453 133.982 76.453C133.16 76.453 132.634 75.905 132.634 75.025V62.441H131.654C130.775 62.441 130.318 62.005 130.318 61.276C130.318 60.547 130.775 60.116 131.654 60.116H132.634V56.624Z" fill="white"/>
<path d="M17.8164 73.993C17.2534 72.485 12.0034 58.374 11.1874 56.196C10.7754 55.103 10.1484 54.467 9.10941 54.467C8.04841 54.467 7.48441 55.105 7.07041 56.196C6.69741 57.175 0.982406 72.489 0.412406 73.993C0.162406 74.654 0.0664062 75.009 0.0664062 75.295C0.0664062 75.968 0.644406 76.452 1.34341 76.452C2.06441 76.452 2.47841 76.079 2.70441 75.45C2.84141 75.073 3.58341 72.987 4.53041 70.331H13.6884C14.5834 72.839 15.3034 74.854 15.5164 75.45C15.7214 76.016 16.0944 76.452 16.8234 76.452C17.5224 76.452 18.1784 76.026 18.1784 75.327C18.1794 75.02 18.1054 74.777 17.8164 73.993ZM5.38041 67.956C6.49541 64.835 7.71441 61.418 8.52641 59.134C8.75541 58.497 8.95641 57.894 9.11041 57.39C9.28041 57.933 9.48941 58.555 9.69241 59.129C10.5084 61.418 11.7254 64.827 12.8384 67.956H5.38041Z" fill="white"/>
<path d="M159.707 75.026C159.707 75.906 159.178 76.453 158.357 76.453C157.539 76.453 157.013 75.906 157.013 75.026V55.894C157.013 55.014 157.538 54.466 158.357 54.466C159.177 54.466 159.707 55.014 159.707 55.894V75.026Z" fill="white"/>
<path d="M151.873 59.933C151.053 59.933 150.533 60.48 150.533 61.361V62.568C149.541 60.937 147.924 59.929 145.931 59.929C141.837 59.929 139.023 63.335 139.023 68.195C139.023 73.051 141.837 76.459 145.931 76.459C147.923 76.459 149.54 75.45 150.533 73.816V75.027C150.533 75.906 151.053 76.454 151.873 76.454C152.695 76.454 153.219 75.906 153.219 75.027V61.361C153.218 60.48 152.695 59.933 151.873 59.933ZM146.14 74.115C143.523 74.115 141.726 71.826 141.726 68.195C141.726 64.56 143.523 62.271 146.14 62.271C148.761 62.271 150.556 64.56 150.556 68.195C150.556 71.825 148.761 74.115 146.14 74.115Z" fill="white"/>
</svg>
