<svg width="60" height="39" viewBox="0 0 60 39" fill="none" xmlns="http://www.w3.org/2000/svg">
<path d="M57.243 21.53C56.511 21.347 56 20.692 56 19.938V16C56 12.691 53.309 10 50 10H40V1C40 0.448 39.552 0 39 0H1C0.448 0 0 0.448 0 1V27V31C0 31.552 0.448 32 1 32H8.092C8.036 32.33 8 32.663 8 33C8 36.309 10.691 39 14 39C17.309 39 20 36.309 20 33C20 32.663 19.964 32.33 19.908 32H43.092C43.036 32.33 43 32.663 43 33C43 36.309 45.691 39 49 39C52.309 39 55 36.309 55 33C55 32.663 54.964 32.33 54.908 32H59C59.552 32 60 31.552 60 31V25.062C60 23.388 58.866 21.936 57.243 21.53ZM54.005 20H44V16H54V19.938C54 19.959 54.005 19.979 54.005 20ZM2 2H38V26H2V2ZM18 33C18 35.206 16.206 37 14 37C11.794 37 10 35.206 10 33C10 32.661 10.059 32.328 10.145 32H11.184C11.072 32.314 11 32.648 11 33C11 34.654 12.346 36 14 36C15.654 36 17 34.654 17 33C17 32.648 16.928 32.314 16.816 32H17.855C17.941 32.328 18 32.661 18 33ZM15 33C15 33.551 14.551 34 14 34C13.449 34 13 33.551 13 33C13 32.449 13.449 32 14 32C14.551 32 15 32.449 15 33ZM53 33C53 35.206 51.206 37 49 37C46.794 37 45 35.206 45 33C45 32.661 45.059 32.328 45.145 32H46.184C46.072 32.314 46 32.648 46 33C46 34.654 47.346 36 49 36C50.654 36 52 34.654 52 33C52 32.648 51.928 32.314 51.816 32H52.855C52.941 32.328 53 32.661 53 33ZM50 33C50 33.551 49.551 34 49 34C48.449 34 48 33.551 48 33C48 32.449 48.449 32 49 32C49.551 32 50 32.449 50 33ZM58 30H2V28H39C39.552 28 40 27.552 40 27V12H50C51.474 12 52.75 12.81 53.444 14H43C42.448 14 42 14.448 42 15V21C42 21.552 42.448 22 43 22H54.652C55.142 22.71 55.872 23.249 56.757 23.47C57.489 23.653 58 24.308 58 25.062V30Z" fill="#050A19"/>
<path d="M46 24H43V26H46V24Z" fill="#050A19"/>
<path d="M28.6511 6.24124C28.2761 5.92024 27.7241 5.92024 27.3491 6.24124L20.3491 12.2412C20.0311 12.5132 19.9171 12.9552 20.0621 13.3472C20.2081 13.7392 20.5821 14.0002 21.0001 14.0002V21.0002C21.0001 21.5522 21.4481 22.0002 22.0001 22.0002H34.0001C34.5521 22.0002 35.0001 21.5522 35.0001 21.0002V14.0002C35.4181 14.0002 35.7921 13.7392 35.9381 13.3472C36.0831 12.9542 35.9691 12.5132 35.6511 12.2412L28.6511 6.24124ZM28.0001 8.31724L32.2971 12.0002H23.7031L28.0001 8.31724ZM29.0001 20.0002H27.0001V19.0002C27.0001 18.4492 27.4491 18.0002 28.0001 18.0002C28.5511 18.0002 29.0001 18.4492 29.0001 19.0002V20.0002ZM33.0001 20.0002H31.0001V19.0002C31.0001 17.3462 29.6541 16.0002 28.0001 16.0002C26.3461 16.0002 25.0001 17.3462 25.0001 19.0002V20.0002H23.0001V14.0002H33.0001V20.0002Z" fill="#050A19"/>
<path d="M6 19C6 18.449 6.449 18 7 18H14C15.654 18 17 16.654 17 15C17 13.346 15.654 12 14 12H11C10.449 12 10 11.551 10 11C10 10.449 10.449 10 11 10H22V8H11C9.346 8 8 9.346 8 11C8 12.654 9.346 14 11 14H14C14.551 14 15 14.449 15 15C15 15.551 14.551 16 14 16H7C5.346 16 4 17.346 4 19C4 20.654 5.346 22 7 22H20V20H7C6.449 20 6 19.551 6 19Z" fill="#050A19"/>
</svg>
