<svg width="60" height="50" viewBox="0 0 60 50" fill="none" xmlns="http://www.w3.org/2000/svg">
<path d="M59.0325 50.0002H29.0664C28.5322 50.0002 28.0986 49.5694 28.0986 49.0386V29.98C28.0986 28.7483 28.8873 27.6357 30.1086 27.1444L38.2348 23.8713C38.6954 23.6857 39.2219 23.8761 39.4532 24.3127L43.7886 32.454C43.9319 32.7213 44.168 32.7194 44.3102 32.454L48.6457 24.3127C48.8848 23.8646 49.4354 23.679 49.898 23.8857L58.1112 27.5607C59.259 28.0742 60.0002 29.1665 60.0002 30.3454V49.0386C60.0002 49.5694 59.5667 50.0002 59.0325 50.0002ZM30.0341 48.0771H58.0648V30.3454C58.0648 29.9156 57.7783 29.5204 57.3186 29.3146L49.9328 26.0098L46.0212 33.354C45.6322 34.0848 44.8764 34.5386 44.0499 34.5386C43.2235 34.5386 42.4686 34.0848 42.0786 33.354L38.1515 25.98L30.8354 28.9261C30.3486 29.1223 30.0341 29.5357 30.0341 29.98V48.0771Z" fill="#050A19"/>
<path d="M44.0502 22.525C38.6957 22.525 34.3398 18.1327 34.3398 12.7337V9.79038C34.3389 4.39231 38.6957 0 44.0502 0C49.4047 0 53.7615 4.39231 53.7615 9.79135V12.7346C53.7605 18.1327 49.4047 22.525 44.0502 22.525ZM44.0502 1.92308C39.7631 1.92308 36.2753 5.45289 36.2753 9.79135V12.7346C36.2753 17.0731 39.7631 20.6029 44.0502 20.6029C48.3373 20.6029 51.826 17.0731 51.826 12.7346V9.79135C51.825 5.45289 48.3373 1.92308 44.0502 1.92308Z" fill="#050A19"/>
<path d="M21.7461 15.5503C21.4897 15.5503 21.2381 15.4493 21.0513 15.258L17.2123 11.3262H1.95581C0.876774 11.3262 0 10.3455 0 9.1397V2.71181C0.0464516 1.48778 0.904839 0.557007 1.95581 0.557007H25.6829C26.761 0.557007 27.6387 1.53778 27.6387 2.74258V9.1397C27.6387 10.3445 26.761 11.3253 25.6829 11.3253H22.2658L22.7052 14.4551C22.7632 14.8676 22.5474 15.2695 22.1719 15.4522C22.0345 15.5185 21.8894 15.5503 21.7461 15.5503ZM17.6216 9.40316C17.8839 9.40316 18.1335 9.50797 18.3165 9.69547L20.3777 11.807L20.1939 10.4974C20.1552 10.2214 20.2384 9.94354 20.4223 9.73393C20.6061 9.52431 20.8723 9.40316 21.1519 9.40316H25.6742C25.6326 9.39931 25.7013 9.30701 25.7013 9.14066V2.74258C25.7013 2.56758 25.6258 2.47528 25.6065 2.46181L2.01871 2.48008C1.98677 2.52143 1.93935 2.6147 1.93548 2.74835V9.1397C1.93548 9.3147 2.01194 9.40701 2.03032 9.42047L17.6216 9.40316Z" fill="#050A19"/>
<path d="M22.0415 7.02684H12.0273C11.4931 7.02684 11.0596 6.59607 11.0596 6.0653C11.0596 5.53453 11.4931 5.10376 12.0273 5.10376H22.0425C22.5767 5.10376 23.0102 5.53453 23.0102 6.0653C23.0102 6.59607 22.5767 7.02684 22.0415 7.02684Z" fill="#050A19"/>
<path d="M8.38665 7.02671H5.59665C5.06245 7.02671 4.62891 6.59595 4.62891 6.06518C4.62891 5.53441 5.06245 5.10364 5.59665 5.10364H8.38665C8.92084 5.10364 9.35439 5.53441 9.35439 6.06518C9.35439 6.59595 8.92084 7.02671 8.38665 7.02671Z" fill="#050A19"/>
</svg>
