<svg width="52" height="52" viewBox="0 0 52 52" fill="none" xmlns="http://www.w3.org/2000/svg">
<path d="M51.3499 46.693H49.9489V28.0501H51.3089C51.6675 28.0501 51.9584 27.7598 51.9584 27.4006V23.4335C51.9584 23.0744 51.6675 22.7841 51.3089 22.7841H35.9453V22.5171C35.9453 18.0266 32.6855 14.2303 28.7931 14.127V12.113C30.2928 11.1011 31.3528 9.41693 31.6041 7.45678C31.6061 7.44704 31.6119 7.43924 31.6132 7.4295C31.6145 7.41976 31.6106 7.41131 31.6119 7.40222C31.645 7.12684 31.6678 6.84756 31.6678 6.56243C31.6678 2.94413 28.9159 0 25.5333 0C22.1508 0 19.3989 2.94413 19.3989 6.56243C19.3989 8.90059 20.5505 10.951 22.2755 12.1136V14.1264C18.3825 14.2309 15.1233 18.0279 15.1233 22.5191V22.7828H0.649489C0.290971 22.7828 0 23.0731 0 23.4322V27.3993C0 27.7585 0.290971 28.0488 0.649489 28.0488H2.0907V46.6917H0.690407C0.331889 46.6917 0.0409182 46.9821 0.0409182 47.3412V51.3096C0.0409182 51.6688 0.331889 51.9591 0.690407 51.9591H51.3505C51.709 51.9591 52 51.6688 52 51.3096V47.3425C51.9994 46.9834 51.7084 46.693 51.3499 46.693ZM30.3655 6.48514C29.2322 5.99543 28.3736 4.86597 28.0702 4.42432C28.4833 4.03657 28.8607 3.60596 29.19 3.12794C29.9076 4.03267 30.348 5.20305 30.3655 6.48514ZM25.5333 1.29898C26.5368 1.29898 27.4695 1.63411 28.243 2.20566C26.4011 5.10368 22.2015 6.14026 20.7044 6.42279C20.7739 3.58518 22.9107 1.29898 25.5333 1.29898ZM20.8207 7.72372C21.9495 7.52627 24.7624 6.89822 27.0668 5.25631C27.5292 5.911 28.6626 7.30025 30.2252 7.8153C29.707 10.1145 27.8033 11.8265 25.534 11.8265C23.2342 11.8272 21.3078 10.069 20.8207 7.72372ZM25.5333 13.1262C26.2199 13.1262 26.8778 12.9995 27.4942 12.7761V14.3777C26.2803 15.1142 24.7877 15.1129 23.5745 14.3758V12.7774C24.1909 13.0002 24.8481 13.1262 25.5333 13.1262ZM16.423 22.5197C16.423 18.7358 19.2346 15.4156 22.4392 15.4156H22.7873L22.86 15.4604C23.6862 15.9735 24.6111 16.2301 25.5366 16.2301C26.4706 16.2301 27.4039 15.969 28.2352 15.4468L28.2846 15.4156H28.6321C31.836 15.4156 34.6463 18.7332 34.6463 22.5165V22.7834H16.423V22.5197ZM1.29898 24.0824H50.6601V26.7505H1.29898V24.0824ZM3.38903 28.0501H48.6499V46.693H3.38903V28.0501ZM50.7004 50.6601H1.33925V47.992H50.7004V50.6601Z" fill="#050A19"/>
<path d="M26.02 30.3097C23.1141 30.3097 20.75 32.6738 20.75 35.5796C20.75 39.4441 25.3542 44.3185 25.5504 44.5244C25.6725 44.6524 25.8426 44.7257 26.0206 44.7257C26.0225 44.7257 26.0245 44.7257 26.0271 44.7257C26.207 44.7238 26.3785 44.6478 26.4999 44.5153C26.6954 44.3016 31.2906 39.2454 31.2906 35.5796C31.2899 32.6738 28.9258 30.3097 26.02 30.3097ZM26.0115 43.0955C24.8632 41.7732 22.0483 38.2568 22.0483 35.5803C22.0483 33.3909 23.8299 31.6093 26.0193 31.6093C28.2087 31.6093 29.9903 33.3909 29.9903 35.5803C29.9909 38.1159 27.1566 41.7368 26.0115 43.0955Z" fill="#050A19"/>
<path d="M26.0198 33.0482C24.5753 33.0482 23.4004 34.2238 23.4004 35.6676C23.4004 37.1114 24.5753 38.287 26.0198 38.287C27.4642 38.287 28.6392 37.1114 28.6392 35.6676C28.6392 34.2238 27.4642 33.0482 26.0198 33.0482ZM26.0198 36.988C25.2917 36.988 24.6994 36.3957 24.6994 35.6676C24.6994 34.9395 25.2917 34.3472 26.0198 34.3472C26.7479 34.3472 27.3402 34.9395 27.3402 35.6676C27.3402 36.3957 26.7479 36.988 26.0198 36.988Z" fill="#050A19"/>
</svg>
