<svg width="41" height="53" viewBox="0 0 41 53" fill="none" xmlns="http://www.w3.org/2000/svg">
<path d="M31.5159 8.32058H8.59523C8.34194 8.32058 8.09903 8.43018 7.91993 8.62528C7.74082 8.82038 7.64021 9.08499 7.64021 9.36091V21.8449C7.64021 22.1208 7.74082 22.3854 7.91993 22.5805C8.09903 22.7756 8.34194 22.8852 8.59523 22.8852H31.5159C31.7691 22.8852 32.0121 22.7756 32.1912 22.5805C32.3703 22.3854 32.4709 22.1208 32.4709 21.8449V9.36091C32.4709 9.08499 32.3703 8.82038 32.1912 8.62528C32.0121 8.43018 31.7691 8.32058 31.5159 8.32058ZM30.5608 20.8046H9.55026V10.4012H30.5608V20.8046ZM37.246 0H2.86508C2.10548 0.000963666 1.37725 0.330092 0.840139 0.915183C0.303024 1.50027 0.000884646 2.29355 0 3.121V48.8956C0.000884646 49.723 0.303024 50.5163 0.840139 51.1014C1.37725 51.6865 2.10548 52.0156 2.86508 52.0166H37.246C38.0056 52.0156 38.7338 51.6865 39.2709 51.1014C39.8081 50.5163 40.1102 49.723 40.1111 48.8956V3.121C40.1102 2.29355 39.8081 1.50027 39.2709 0.915183C38.7338 0.330092 38.0056 0.000963666 37.246 0ZM38.201 48.8956C38.2007 49.1714 38.1 49.4358 37.921 49.6308C37.7419 49.8259 37.4992 49.9356 37.246 49.9359H2.86508C2.61189 49.9356 2.36915 49.8259 2.19012 49.6308C2.01109 49.4358 1.91037 49.1714 1.91005 48.8956V3.121C1.91037 2.84519 2.01109 2.58078 2.19012 2.38575C2.36915 2.19072 2.61189 2.08101 2.86508 2.08066H37.246C37.4992 2.08101 37.7419 2.19072 37.921 2.38575C38.1 2.58078 38.2007 2.84519 38.201 3.121V48.8956ZM21.9656 31.2079C21.9656 31.6194 21.8536 32.0217 21.6437 32.3638C21.4338 32.706 21.1355 32.9727 20.7865 33.1302C20.4375 33.2876 20.0534 33.3288 19.6829 33.2486C19.3124 33.1683 18.9721 32.9701 18.7049 32.6791C18.4378 32.3881 18.2559 32.0174 18.1822 31.6138C18.1085 31.2102 18.1463 30.7918 18.2909 30.4116C18.4355 30.0315 18.6803 29.7065 18.9944 29.4779C19.3085 29.2492 19.6778 29.1272 20.0555 29.1272C20.5619 29.1279 21.0474 29.3473 21.4055 29.7374C21.7635 30.1274 21.965 30.6563 21.9656 31.2079ZM21.9656 41.6112C21.9656 42.0227 21.8536 42.425 21.6437 42.7672C21.4338 43.1093 21.1355 43.376 20.7865 43.5335C20.4375 43.691 20.0534 43.7322 19.6829 43.6519C19.3124 43.5716 18.9721 43.3734 18.7049 43.0825C18.4378 42.7915 18.2559 42.4207 18.1822 42.0171C18.1085 41.6135 18.1463 41.1952 18.2909 40.815C18.4355 40.4348 18.6803 40.1098 18.9944 39.8812C19.3085 39.6526 19.6778 39.5305 20.0555 39.5305C20.5619 39.5312 21.0474 39.7507 21.4055 40.1407C21.7635 40.5308 21.965 41.0596 21.9656 41.6112ZM12.4153 31.2079C12.4153 31.6194 12.3033 32.0217 12.0934 32.3638C11.8836 32.706 11.5852 32.9727 11.2362 33.1302C10.8872 33.2876 10.5032 33.3288 10.1327 33.2486C9.76214 33.1683 9.4218 32.9701 9.15467 32.6791C8.88755 32.3881 8.70563 32.0174 8.63193 31.6138C8.55823 31.2102 8.59606 30.7918 8.74063 30.4116C8.88519 30.0315 9.13001 29.7065 9.44412 29.4779C9.75822 29.2492 10.1275 29.1272 10.5053 29.1272C11.0117 29.1279 11.4971 29.3473 11.8552 29.7374C12.2133 30.1274 12.4147 30.6563 12.4153 31.2079ZM12.4153 41.6112C12.4153 42.0227 12.3033 42.425 12.0934 42.7672C11.8836 43.1093 11.5852 43.376 11.2362 43.5335C10.8872 43.691 10.5032 43.7322 10.1327 43.6519C9.76214 43.5716 9.4218 43.3734 9.15467 43.0825C8.88755 42.7915 8.70563 42.4207 8.63193 42.0171C8.55823 41.6135 8.59606 41.1952 8.74063 40.815C8.88519 40.4348 9.13001 40.1098 9.44412 39.8812C9.75822 39.6526 10.1275 39.5305 10.5053 39.5305C11.0117 39.5312 11.4971 39.7507 11.8552 40.1407C12.2133 40.5308 12.4147 41.0596 12.4153 41.6112ZM31.5159 31.2079C31.5159 31.6194 31.4038 32.0217 31.194 32.3638C30.9841 32.706 30.6858 32.9727 30.3367 33.1302C29.9877 33.2876 29.6037 33.3288 29.2332 33.2486C28.8627 33.1683 28.5223 32.9701 28.2552 32.6791C27.9881 32.3881 27.8061 32.0174 27.7324 31.6138C27.6587 31.2102 27.6966 30.7918 27.8411 30.4116C27.9857 30.0315 28.2305 29.7065 28.5446 29.4779C28.8587 29.2492 29.228 29.1272 29.6058 29.1272C30.1122 29.1279 30.5976 29.3473 30.9557 29.7374C31.3138 30.1274 31.5152 30.6563 31.5159 31.2079ZM31.5159 41.6112C31.5159 42.0227 31.4038 42.425 31.194 42.7672C30.9841 43.1093 30.6858 43.376 30.3367 43.5335C29.9877 43.691 29.6037 43.7322 29.2332 43.6519C28.8627 43.5716 28.5223 43.3734 28.2552 43.0825C27.9881 42.7915 27.8061 42.4207 27.7324 42.0171C27.6587 41.6135 27.6966 41.1952 27.8411 40.815C27.9857 40.4348 28.2305 40.1098 28.5446 39.8812C28.8587 39.6526 29.228 39.5305 29.6058 39.5305C30.1122 39.5312 30.5976 39.7507 30.9557 40.1407C31.3138 40.5308 31.5152 41.0596 31.5159 41.6112Z" fill="black"/>
</svg>
