<svg width="56" height="56" viewBox="0 0 56 56" fill="none" xmlns="http://www.w3.org/2000/svg">
<path d="M55.9152 11.1152L50.1455 1.35758C49.6364 0.509091 48.703 0 47.6848 0C38.2667 0 30.4606 0 19.7697 0C18.7515 0 17.8182 0.509091 17.3091 1.35758L11.6242 11.1152C11.5394 11.2 11.5394 11.4545 11.5394 11.5394V22.0606H0.848485C0.339394 22.0606 0 22.4 0 22.9091V55.1515C0 55.6606 0.339394 56 0.848485 56H29.3576C29.8667 56 30.2061 55.6606 30.2061 55.1515V40.8121H52.4364C54.3879 40.8121 56 39.2 56 37.2485V11.5394C56 11.4545 55.9152 11.2 55.9152 11.1152ZM27.3212 12.3879H40.2182V18.8364H27.3212V12.3879ZM48.703 2.29091L53.7091 10.7758H41.6606L39.1152 1.69697H47.7697C48.1091 1.69697 48.5333 1.95152 48.703 2.29091ZM37.3333 1.69697L39.9636 10.6909H27.5758L30.2061 1.69697H37.3333ZM18.8364 2.29091C19.0061 1.95152 19.3455 1.69697 19.7697 1.69697H28.4242L25.7939 10.6909H13.8303L18.8364 2.29091ZM1.69697 54.303V23.7576H18.9212V31.3939C18.9212 31.903 19.2606 32.2424 19.7697 32.2424H28.5091C28.5091 34.6182 28.5091 51.9273 28.5091 54.3879H1.69697V54.303ZM27.0667 30.4606H20.5333V24.6909L27.0667 30.4606ZM54.303 37.2485C54.303 38.2667 53.4545 39.1152 52.4364 39.1152H30.2061V31.3091C30.2061 31.1394 30.1212 30.8 29.9515 30.6303L20.3636 22.1455C20.1939 21.9758 19.9394 21.9758 19.7697 21.9758H13.2364V12.3879H25.6242V19.6848C25.6242 20.1939 25.9636 20.5333 26.4727 20.5333H41.0667C41.5758 20.5333 41.9152 20.1939 41.9152 19.6848V12.3879H54.303V37.2485Z" fill="#11192E"/>
<path d="M36.824 24.1818C36.7391 24.0969 36.6543 24.0121 36.5694 24.0121C36.4846 23.9272 36.3149 23.9272 36.23 23.9272C36.1452 23.9272 35.9755 23.9272 35.8906 24.0121C35.8058 24.0969 35.7209 24.0969 35.6361 24.1818L31.7331 28.1697C31.3937 28.5091 31.3937 29.0182 31.7331 29.3575C32.0725 29.6969 32.5815 29.6969 32.9209 29.3575L35.3815 26.8121V35.8909C35.3815 36.4 35.7209 36.7394 36.23 36.7394C36.7391 36.7394 37.0785 36.4 37.0785 35.8909V26.8969L39.5391 29.4424C39.8785 29.7818 40.3876 29.7818 40.727 29.4424C41.0664 29.103 41.0664 28.5939 40.727 28.2545L36.824 24.1818Z" fill="#11192E"/>
<path d="M43.697 29.3577C44.0364 29.6971 44.5455 29.6971 44.8849 29.3577L47.3455 26.8122V35.891C47.3455 36.4001 47.6849 36.7395 48.194 36.7395C48.7031 36.7395 49.0425 36.4001 49.0425 35.891V26.8971L51.5031 29.4425C51.8425 29.7819 52.3515 29.7819 52.6909 29.4425C53.0303 29.1031 53.0303 28.594 52.6909 28.2546L48.7879 24.2668C48.6182 24.0971 48.4485 24.0122 48.194 24.0122C47.9394 24.0122 47.7697 24.0971 47.6 24.2668L43.697 28.2546C43.3576 28.5092 43.4425 29.0183 43.697 29.3577Z" fill="#11192E"/>
<path d="M26.4727 41.2363H14.8485C14.3394 41.2363 14 41.5757 14 42.0848V51.6727C14 52.1818 14.3394 52.5212 14.8485 52.5212H26.4727C26.9818 52.5212 27.3212 52.1818 27.3212 51.6727V42.0848C27.3212 41.5757 26.897 41.2363 26.4727 41.2363ZM25.6242 50.7394H15.697V42.8485H25.6242V50.7394Z" fill="#11192E"/>
<path d="M18.4122 49.8061C18.5819 49.9758 18.7516 50.1455 19.0061 50.1455C19.2607 50.1455 19.5152 50.0606 19.6849 49.8909L24.5213 45.3091C24.8607 44.9697 24.8607 44.4606 24.5213 44.1212C24.1819 43.7819 23.6728 43.7819 23.3334 44.1212L19.2607 48.0243L17.988 46.0728C17.7334 45.6485 17.2243 45.5637 16.8001 45.8182C16.3758 46.0728 16.291 46.5819 16.5455 47.0061L18.4122 49.8061Z" fill="#11192E"/>
<path d="M3.90268 29.3576H16.1209C16.63 29.3576 16.9694 29.0182 16.9694 28.5091C16.9694 28 16.63 27.6606 16.1209 27.6606H3.90268C3.39359 27.6606 3.0542 28 3.0542 28.5091C3.0542 29.0182 3.39359 29.3576 3.90268 29.3576Z" fill="#11192E"/>
<path d="M3.90268 34.7028H25.8784C26.3875 34.7028 26.7269 34.3634 26.7269 33.8543C26.7269 33.3453 26.3875 33.0059 25.8784 33.0059H3.90268C3.39359 33.0059 3.0542 33.3453 3.0542 33.8543C3.0542 34.3634 3.39359 34.7028 3.90268 34.7028Z" fill="#11192E"/>
<path d="M3.90268 39.9638H25.8784C26.3875 39.9638 26.7269 39.6244 26.7269 39.1153C26.7269 38.6062 26.3875 38.2668 25.8784 38.2668H3.90268C3.39359 38.2668 3.0542 38.6062 3.0542 39.1153C3.0542 39.5396 3.39359 39.9638 3.90268 39.9638Z" fill="#11192E"/>
<path d="M11.8784 43.782H3.90268C3.39359 43.782 3.0542 44.1214 3.0542 44.6305C3.0542 45.1396 3.39359 45.479 3.90268 45.479H11.8784C12.3875 45.479 12.7269 45.1396 12.7269 44.6305C12.7269 44.1214 12.3875 43.782 11.8784 43.782Z" fill="#11192E"/>
<path d="M11.8784 49.2971H3.90268C3.39359 49.2971 3.0542 49.6365 3.0542 50.1456C3.0542 50.6547 3.39359 50.9941 3.90268 50.9941H11.8784C12.3875 50.9941 12.7269 50.6547 12.7269 50.1456C12.7269 49.6365 12.3875 49.2971 11.8784 49.2971Z" fill="#11192E"/>
</svg>
