<svg width="47" height="47" viewBox="0 0 47 47" fill="none" xmlns="http://www.w3.org/2000/svg">
<path d="M43.5281 7.47713C40.1658 7.47713 37.4304 4.74168 37.4304 1.37952V0H9.56942V1.37952C9.56942 4.74186 6.83396 7.47713 3.47181 7.47713H2.09229V16.6511C2.09229 23.2435 4.07813 29.5914 7.83537 35.0083C11.5926 40.4251 16.8422 44.5094 23.0167 46.8192L23.5 47L23.9834 46.8192C30.1579 44.5094 35.4075 40.4252 39.1646 35.0083C42.9218 29.5914 44.9076 23.2435 44.9076 16.6511V7.47713H43.5281ZM42.1487 16.6511H42.1486C42.1486 22.6789 40.3328 28.4828 36.8974 33.4357C33.5606 38.2466 28.9361 41.9079 23.4999 44.0493C18.0637 41.9078 13.4391 38.2466 10.1024 33.4357C6.66707 28.4829 4.85133 22.6789 4.85133 16.6511V10.129C8.63245 9.53503 11.6273 6.54016 12.2212 2.75905H34.7788C35.3726 6.54016 38.3675 9.53503 42.1487 10.129V16.6511Z" fill="#11192E"/>
<path d="M29.6556 12.9603L20.5239 22.092L17.344 18.9121L11.4912 24.765L20.5239 33.7977L35.5084 18.8131L29.6556 12.9603ZM15.3931 24.7652L17.3441 22.8142L20.524 25.9941L29.6557 16.8624L31.6067 18.8133L20.524 29.896L15.3931 24.7652Z" fill="#11192E"/>
</svg>
