<svg width="48" height="46" viewBox="0 0 48 46" fill="none" xmlns="http://www.w3.org/2000/svg">
<path d="M45.12 0.328613H2.88C2.11643 0.329496 1.38437 0.654254 0.844444 1.23163C0.304519 1.80901 0.000825859 2.59184 0 3.40837V44.4718C3.08391e-05 44.6469 0.0418893 44.819 0.121602 44.9718C0.201314 45.1246 0.316235 45.2532 0.455455 45.3452C0.594674 45.4372 0.753572 45.4896 0.917064 45.4975C1.08056 45.5053 1.24321 45.4684 1.3896 45.3901L8.64 41.5132L15.8904 45.3901C16.0238 45.4614 16.1709 45.4985 16.32 45.4985C16.4691 45.4985 16.6162 45.4614 16.7496 45.3901L24 41.5132L31.2504 45.3901C31.3838 45.4614 31.5309 45.4985 31.68 45.4985C31.8291 45.4985 31.9762 45.4614 32.1096 45.3901L39.36 41.5132L46.6104 45.3901C46.7568 45.4684 46.9194 45.5053 47.0829 45.4975C47.2464 45.4896 47.4053 45.4372 47.5445 45.3452C47.6838 45.2532 47.7987 45.1246 47.8784 44.9718C47.9581 44.819 48 44.6469 48 44.4718V3.40837C47.9992 2.59184 47.6955 1.80901 47.1556 1.23163C46.6156 0.654254 45.8836 0.329496 45.12 0.328613ZM46.08 42.8108L39.7896 39.4472C39.6562 39.3759 39.5091 39.3388 39.36 39.3388C39.2109 39.3388 39.0638 39.3759 38.9304 39.4472L31.68 43.3241L24.4296 39.4472C24.2962 39.3759 24.1491 39.3388 24 39.3388C23.8509 39.3388 23.7038 39.3759 23.5704 39.4472L16.32 43.3241L9.0696 39.4472C8.93621 39.3759 8.78913 39.3388 8.64 39.3388C8.49087 39.3388 8.34379 39.3759 8.2104 39.4472L1.92 42.8108V3.40837C1.92025 3.13619 2.02148 2.87523 2.20146 2.68277C2.38144 2.4903 2.62547 2.38206 2.88 2.38179H45.12C45.3745 2.38206 45.6186 2.4903 45.7985 2.68277C45.9785 2.87523 46.0797 3.13619 46.08 3.40837V42.8108ZM40.32 17.7806C40.32 18.0529 40.2189 18.314 40.0388 18.5065C39.8588 18.699 39.6146 18.8072 39.36 18.8072H27.84C27.5854 18.8072 27.3412 18.699 27.1612 18.5065C26.9811 18.314 26.88 18.0529 26.88 17.7806C26.88 17.5083 26.9811 17.2472 27.1612 17.0547C27.3412 16.8622 27.5854 16.754 27.84 16.754H39.36C39.6146 16.754 39.8588 16.8622 40.0388 17.0547C40.2189 17.2472 40.32 17.5083 40.32 17.7806ZM40.32 25.9933C40.32 26.2656 40.2189 26.5267 40.0388 26.7192C39.8588 26.9117 39.6146 27.0199 39.36 27.0199H27.84C27.5854 27.0199 27.3412 26.9117 27.1612 26.7192C26.9811 26.5267 26.88 26.2656 26.88 25.9933C26.88 25.721 26.9811 25.4599 27.1612 25.2674C27.3412 25.0749 27.5854 24.9667 27.84 24.9667H39.36C39.6146 24.9667 39.8588 25.0749 40.0388 25.2674C40.2189 25.4599 40.32 25.721 40.32 25.9933ZM20.16 12.6477H8.64C8.38539 12.6477 8.14121 12.7558 7.96118 12.9483C7.78114 13.1409 7.68 13.402 7.68 13.6742V30.0996C7.68 30.3719 7.78114 30.633 7.96118 30.8255C8.14121 31.0181 8.38539 31.1262 8.64 31.1262H20.16C20.4146 31.1262 20.6588 31.0181 20.8388 30.8255C21.0189 30.633 21.12 30.3719 21.12 30.0996V13.6742C21.12 13.402 21.0189 13.1409 20.8388 12.9483C20.6588 12.7558 20.4146 12.6477 20.16 12.6477ZM19.2 29.073H9.6V14.7008H19.2V29.073Z" fill="#11192E"/>
</svg>
