<svg width="271" height="60" viewBox="0 0 271 60" fill="none" xmlns="http://www.w3.org/2000/svg">
<path d="M30.113 8.15427V3.85675C30.113 1.70799 28.3633 0 26.2308 0C24.0983 0 22.4032 1.76309 22.4032 3.85675V8.09917C9.93616 9.97245 0.3125 20.7713 0.3125 33.8292C0.3125 48.1543 11.9046 59.8347 26.1214 59.8347C40.3382 59.8347 51.9303 48.1543 51.9303 33.8292C51.8756 20.8815 42.416 10.1377 30.113 8.15427ZM26.1214 55.0964C14.4746 55.0964 5.01497 45.5647 5.01497 33.8292C5.01497 23.416 12.5061 14.7107 22.4032 12.9477V17.5758C22.4032 18.843 23.0047 20 23.9342 20.7163V24.6281H15.2401C14.2559 24.6281 13.3263 25.124 12.7795 26.0055C12.2874 26.8871 12.2327 27.9339 12.7248 28.8154L23.7155 49.9174C24.2076 50.854 25.1919 51.4601 26.2308 51.4601C27.3244 51.4601 28.2539 50.854 28.746 49.9174L39.7367 28.8154C40.1741 27.9339 40.1741 26.832 39.6273 26.0055C39.1352 25.1791 38.2057 24.6281 37.2214 24.6281H28.5273V20.7163C29.5116 20 30.113 18.843 30.113 17.5758V12.9477C39.8461 14.876 47.1732 23.5262 47.1732 33.8292C47.1732 45.5647 37.7136 55.0964 26.1214 55.0964ZM182.834 46.0055H174.359V35.7025H181.576V26.6667H174.359V17.7961H182.014V8.31956H162.821V55.4821H182.834V46.0055ZM95.5649 17.741H99.1738V55.427H110.657V8.31956H84.0821V55.427H95.5649V17.741ZM80.2545 46.0606H71.7245V35.7025H78.9969V26.6667H71.7245V17.6859H79.5437V8.31956H60.0776V55.427H80.2545V46.0606ZM198.144 35.7576H201.699V55.4821H213.236V8.37466H201.699V25.2893H198.144V8.37466H186.662V55.4821H198.144V35.7576ZM223.844 55.4821H235.327V17.7961H242.216V8.37466H217.009V17.7961H223.844V55.4821ZM125.967 8.31956H114.484V55.427H125.967V8.31956ZM159.048 46.0055H156.588V8.31956H144.996V46.0055H141.387V8.31956H129.795V55.3719H151.01V60H159.048V46.0055ZM270.431 14.9862C270.158 13.5537 269.556 12.3967 268.736 11.405C267.861 10.4132 266.604 9.64187 264.909 9.14601C263.213 8.59504 260.808 8.37466 257.691 8.37466H246.044V55.4821H257.527V36.4738H260.644C263.159 36.4738 265.237 36.0882 266.768 35.3719C268.353 34.6556 269.392 33.5537 269.994 32.1763C270.595 30.7989 270.869 28.595 270.869 25.6198V21.4876C270.869 18.5675 270.705 16.3636 270.431 14.9862ZM258.675 27.4931C255.34 27.4931 252.606 24.7383 252.606 21.3774C252.606 18.0165 255.34 15.2617 258.675 15.2617C262.01 15.2617 264.745 18.0165 264.745 21.3774C264.745 24.7934 262.01 27.4931 258.675 27.4931Z" fill="white"/>
</svg>
