<svg width="55" height="54" viewBox="0 0 55 54" fill="none" xmlns="http://www.w3.org/2000/svg">
<path d="M53.8859 11.0903C53.8856 11.0901 53.8854 11.0899 53.8852 11.0896L43.026 0.25361C42.6676 -0.0845368 42.1071 -0.0845368 41.7487 0.25361L36.6385 5.35297C36.2858 5.70498 36.2858 6.27558 36.6385 6.62759L37.2771 7.2649L36.8408 7.70119C34.7856 8.08204 32.8951 9.07811 31.4207 10.5569L28.6466 13.3306L27.0919 11.7792C25.2903 9.97188 22.839 8.95879 20.2843 8.96589H17.8842L16.8715 7.95539L17.5102 7.31808C17.8628 6.96607 17.8628 6.39547 17.5102 6.04346L12.4 0.941398C12.0472 0.589504 11.4754 0.589504 11.1227 0.941398L0.264482 11.7765C-0.0881605 12.1285 -0.0881605 12.6991 0.264482 13.0511L5.37378 18.1505C5.72654 18.5024 6.29836 18.5024 6.65111 18.1505L7.28977 17.5132L7.72699 17.9495C8.10967 20 9.10764 21.8862 10.5888 23.358L17.1127 29.8645V34.2437C17.1054 36.7929 18.1211 39.2389 19.9329 41.0359L21.6294 42.7297V44.1593H20.7261C20.2272 44.1593 19.8227 44.5629 19.8227 45.0608V52.2722C19.8227 52.77 20.2272 53.1736 20.7261 53.1736H36.0829C36.5818 53.1736 36.9862 52.77 36.9862 52.2722V45.0608C36.9862 44.5629 36.5818 44.1593 36.0829 44.1593H35.1796V43.5428C36.3607 41.8232 36.9906 39.7863 36.9862 37.7015V32.2479C37.5753 32.1783 38.124 31.9136 38.5445 31.4961L43.026 27.0241C44.8257 25.2189 45.8391 22.7782 45.8462 20.2319V17.8377L46.8589 16.8263L47.4975 17.4645C47.8503 17.8164 48.4221 17.8164 48.7749 17.4645L53.8851 12.3652C54.238 12.0133 54.2384 11.4426 53.8859 11.0903ZM6.65111 15.6013L6.01245 16.2386L2.18047 12.4138L11.7613 2.85332L15.5942 6.67807L14.9564 7.31447L6.65111 15.6013ZM11.8661 22.0798C10.5834 20.8053 9.74077 19.1562 9.4605 17.3717C9.43047 17.1838 9.3416 17.0103 9.20667 16.8759L8.568 16.2386L12.0811 12.7329L15.5942 9.2273L16.8715 10.5019C17.0409 10.6709 17.2706 10.766 17.5102 10.766H20.2843C22.3597 10.7601 24.3511 11.5829 25.8146 13.0511L27.3693 14.6034L26.091 15.878L24.5364 14.3267C24.1836 13.9736 23.611 13.9729 23.2572 14.3249C22.9035 14.6769 22.9027 15.2483 23.2554 15.6013L24.8101 17.1526L21.2943 20.661C20.7863 21.166 20.5031 21.8537 20.5084 22.5693C20.5156 23.6485 21.1618 24.6213 22.1552 25.0482C21.816 25.6175 21.705 26.2936 21.8444 26.9412L19.0703 24.1729C18.7237 23.8148 18.1518 23.8049 17.7929 24.1507C17.4341 24.4965 17.4241 25.0673 17.7707 25.4253C17.7779 25.4329 17.7854 25.4402 17.7929 25.4475L21.3295 28.9766C21.497 29.1438 21.5898 29.3713 21.587 29.6076C21.582 30.1055 21.1772 30.5071 20.6782 30.509C20.441 30.524 20.2099 30.4297 20.0513 30.253L11.8661 22.0798ZM35.1796 51.3707H21.6294V45.9622H35.1796V51.3707ZM35.1796 37.7015C35.1836 39.5081 34.611 41.2689 33.5445 42.7288C33.4328 42.8827 33.3728 43.0679 33.3729 43.2579V44.1593H23.4361V42.3565C23.4361 42.1174 23.3408 41.8882 23.1714 41.7192L21.2103 39.7613C19.7388 38.3012 18.9139 36.3143 18.9194 34.2437V31.6421C19.4054 32.068 20.0287 32.305 20.6755 32.3101H20.6899C22.1836 32.3027 23.3925 31.0963 23.4 29.6058C23.3967 29.321 23.3476 29.0386 23.2545 28.7693C23.5968 28.9503 23.9744 29.0548 24.3611 29.0758C24.4358 30.4514 25.5348 31.5512 26.9131 31.6295C26.9918 33.0594 28.1709 34.182 29.6059 34.1932H29.6159C30.3297 34.1961 31.015 33.9133 31.5183 33.408L34.1994 30.7281C34.4162 31.1838 34.7555 31.5705 35.1796 31.845V37.7015ZM44.3033 16.8263C44.1339 16.9953 44.0386 17.2245 44.0386 17.4636V20.2319C44.0325 22.3003 43.2094 24.2829 41.7478 25.7495L37.2663 30.2215C37.1008 30.3868 36.8761 30.4793 36.6421 30.4784C36.1452 30.4736 35.7436 30.0728 35.7387 29.577C35.7357 29.3408 35.8282 29.1133 35.9953 28.946L36.0007 28.9406L40.4777 24.474C40.8243 24.1159 40.8144 23.5452 40.4555 23.1994C40.1055 22.862 39.5505 22.862 39.2003 23.1994L36.007 26.3859L34.7243 27.666L30.2482 32.1325C30.0826 32.2979 29.8575 32.3904 29.6231 32.3894C29.1265 32.384 28.7252 31.9836 28.7198 31.488C28.7173 31.2516 28.8104 31.0241 28.9781 30.857L34.7369 25.1104C35.0835 24.7523 35.0736 24.1817 34.7148 23.8358C34.3647 23.4984 33.8097 23.4984 33.4596 23.8358L27.7008 29.5824C27.5354 29.7477 27.3107 29.8402 27.0766 29.8393C26.5801 29.8334 26.1791 29.4333 26.1732 28.9379C26.1701 28.7015 26.2629 28.4739 26.4307 28.3069L32.1904 22.5603C32.5432 22.208 32.5429 21.6372 32.1899 21.2852C31.837 20.9332 31.2649 20.9334 30.9122 21.2857L25.1308 27.0322C24.9658 27.1974 24.7412 27.2897 24.5075 27.2883H24.5021C24.0052 27.2834 23.6036 26.8826 23.5987 26.3868C23.5981 26.1526 23.6907 25.9276 23.8562 25.7612L29.615 20.0138C29.9677 19.6611 29.967 19.0898 29.6136 18.7378C29.2602 18.3858 28.6877 18.3865 28.3349 18.7391L24.4433 22.6225L23.8553 23.2102C23.6896 23.3752 23.465 23.4677 23.231 23.4671C22.7342 23.4623 22.3326 23.0615 22.3277 22.5657C22.3242 22.3294 22.4168 22.1018 22.5843 21.9347L32.7107 11.8306C33.9877 10.5506 35.6399 9.70945 37.428 9.42922C37.6162 9.39925 37.7901 9.31057 37.9248 9.17592L38.5635 8.53861L45.5906 15.5508L44.3033 16.8263ZM48.1353 15.5517L38.5544 5.99028L42.3873 2.16553L51.9691 11.727L48.1353 15.5517Z" fill="#11192E"/>
</svg>
