<svg width="58" height="39" viewBox="0 0 58 39" fill="none" xmlns="http://www.w3.org/2000/svg">
<path d="M57.0729 13.5643L51.3091 2.52619C50.9654 1.87492 50.381 1.38357 49.6804 1.1568C48.9798 0.930036 48.2183 0.985769 47.5582 1.31213L41.9039 4.13916H37.6401L29.722 0.556506C29.1103 0.280188 28.42 0.231398 27.7755 0.418927L16.0153 3.84736L10.4421 1.06112C9.78198 0.734901 9.02062 0.679197 8.32007 0.905859C7.61951 1.13252 7.03507 1.62365 6.69116 2.27471L0.927405 13.3131C0.754501 13.6441 0.649275 14.0064 0.61787 14.3785C0.586464 14.7507 0.629508 15.1254 0.74449 15.4808C0.859471 15.8362 1.04409 16.1651 1.28756 16.4484C1.53103 16.7316 1.82849 16.9635 2.16256 17.1306L7.87194 19.9853L20.6088 29.9448C20.9188 30.1881 21.2768 30.363 21.6593 30.4581L35.243 33.8539C35.4639 33.9089 35.6907 33.9367 35.9184 33.9367C36.6661 33.9369 37.3835 33.6412 37.9137 33.114L46.538 24.4897C46.5553 24.4724 46.5719 24.4546 46.5879 24.4358L50.2146 20.1931L55.8377 17.3816C56.1717 17.2145 56.4691 16.9826 56.7126 16.6994C56.956 16.4161 57.1406 16.0872 57.2556 15.7319C57.3706 15.3766 57.4136 15.0019 57.3822 14.6297C57.3509 14.2576 57.2457 13.8954 57.0729 13.5643V13.5643ZM45.7256 22.5589L36.1139 15.5685C35.9517 15.4506 35.7561 15.3878 35.5557 15.3893C35.3552 15.3908 35.1605 15.4564 35.0001 15.5767L32.0001 17.8267C30.862 18.6735 29.4812 19.1308 28.0626 19.1308C26.6441 19.1308 25.2633 18.6735 24.1251 17.8267L22.8548 16.8739C22.7474 16.7934 22.6585 16.6907 22.5942 16.5727C22.5298 16.4548 22.4916 16.3245 22.4821 16.1905C22.4725 16.0565 22.4918 15.9221 22.5388 15.7962C22.5857 15.6704 22.6591 15.5561 22.754 15.4611L31.9263 6.28885C32.1025 6.11363 32.3406 6.01493 32.5891 6.01416H37.4351L37.4372 6.0144H41.557L48.5008 19.3121L45.7256 22.5589ZM2.52866 14.9035C2.48993 14.7851 2.47537 14.6602 2.48584 14.5361C2.4963 14.4119 2.53159 14.2912 2.58959 14.181L8.35311 3.14283C8.43321 2.99091 8.55334 2.86378 8.70049 2.77521C8.84764 2.68664 9.0162 2.64 9.18795 2.64033C9.33213 2.64021 9.47434 2.67376 9.60326 2.7383L14.6025 5.23768L7.97014 17.9385L3.00092 15.4536C2.88938 15.3982 2.79008 15.3211 2.70892 15.2266C2.62776 15.1322 2.56638 15.0224 2.52842 14.9038L2.52866 14.9035ZM36.588 31.7881C36.4733 31.9024 36.3311 31.9851 36.1751 32.0283C36.0191 32.0715 35.8545 32.0737 35.6974 32.0347L22.1137 28.6386C21.9863 28.607 21.8671 28.5487 21.7638 28.4678L9.56741 18.931L16.4969 5.66002L28.3001 2.21893C28.515 2.15622 28.7453 2.17252 28.9493 2.26486L33.0916 4.13916H32.5891C32.2197 4.13818 31.8537 4.21049 31.5124 4.3519C31.1711 4.49331 30.8612 4.70101 30.6007 4.96299L21.4284 14.1353C21.1435 14.4202 20.9231 14.763 20.7822 15.1405C20.6413 15.518 20.5832 15.9214 20.6117 16.3233C20.6403 16.7252 20.7549 17.1163 20.9478 17.4701C21.1406 17.8239 21.4072 18.1321 21.7296 18.3739L22.9999 19.3269C24.4633 20.4156 26.2387 21.0036 28.0626 21.0036C29.8866 21.0036 31.662 20.4156 33.1254 19.3269L35.5711 17.4922L44.4365 23.9396L36.588 31.7881ZM55.4716 15.1546C55.4337 15.2732 55.3723 15.383 55.2912 15.4775C55.21 15.572 55.1107 15.6492 54.9991 15.7046L50.0299 18.1892L43.3978 5.48846L48.3968 2.98932C48.6168 2.88049 48.8706 2.86187 49.1041 2.93743C49.3376 3.013 49.5324 3.17677 49.6469 3.39385L55.4109 14.432C55.469 14.5422 55.5043 14.663 55.5147 14.7872C55.5252 14.9114 55.5106 15.0364 55.4719 15.1548L55.4716 15.1546ZM26.1597 38.1165C26.13 38.236 26.077 38.3485 26.0038 38.4474C25.9305 38.5464 25.8385 38.63 25.7329 38.6934C25.6273 38.7567 25.5103 38.7987 25.3885 38.8168C25.2666 38.8348 25.1425 38.8287 25.023 38.7988L17.959 37.033C17.5291 36.9249 17.1306 36.7173 16.7958 36.4269L11.5101 31.8327C11.4166 31.7521 11.34 31.6538 11.2846 31.5435C11.2292 31.4332 11.1961 31.3131 11.1872 31.19C11.1783 31.0668 11.1939 30.9432 11.2329 30.8261C11.2719 30.709 11.3337 30.6008 11.4147 30.5076C11.4957 30.4144 11.5942 30.3382 11.7048 30.2832C11.8153 30.2282 11.9356 30.1956 12.0587 30.1873C12.1819 30.1789 12.3054 30.1949 12.4224 30.2344C12.5393 30.274 12.6473 30.3362 12.7401 30.4175L18.026 35.0122C18.1378 35.1089 18.2707 35.1781 18.4141 35.2142L25.4775 36.98C25.7186 37.0403 25.926 37.194 26.0539 37.4072C26.1818 37.6203 26.2198 37.8756 26.1595 38.1167L26.1597 38.1165Z" fill="#11192E"/>
</svg>
