<svg width="229" height="49" viewBox="0 0 229 49" fill="none" xmlns="http://www.w3.org/2000/svg">
<path fill-rule="evenodd" clip-rule="evenodd" d="M35.7638 17.767L32.0028 18.789C31.8749 18.8241 31.7384 18.8074 31.6229 18.7424C31.5074 18.6774 31.4221 18.5695 31.3858 18.442L28.5248 7.556C28.4878 7.42854 28.4029 7.32039 28.2878 7.25435C28.1727 7.18832 28.0364 7.16954 27.9078 7.202L26.4708 7.524C26.407 7.53749 26.3467 7.56371 26.2933 7.60108C26.24 7.63845 26.1947 7.6862 26.1603 7.74148C26.1258 7.79675 26.1029 7.85842 26.0928 7.92277C26.0828 7.98712 26.0858 8.05285 26.1018 8.116L28.3468 16.666C28.2068 16.706 27.1648 16.919 27.0188 16.962L24.8708 9.153C24.6908 8.492 24.0638 8.033 23.3508 8.033H19.1228C18.5428 8.033 18.0108 8.337 17.7368 8.825C17.7368 8.825 15.4378 12.91 14.7608 14.109H7.96976C7.41076 14.109 6.88976 14.396 6.60976 14.86L5.03576 17.457C4.85661 17.7498 4.78749 18.0969 4.84076 18.436L5.15276 20.412C5.19976 20.712 5.34076 20.979 5.54476 21.192C5.46976 21.414 5.41876 21.647 5.39376 21.883C5.34882 22.3018 5.39597 22.7254 5.53192 23.1241C5.66786 23.5227 5.88931 23.8869 6.18076 24.191C6.77076 24.811 7.59276 25.153 8.49976 25.153C10.2988 25.153 11.8398 23.81 12.0098 22.096C12.0198 21.993 12.0238 21.89 12.0238 21.788C12.0238 21.755 12.0238 21.722 12.0218 21.688H17.7908C17.9548 22.441 18.3208 23.133 18.8688 23.71C19.7388 24.624 20.9538 25.126 22.2868 25.126C24.9628 25.126 27.2508 23.13 27.5038 20.581C27.5248 20.371 27.5308 20.163 27.5238 19.958L29.1168 19.587L29.5568 21.267C29.5945 21.3936 29.6799 21.5007 29.795 21.5656C29.9101 21.6305 30.0459 21.6482 30.1738 21.615L35.0308 20.348C35.2988 20.281 35.5608 19.986 35.6088 19.697L36.1648 18.172C36.2168 17.882 36.0358 17.697 35.7648 17.767H35.7638ZM24.4628 20.307C24.3598 21.336 23.3628 22.207 22.2868 22.207C21.8258 22.207 21.4148 22.043 21.1318 21.747C20.8448 21.444 20.7138 21.031 20.7558 20.581C20.8598 19.55 21.8538 18.679 22.9308 18.679C23.3918 18.679 23.8038 18.844 24.0858 19.142C24.3718 19.44 24.5078 19.857 24.4628 20.307ZM18.1758 18.683H8.06276C8.04876 18.603 8.04376 18.575 8.03476 18.506L8.87776 17.115H15.7048C16.2848 17.115 16.8188 16.81 17.0918 16.323C17.0918 16.323 19.3898 12.235 20.0658 11.038H22.1368L23.4418 15.787C23.2717 15.7684 23.1008 15.759 22.9298 15.759C20.8598 15.759 19.0168 16.956 18.1748 18.683H18.1758ZM9.68276 21.883C9.62776 22.445 9.08476 22.92 8.49876 22.92C8.19276 22.92 8.00876 22.796 7.91076 22.69C7.83707 22.6112 7.78179 22.5171 7.74893 22.4144C7.71608 22.3116 7.70645 22.2029 7.72076 22.096C7.77676 21.534 8.31876 21.058 8.90276 21.058C9.20876 21.058 9.39276 21.185 9.49276 21.293C9.63776 21.442 9.70276 21.652 9.68276 21.883ZM42.2018 32.34H50.2558L53.5368 11.02L53.7268 32.34H63.1918L69.8898 11.377L66.6718 32.34H75.9768L80.7868 1.198H66.5948L60.8278 19.22L61.1258 1.203H47.0068L42.2018 32.34Z" fill="white"/>
<path fill-rule="evenodd" clip-rule="evenodd" d="M94.6999 19.597H90.4789L94.6989 8.593V19.597H94.6999ZM106.108 32.335L103.318 1.198H89.8279L75.9639 32.34H86.0599L88.0209 27.414H95.2579V32.335H106.108ZM108.52 32.34H116.794L119.734 13.75L122.556 32.333H134.939L139.869 1.198H131.389L128.498 19.506L125.941 1.198H113.455L108.52 32.34ZM137.458 32.34H147.372L151.927 1.198H142.012L137.458 32.34ZM226.685 1.204L223.315 23.814C223.315 23.792 222.601 33.538 209.229 33.538C197.941 33.538 198.763 26.531 199.124 23.778L202.512 1.203L212.726 1.198L209.516 22.505C209.403 23.263 209.121 25.135 211.036 25.135C212.951 25.135 213.234 23.263 213.346 22.505L216.519 1.198L226.685 1.204ZM187.12 22.526C187.01 23.283 186.731 25.156 184.839 25.156C182.947 25.156 183.226 23.283 183.338 22.526L184.914 11.95C185.058 10.978 185.306 9.321 187.199 9.321C189.091 9.321 188.844 10.978 188.699 11.95L187.121 22.526H187.12ZM195.792 2.66C193.299 0.918 190.284 1.217 186.011 1.217H154.378L153.133 9.303H158.497L154.997 33.051H165.15L168.64 9.325H175.283L173.345 22.37C173.345 22.37 171.183 33.538 183.17 33.538C196.002 33.538 196.9 23.705 196.9 23.705L198.846 10.668C198.846 10.668 199.83 5.509 195.792 2.66ZM16.8799 1.198H5.53594C5.46905 1.19924 5.40461 1.22332 5.35331 1.26625C5.30201 1.30919 5.26694 1.36838 5.25394 1.434L3.61694 11.978C6.11494 6.719 11.1169 2.632 16.8809 1.198H16.8799ZM0.00193832 34.479C-0.00239075 34.5124 0.000551758 34.5462 0.0105637 34.5784C0.0205756 34.6105 0.0374196 34.64 0.0599383 34.665L0.0569383 34.666C0.0770238 34.6885 0.101709 34.7063 0.129316 34.7184C0.156924 34.7305 0.186808 34.7365 0.216938 34.736H17.5999C27.0929 34.736 35.8169 27.078 37.1999 17.584L39.7899 0.253C39.7946 0.222879 39.7928 0.1921 39.7845 0.162762C39.7762 0.133425 39.7617 0.106219 39.7419 0.083C39.7399 0.077 39.7399 0.073 39.7359 0.07C39.7329 0.067 39.7329 0.063 39.7299 0.06L39.7259 0.064C39.6843 0.0231622 39.6283 0.000200242 39.5699 0L26.1169 0C26.4229 0.082 26.7189 0.189 27.0169 0.293C33.3739 2.695 37.5079 9.495 36.5229 16.983C36.5099 17.067 36.4969 17.149 36.4869 17.231C35.3019 25.365 28.6669 32.127 20.8109 33.797C19.7509 33.994 18.6769 34.102 17.6039 34.102H14.2039C13.5343 34.101 12.868 34.0074 12.2239 33.824C6.71094 32.144 2.78594 27.616 1.88894 21.854L0.00193832 34.479Z" fill="white"/>
</svg>
