<svg width="45" height="52" viewBox="0 0 45 52" fill="none" xmlns="http://www.w3.org/2000/svg">
<path d="M2.00118 45.5H25.8088C26.9034 45.5 27.7941 44.4064 27.7941 43.0625V12.1875C27.7941 12.1501 27.7809 12.1176 27.7769 12.0819C27.7732 12.0478 27.7675 12.0141 27.7597 11.9811C27.7338 11.8426 27.678 11.7152 27.5982 11.6122L18.3349 0.238875C18.2299 0.117128 18.0958 0.0401943 17.9524 0.0195C17.9246 0.01625 17.8981 0 17.8676 0H1.99324C0.894706 0 0 1.09362 0 2.4375V43.0625C0 44.4064 0.897353 45.5 2.00118 45.5ZM18.5294 2.77387L25.5349 11.375H19.1912C19.0157 11.375 18.8473 11.2894 18.7232 11.137C18.5991 10.9847 18.5294 10.778 18.5294 10.5625V2.77387ZM1.32353 2.4375C1.32353 1.989 1.62397 1.625 1.99324 1.625H17.2059V10.5625C17.2059 11.9064 18.0966 13 19.1912 13H26.4706V43.0625C26.4706 43.278 26.4009 43.4847 26.2768 43.637C26.1527 43.7894 25.9843 43.875 25.8088 43.875H2.00118C1.91323 43.8763 1.82593 43.8563 1.74428 43.8162C1.66263 43.776 1.58821 43.7165 1.52528 43.6411C1.46236 43.5656 1.41215 43.4757 1.37753 43.3764C1.34292 43.2772 1.32457 43.1705 1.32353 43.0625V2.4375Z" fill="#11192E"/>
<path d="M5.95571 19.5H21.8381C22.0136 19.5 22.1819 19.4144 22.306 19.262C22.4301 19.1097 22.4998 18.903 22.4998 18.6875C22.4998 18.472 22.4301 18.2653 22.306 18.113C22.1819 17.9606 22.0136 17.875 21.8381 17.875H5.95571C5.7802 17.875 5.61188 17.9606 5.48777 18.113C5.36367 18.2653 5.29395 18.472 5.29395 18.6875C5.29395 18.903 5.36367 19.1097 5.48777 19.262C5.61188 19.4144 5.7802 19.5 5.95571 19.5Z" fill="#11192E"/>
<path d="M5.95571 26H21.8381C22.0136 26 22.1819 25.9144 22.306 25.762C22.4301 25.6097 22.4998 25.403 22.4998 25.1875C22.4998 24.972 22.4301 24.7653 22.306 24.613C22.1819 24.4606 22.0136 24.375 21.8381 24.375H5.95571C5.7802 24.375 5.61188 24.4606 5.48777 24.613C5.36367 24.7653 5.29395 24.972 5.29395 25.1875C5.29395 25.403 5.36367 25.6097 5.48777 25.762C5.61188 25.9144 5.7802 26 5.95571 26Z" fill="#11192E"/>
<path d="M5.95571 13H12.5734C12.7489 13 12.9172 12.9144 13.0413 12.762C13.1654 12.6097 13.2351 12.403 13.2351 12.1875C13.2351 11.972 13.1654 11.7653 13.0413 11.613C12.9172 11.4606 12.7489 11.375 12.5734 11.375H5.95571C5.7802 11.375 5.61188 11.4606 5.48777 11.613C5.36367 11.7653 5.29395 11.972 5.29395 12.1875C5.29395 12.403 5.36367 12.6097 5.48777 12.762C5.61188 12.9144 5.7802 13 5.95571 13Z" fill="#11192E"/>
<path d="M5.95571 32.5H21.8381C22.0136 32.5 22.1819 32.4144 22.306 32.262C22.4301 32.1097 22.4998 31.903 22.4998 31.6875C22.4998 31.472 22.4301 31.2653 22.306 31.113C22.1819 30.9606 22.0136 30.875 21.8381 30.875H5.95571C5.7802 30.875 5.61188 30.9606 5.48777 31.113C5.36367 31.2653 5.29395 31.472 5.29395 31.6875C5.29395 31.903 5.36367 32.1097 5.48777 32.262C5.61188 32.4144 5.7802 32.5 5.95571 32.5Z" fill="#11192E"/>
<path d="M5.95571 39H21.8381C22.0136 39 22.1819 38.9144 22.306 38.762C22.4301 38.6097 22.4998 38.403 22.4998 38.1875C22.4998 37.972 22.4301 37.7653 22.306 37.613C22.1819 37.4606 22.0136 37.375 21.8381 37.375H5.95571C5.7802 37.375 5.61188 37.4606 5.48777 37.613C5.36367 37.7653 5.29395 37.972 5.29395 38.1875C5.29395 38.403 5.36367 38.6097 5.48777 38.762C5.61188 38.9144 5.7802 39 5.95571 39Z" fill="#11192E"/>
<path d="M28.4561 8.125H34.4119V17.0625C34.4119 18.4064 35.3027 19.5 36.3972 19.5H43.6766V49.5625C43.6766 49.778 43.6069 49.9847 43.4828 50.137C43.3587 50.2894 43.1904 50.375 43.0149 50.375H19.2072C19.1193 50.3763 19.032 50.3563 18.9503 50.3162C18.8687 50.276 18.7943 50.2165 18.7313 50.1411C18.6684 50.0656 18.6182 49.9757 18.5836 49.8764C18.549 49.7772 18.5306 49.6705 18.5296 49.5625V47.9375C18.5296 47.722 18.4599 47.5153 18.3358 47.363C18.2117 47.2106 18.0433 47.125 17.8678 47.125C17.6923 47.125 17.524 47.2106 17.3999 47.363C17.2758 47.5153 17.2061 47.722 17.2061 47.9375V49.5625C17.2061 50.9064 18.1034 52 19.2072 52H43.0149C44.1094 52 45.0002 50.9064 45.0002 49.5625V18.6875C45.0002 18.6501 44.9869 18.6176 44.983 18.5819C44.9793 18.5478 44.9735 18.5141 44.9658 18.4811C44.9398 18.3426 44.8841 18.2152 44.8043 18.1122L35.5409 6.73887C35.4367 6.61612 35.3021 6.5395 35.1584 6.52113C35.1306 6.51625 35.1041 6.5 35.0737 6.5H28.4561C28.2805 6.5 28.1122 6.5856 27.9881 6.73798C27.864 6.89035 27.7943 7.09701 27.7943 7.3125C27.7943 7.52799 27.864 7.73465 27.9881 7.88702C28.1122 8.0394 28.2805 8.125 28.4561 8.125ZM36.3972 17.875C36.2217 17.875 36.0534 17.7894 35.9293 17.637C35.8052 17.4847 35.7355 17.278 35.7355 17.0625V9.27387L42.7409 17.875H36.3972Z" fill="#11192E"/>
<path d="M31.1032 26H39.0443C39.2199 26 39.3882 25.9144 39.5123 25.762C39.6364 25.6097 39.7061 25.403 39.7061 25.1875C39.7061 24.972 39.6364 24.7653 39.5123 24.613C39.3882 24.4606 39.2199 24.375 39.0443 24.375H31.1032C30.9277 24.375 30.7593 24.4606 30.6352 24.613C30.5111 24.7653 30.4414 24.972 30.4414 25.1875C30.4414 25.403 30.5111 25.6097 30.6352 25.762C30.7593 25.9144 30.9277 26 31.1032 26Z" fill="#11192E"/>
<path d="M31.1032 32.5H39.0443C39.2199 32.5 39.3882 32.4144 39.5123 32.262C39.6364 32.1097 39.7061 31.903 39.7061 31.6875C39.7061 31.472 39.6364 31.2653 39.5123 31.113C39.3882 30.9606 39.2199 30.875 39.0443 30.875H31.1032C30.9277 30.875 30.7593 30.9606 30.6352 31.113C30.5111 31.2653 30.4414 31.472 30.4414 31.6875C30.4414 31.903 30.5111 32.1097 30.6352 32.262C30.7593 32.4144 30.9277 32.5 31.1032 32.5Z" fill="#11192E"/>
<path d="M31.1032 39H39.0443C39.2199 39 39.3882 38.9144 39.5123 38.762C39.6364 38.6097 39.7061 38.403 39.7061 38.1875C39.7061 37.972 39.6364 37.7653 39.5123 37.613C39.3882 37.4606 39.2199 37.375 39.0443 37.375H31.1032C30.9277 37.375 30.7593 37.4606 30.6352 37.613C30.5111 37.7653 30.4414 37.972 30.4414 38.1875C30.4414 38.403 30.5111 38.6097 30.6352 38.762C30.7593 38.9144 30.9277 39 31.1032 39Z" fill="#11192E"/>
<path d="M31.1032 45.5H39.0443C39.2199 45.5 39.3882 45.4144 39.5123 45.262C39.6364 45.1097 39.7061 44.903 39.7061 44.6875C39.7061 44.472 39.6364 44.2653 39.5123 44.113C39.3882 43.9606 39.2199 43.875 39.0443 43.875H31.1032C30.9277 43.875 30.7593 43.9606 30.6352 44.113C30.5111 44.2653 30.4414 44.472 30.4414 44.6875C30.4414 44.903 30.5111 45.1097 30.6352 45.262C30.7593 45.4144 30.9277 45.5 31.1032 45.5Z" fill="#11192E"/>
</svg>
