<svg width="50" height="50" viewBox="0 0 50 50" fill="none" xmlns="http://www.w3.org/2000/svg">
<path d="M16.9995 32.5093L32.9995 16.7563" stroke="black" stroke-width="2" stroke-linecap="round" stroke-linejoin="round"/>
<path d="M18.3329 19.3828C19.0693 19.3828 19.6663 18.7949 19.6663 18.0696C19.6663 17.3443 19.0693 16.7563 18.3329 16.7563C17.5965 16.7563 16.9995 17.3443 16.9995 18.0696C16.9995 18.7949 17.5965 19.3828 18.3329 19.3828Z" fill="black" stroke="black" stroke-width="2" stroke-linecap="round" stroke-linejoin="round"/>
<path d="M31.6669 32.5093C32.4033 32.5093 33.0002 31.9219 33.0002 31.1973C33.0002 30.4727 32.4033 29.8853 31.6669 29.8853C30.9305 29.8853 30.3335 30.4727 30.3335 31.1973C30.3335 31.9219 30.9305 32.5093 31.6669 32.5093Z" fill="black" stroke="black" stroke-width="2" stroke-linecap="round" stroke-linejoin="round"/>
<path d="M25 48.2651C38.2548 48.2651 49 37.6845 49 24.6326C49 11.5807 38.2548 1 25 1C11.7452 1 1 11.5807 1 24.6326C1 37.6845 11.7452 48.2651 25 48.2651Z" stroke="black" stroke-width="2" stroke-linecap="round" stroke-linejoin="round"/>
</svg>
