<svg width="60" height="53" viewBox="0 0 60 53" fill="none" xmlns="http://www.w3.org/2000/svg">
<path d="M46.649 31.063L38.649 34.063C38.4583 34.1345 38.2939 34.2626 38.1779 34.43C38.062 34.5974 37.9999 34.7963 38 35C38.0046 37.0174 38.4764 39.0063 39.3786 40.8107C40.2808 42.6151 41.5888 44.1859 43.2 45.4L46.4 47.8C46.5731 47.9298 46.7836 48 47 48C47.2164 48 47.4269 47.9298 47.6 47.8L50.8 45.4C52.4112 44.1859 53.7192 42.6151 54.6214 40.8107C55.5236 39.0063 55.9954 37.0174 56 35C56.0001 34.7963 55.938 34.5974 55.8221 34.43C55.7061 34.2626 55.5417 34.1345 55.351 34.063L47.351 31.063C47.1245 30.979 46.8755 30.979 46.649 31.063ZM53.979 35.685C53.8757 37.273 53.431 38.82 52.6753 40.2205C51.9196 41.621 50.8706 42.8419 49.6 43.8L47 45.75L44.4 43.8C43.1294 42.8419 42.0804 41.621 41.3247 40.2205C40.569 38.82 40.1243 37.273 40.021 35.685L47 33.068L53.979 35.685Z" fill="#11192E"/>
<path d="M59.383 0.0760002C59.2612 0.0279956 59.1309 0.00487416 59 0.0079999V0H9C8.73481 5.66374e-05 8.4805 0.105451 8.293 0.293L0.293003 8.293C0.199871 8.38564 0.126025 8.49582 0.0757332 8.61717C0.0254416 8.73852 -0.000297923 8.86864 2.60152e-06 9V45C2.60152e-06 45.2652 0.105359 45.5196 0.292896 45.7071C0.480432 45.8946 0.734786 46 1 46H38.528C39.6476 47.43 40.9493 48.7075 42.4 49.8L46.4 52.8C46.5731 52.9298 46.7836 53 47 53C47.2164 53 47.4269 52.9298 47.6 52.8L51.6 49.8C54.2024 47.8386 56.3151 45.301 57.7725 42.3862C59.2299 39.4715 59.9923 36.2588 60 33V1C60.0001 0.802234 59.9415 0.608894 59.8316 0.444425C59.7218 0.279956 59.5657 0.151745 59.383 0.0760002ZM23 10H29V18H23V10ZM24.414 8L30.414 2H35.586L29.586 8H24.414ZM38.414 2H56.586L50.586 8H32.414L38.414 2ZM52 9.414L58 3.414V31.5L52 29V9.414ZM9.414 2H27.586L21.586 8H3.414L9.414 2ZM2 44V10H21V19C21 19.2652 21.1054 19.5196 21.2929 19.7071C21.4804 19.8946 21.7348 20 22 20H30C30.2652 20 30.5196 19.8946 30.7071 19.7071C30.8946 19.5196 31 19.2652 31 19V10H50V28.167L47.385 27.077C47.263 27.0261 47.1322 26.9999 47 26.9999C46.8678 26.9999 46.737 27.0261 46.615 27.077L34.615 32.077C34.4328 32.153 34.2773 32.2812 34.1678 32.4454C34.0584 32.6097 34 32.8026 34 33C34.0097 36.8857 35.0948 40.693 37.135 44H2ZM50.4 48.2L47 50.75L43.6 48.2C41.335 46.4923 39.4789 44.3015 38.1663 41.7868C36.8538 39.2721 36.1179 36.4966 36.012 33.662L47 29.083L57.988 33.662C57.8821 36.4966 57.1462 39.2721 55.8337 41.7868C54.5211 44.3015 52.665 46.4923 50.4 48.2Z" fill="#11192E"/>
<path d="M24 34H20C19.7348 34 19.4804 34.1054 19.2929 34.2929C19.1054 34.4804 19 34.7348 19 35V36C19.0026 36.6183 19.1961 37.2206 19.5541 37.7247C19.9121 38.2288 20.4171 38.6099 21 38.816V40H19V42H25V40H23V38.816C23.5829 38.6099 24.0879 38.2288 24.4459 37.7247C24.8039 37.2206 24.9974 36.6183 25 36V35C25 34.7348 24.8946 34.4804 24.7071 34.2929C24.5196 34.1054 24.2652 34 24 34ZM22 37C21.7348 37 21.4804 36.8946 21.2929 36.7071C21.1054 36.5196 21 36.2652 21 36H23C23 36.2652 22.8946 36.5196 22.7071 36.7071C22.5196 36.8946 22.2652 37 22 37Z" fill="#11192E"/>
<path d="M12.5527 34.1001L10.5527 35.1001L11.4467 36.8901L11.9997 36.6181V42.0001H13.9997V36.6181L14.5527 36.8951L15.4467 35.1051L13.4467 34.1051C13.3083 34.0349 13.1555 33.998 13.0003 33.9971C12.8452 33.9962 12.6919 34.0315 12.5527 34.1001Z" fill="#11192E"/>
<path d="M6.55273 34.1001L4.55273 35.1001L5.44673 36.8901L5.99973 36.6181V42.0001H7.99973V36.6181L8.55273 36.8951L9.44673 35.1051L7.44673 34.1051C7.30832 34.0349 7.15549 33.998 7.00032 33.9971C6.84516 33.9962 6.69192 34.0315 6.55273 34.1001Z" fill="#11192E"/>
</svg>
