<svg width="51" height="44" viewBox="0 0 51 44" fill="none" xmlns="http://www.w3.org/2000/svg">
<path d="M19.0969 0C17.4478 0 16.0885 1.4689 16.0885 3.25106V6.50211H3.0524C1.4033 6.50211 0.0440674 7.97101 0.0440674 9.75317V19.1677C-0.0146891 19.3793 -0.0146891 19.5995 0.0440674 19.8111V40.0964C0.0440674 41.8785 1.4033 43.3474 3.0524 43.3474H47.1747C48.8238 43.3474 50.183 41.8785 50.183 40.0964V19.7095C50.2104 19.5656 50.2104 19.4132 50.183 19.2693V9.75317C50.183 7.97101 48.8238 6.50211 47.1747 6.50211H34.1385V3.25106C34.1385 1.4689 32.7793 0 31.1302 0H19.0969ZM19.0969 2.16737H31.1302C31.6943 2.16737 32.133 2.64148 32.133 3.25106V6.50211H18.0941V3.25106C18.0941 2.64148 18.5328 2.16737 19.0969 2.16737ZM3.0524 8.66948H47.1747C47.7387 8.66948 48.1774 9.14359 48.1774 9.75317V18.4226H41.158C41.158 17.2374 40.2492 16.2553 39.1524 16.2553H34.1385C33.0417 16.2553 32.133 17.2374 32.133 18.4226H18.0941C18.0941 17.2374 17.1853 16.2553 16.0885 16.2553H11.0746C9.97784 16.2553 9.06907 17.2374 9.06907 18.4226H2.04962V9.75317C2.04962 9.14359 2.48834 8.66948 3.0524 8.66948ZM11.0746 18.4226H16.0885V19.1677C16.0298 19.3793 16.0298 19.5995 16.0885 19.8111V20.59H11.0746V19.7095C11.102 19.5656 11.102 19.4132 11.0746 19.2693V18.4226ZM34.1385 18.4226H39.1524V19.1677C39.0937 19.3793 39.0937 19.5995 39.1524 19.8111V20.59H34.1385V19.7095C34.166 19.5656 34.166 19.4132 34.1385 19.2693V18.4226ZM2.04962 20.59H9.06907C9.06907 21.7753 9.97784 22.7574 11.0746 22.7574H16.0885C17.1853 22.7574 18.0941 21.7753 18.0941 20.59H32.133C32.133 21.7753 33.0417 22.7574 34.1385 22.7574H39.1524C40.2492 22.7574 41.158 21.7753 41.158 20.59H48.1774V40.0964C48.1774 40.7059 47.7387 41.18 47.1747 41.18H3.0524C2.48834 41.18 2.04962 40.7059 2.04962 40.0964V20.59Z" fill="#11192E"/>
</svg>
