<svg width="285" height="63" viewBox="0 0 285 63" fill="none" xmlns="http://www.w3.org/2000/svg">
<path d="M60.5903 1.78379L52.4634 45.828H60.8965L67.0474 12.0143L88.2275 42.7617L95.7144 1.78379H87.7266L83.9136 22.6351L69.5522 1.78379H60.5903ZM10.27 17.1714C8.43311 17.1714 6.87451 18.4537 6.5127 20.1541L6.4292 20.4887L4.73145 29.9108C4.67578 30.1617 4.64795 30.4126 4.64795 30.6634C4.64795 32.7541 6.4292 34.4546 8.54443 34.4546H15.5024C16.4487 34.4546 17.1167 35.5139 16.9497 36.378C16.7549 37.3816 16.3652 38.1342 14.8345 38.1342H3.20068L1.78125 45.8838H19.8442C23.3232 45.8838 24.0747 42.5944 24.0747 42.5944C24.0747 42.5944 25.8281 34.5103 25.8281 32.4196C25.8281 30.3289 24.1304 28.6564 22.043 28.6564H15.0015C13.8047 28.6564 13.415 27.7922 13.582 26.7329C13.7212 25.8966 14.4448 24.9488 15.6694 24.9488H27.3589L28.8062 17.2272H10.27V17.1714ZM32.1182 17.1714L26.8579 45.828H49.1792L50.5986 38.0785H36.2095L36.9053 34.4267H51.2666L52.3521 28.5449H37.9351L38.6309 24.8373H53.0479L54.4673 17.1435H32.1182V17.1714ZM95.6865 17.1714L89.6191 50.0931L68.6616 19.6803L61.0635 61.2157H69.2183L72.9756 40.7267L87.1143 61.2157H96.0205L104.12 17.1714H95.6865ZM107.432 17.1714L102.144 45.8559H124.381L125.773 38.1064H111.495L112.191 34.4546H126.469L127.526 28.5727H113.388L114 24.8652H128.167L129.614 17.1714H107.432ZM132.814 17.1714L127.554 45.8559H148.901C152.353 45.8559 153.744 44.4342 154.05 42.5665C154.05 42.5665 155.386 35.3745 155.414 35.1794C155.442 35.0121 155.47 34.8449 155.47 34.6497C155.47 33.1444 154.718 31.8342 153.466 31.1931C155.108 31.0258 156.36 29.7993 156.722 28.2103L156.778 27.9595L157.947 21.6037C157.975 21.4086 158.002 21.2134 158.002 20.9904C158.002 19.1227 156.973 17.1435 154.217 17.1435H132.814V17.1714ZM196.216 17.1714C194.351 17.1714 192.792 18.5095 192.458 20.2935L192.236 21.4643L189.146 38.19L188.618 41.0612C188.562 41.2842 188.534 41.5351 188.534 41.786C188.534 44.0161 190.343 45.828 192.57 45.828H209.742C211.857 45.828 213.611 44.3227 214.028 42.3435L216.561 28.5449H203.563L202.645 33.6462H208.74C208.74 33.6462 208.657 34.2595 208.518 35.0121C208.267 36.3223 207.516 38.0785 205.289 38.0785H198.275C197.524 38.0785 196.772 37.4373 196.939 36.5732L198.832 26.2311C198.999 25.3949 199.444 24.8652 200.196 24.8652H217.285L218.704 17.1714H196.216ZM222.016 17.1714L216.728 45.8559H238.966L240.413 38.1342H226.107L226.775 34.4546H241.025L242.083 28.5727H227.805L228.473 24.8652H242.751L244.198 17.1714H222.016ZM165.601 17.1993C163.625 17.1993 161.704 18.621 161.398 20.4887C161.398 20.4887 157.919 39.7789 157.863 40.0019C157.056 43.2356 159.645 45.8559 162.4 45.8559H180.24C182.216 45.8559 184.638 44.4621 184.944 42.5944L188.701 21.8546C188.701 21.8546 188.785 21.2134 188.785 21.0183C188.785 19.1506 187.588 17.1993 184.833 17.1993H165.601ZM247.538 17.1993L242.25 45.8838H249.653L252.548 30.2174L261.259 45.8838H267.716L272.977 17.1993H265.462L262.623 32.4196L254.023 17.1993H247.538ZM169.247 24.8373H178.626C179.238 24.8373 180.212 25.4506 179.934 26.5378L177.986 36.9634C177.819 37.5767 177.374 38.0785 176.761 38.0785H167.521C166.909 38.0785 165.935 37.4931 166.213 36.4059L168.105 25.9803C168.3 25.3949 168.634 24.8373 169.247 24.8373ZM139.16 24.8652H147.983C148.818 24.8652 149.375 25.6457 149.18 26.7329C148.957 27.8758 148.261 28.5449 147.315 28.5449H138.492L139.16 24.8652ZM137.407 34.4267H146.202C147.12 34.4267 147.565 35.3188 147.426 36.2665C147.287 37.298 146.536 38.0785 145.534 38.0785H136.711L137.407 34.4267Z" fill="white"/>
<path d="M279.517 6.91319C279.016 6.91319 278.515 7.02469 278.07 7.19195C277.625 7.38708 277.235 7.63796 276.901 8.00035C276.539 8.36274 276.289 8.75301 276.094 9.19903C275.899 9.64504 275.815 10.1189 275.815 10.6207C275.815 11.1225 275.899 11.5964 276.094 12.0424C276.289 12.4884 276.539 12.9065 276.901 13.2411C277.263 13.6035 277.652 13.8822 278.098 14.0773C278.543 14.2725 279.016 14.3561 279.517 14.3561C279.99 14.3561 280.463 14.2725 280.937 14.0773C281.382 13.8822 281.799 13.6035 282.161 13.2411C282.523 12.9065 282.773 12.5163 282.968 12.0703C283.135 11.6242 283.219 11.1504 283.219 10.6207C283.219 10.1189 283.107 9.64504 282.94 9.19903C282.746 8.75301 282.523 8.33487 282.161 8.00035C281.799 7.63796 281.382 7.38708 280.937 7.19195C280.491 6.99681 280.018 6.91319 279.517 6.91319ZM279.517 7.27557C279.962 7.27557 280.38 7.3592 280.797 7.52646C281.215 7.69372 281.577 7.91673 281.911 8.22336C282.217 8.53 282.439 8.89239 282.606 9.31053C282.773 9.7008 282.857 10.1468 282.857 10.6207C282.857 11.0667 282.773 11.4849 282.606 11.903C282.439 12.2933 282.217 12.6557 281.911 12.9623C281.577 13.2689 281.215 13.5198 280.797 13.6871C280.38 13.8543 279.962 13.938 279.517 13.938C279.072 13.938 278.654 13.8543 278.237 13.6871C277.819 13.5198 277.485 13.2689 277.151 12.9623C276.845 12.6557 276.595 12.2933 276.428 11.8751C276.261 11.4849 276.177 11.0667 276.177 10.6207C276.177 10.1747 276.261 9.75655 276.428 9.33841C276.595 8.92027 276.845 8.55788 277.151 8.22336C277.458 7.91673 277.819 7.66584 278.209 7.49858C278.626 7.3592 279.072 7.27557 279.517 7.27557ZM278.265 8.50212V12.7114H278.487V10.788H279.74L280.658 12.7114H281.02L280.046 10.7043C280.352 10.6765 280.603 10.565 280.797 10.3419C280.992 10.1468 281.076 9.89593 281.076 9.58929C281.076 9.17115 280.937 8.89239 280.658 8.69726C280.38 8.50212 279.935 8.50212 279.322 8.50212H278.265ZM278.487 8.80876H279.517C279.962 8.80876 280.269 8.86451 280.491 9.00389C280.714 9.1154 280.797 9.31053 280.797 9.56142C280.797 9.86805 280.714 10.0632 280.547 10.2026C280.352 10.3141 280.018 10.3977 279.545 10.3977H278.515V8.80876H278.487Z" fill="white"/>
</svg>
