<svg width="229" height="51" viewBox="0 0 229 51" fill="none" xmlns="http://www.w3.org/2000/svg">
<path d="M24.6549 48.6512C21.4914 48.6217 18.3619 47.9956 15.4304 46.8058C12.6073 45.6429 10.0423 43.9323 7.88335 41.7728C5.72443 39.6132 4.01433 37.0475 2.85172 34.2236C1.64595 31.2962 1.01941 28.1626 1.00684 24.9966C1.03634 21.8323 1.66224 18.7019 2.85172 15.7696C4.01433 12.9457 5.72443 10.3799 7.88335 8.22041C10.0423 6.06089 12.6073 4.35032 15.4304 3.18737C18.357 1.98127 21.4897 1.35456 24.6549 1.34198C27.8183 1.37149 30.9478 1.99756 33.8793 3.18737C36.7024 4.35032 39.2674 6.06089 41.4264 8.22041C43.5853 10.3799 45.2954 12.9457 46.458 15.7696C47.6638 18.697 48.2903 21.8305 48.3029 24.9966C48.2734 28.1609 47.6475 31.2913 46.458 34.2236C45.2954 37.0475 43.5853 39.6132 41.4264 41.7728C39.2674 43.9323 36.7024 45.6429 33.8793 46.8058C30.9527 48.0119 27.82 48.6386 24.6549 48.6512Z" fill="white"/>
<path d="M24.6546 1.17447C19.9443 1.17447 15.3398 2.57163 11.4233 5.18926C7.50682 7.8069 4.4543 11.5274 2.65174 15.8804C0.849186 20.2334 0.377555 25.0233 1.29649 29.6444C2.21543 34.2654 4.48365 38.5102 7.81434 41.8418C11.145 45.1734 15.3886 47.4423 20.0084 48.3615C24.6282 49.2807 29.4167 48.8089 33.7685 47.0058C38.1203 45.2028 41.8398 42.1494 44.4567 38.2318C47.0736 34.3143 48.4703 29.7085 48.4703 24.9968C48.4482 18.6856 45.932 12.6391 41.4705 8.1763C37.0089 3.71352 30.9641 1.19658 24.6546 1.17447V1.17447ZM24.6546 48.4837C20.0106 48.4837 15.471 47.1062 11.6097 44.5254C7.74834 41.9447 4.73881 38.2765 2.96164 33.9849C1.18447 29.6932 0.719486 24.9708 1.62548 20.4148C2.53147 15.8588 4.76775 11.6738 8.05153 8.38913C11.3353 5.10444 15.5191 2.86753 20.0738 1.96129C24.6286 1.05504 29.3497 1.52016 33.6401 3.29782C37.9306 5.07549 41.5977 8.08586 44.1778 11.9482C46.7578 15.8106 48.1349 20.3516 48.1349 24.9968C48.1349 31.2259 45.6611 37.1999 41.2577 41.6045C36.8543 46.0092 30.882 48.4837 24.6546 48.4837Z" fill="white"/>
<path d="M24.6551 48.4838C37.6229 48.4838 48.1354 37.9684 48.1354 24.997C48.1354 12.0255 37.6229 1.51013 24.6551 1.51013C11.6873 1.51013 1.1748 12.0255 1.1748 24.997C1.1748 37.9684 11.6873 48.4838 24.6551 48.4838Z" fill="white"/>
<path d="M24.6547 46.4703C21.8144 46.4783 19.0012 45.9185 16.3803 44.8238C13.7594 43.729 11.3836 42.1214 9.39249 40.0953C7.37227 38.0997 5.76855 35.7225 4.67448 33.1017C3.5804 30.481 3.01777 27.6689 3.01926 24.8288C2.99595 21.9856 3.54864 19.167 4.64398 16.5432C5.73933 13.9194 7.35464 11.5447 9.39249 9.56238C11.3875 7.5416 13.7641 5.93744 16.3841 4.84306C19.0041 3.74868 21.8154 3.18589 24.6547 3.18738C27.4972 3.16407 30.3149 3.71691 32.938 4.81256C35.5611 5.90821 37.9351 7.52397 39.9169 9.56238C41.9371 11.558 43.5408 13.9352 44.6349 16.5559C45.729 19.1767 46.2916 21.9888 46.2901 24.8288C46.3134 27.6721 45.7607 30.4907 44.6654 33.1145C43.57 35.7383 41.9547 38.1129 39.9169 40.0953C37.9351 42.1337 35.5611 43.7495 32.938 44.8451C30.3149 45.9408 27.4972 46.4936 24.6547 46.4703Z" fill="#11192E"/>
<path d="M24.655 46.1347C21.8787 46.1491 19.1276 45.6073 16.564 44.5412C14.0004 43.4751 11.6761 41.9064 9.72824 39.9275C7.73672 37.989 6.15975 35.6659 5.09302 33.0993C4.02629 30.5327 3.49205 27.776 3.52273 24.9966C3.53602 19.3945 5.76672 14.0256 9.72691 10.0643C13.6871 6.10302 19.0545 3.8717 24.655 3.85841C30.2555 3.8717 35.6229 6.10302 39.5831 10.0643C43.5433 14.0256 45.774 19.3945 45.7873 24.9966C45.8016 27.7736 45.2599 30.5255 44.1942 33.0898C43.1284 35.6541 41.5601 37.9791 39.5818 39.9275C37.6438 41.9196 35.3214 43.497 32.7555 44.564C30.1896 45.631 27.4337 46.1654 24.655 46.1347Z" fill="#11192E"/>
<path d="M24.6549 44.4573C20.8083 44.4557 17.0484 43.3134 13.8505 41.175C10.6527 39.0365 8.16033 35.9978 6.68849 32.4429C5.21665 28.8879 4.83139 24.9763 5.58139 21.2024C6.3314 17.4285 8.183 13.9617 10.9022 11.2402C12.7075 9.43232 14.8513 7.99813 17.2111 7.01962C19.5709 6.0411 22.1004 5.53745 24.6549 5.53745C27.2095 5.53745 29.7389 6.0411 32.0987 7.01962C34.4585 7.99813 36.6024 9.43232 38.4077 11.2402C41.1269 13.9617 42.9785 17.4285 43.7285 21.2024C44.4785 24.9763 44.0932 28.8879 42.6214 32.4429C41.1496 35.9978 38.6572 39.0365 35.4593 41.175C32.2615 43.3134 28.5016 44.4557 24.6549 44.4573Z" fill="#11192E"/>
<path d="M15.0949 32.7133L18.1138 33.7199C18.3552 33.814 18.6181 33.8389 18.8729 33.7918C19.1277 33.7446 19.3642 33.6273 19.556 33.4529C19.7477 33.2786 19.887 33.0541 19.9581 32.8049C20.0293 32.5557 20.0295 32.2916 19.9587 32.0422C19.1201 27.0093 15.9335 23.9896 9.56026 22.8153C9.39255 22.8153 9.39255 22.8153 9.39255 22.6475C9.55792 21.2273 10.0147 19.8566 10.7343 18.6212C10.7343 18.5767 10.7519 18.534 10.7834 18.5026C10.8149 18.4711 10.8575 18.4534 10.902 18.4534V17.1113C10.7343 17.1113 10.7343 17.2791 10.5666 17.4468C9.67916 19.0713 9.05638 20.8269 8.72168 22.6475C8.72168 22.983 8.8894 23.3185 9.22483 23.3185C15.4303 24.3251 18.6169 27.1771 19.2878 32.0422C19.2878 32.3778 19.2878 32.5455 19.1201 32.7133C19.0538 32.7767 18.9743 32.8246 18.8873 32.8536C18.8003 32.8827 18.708 32.892 18.617 32.881C18.3805 32.9062 18.1429 32.8467 17.9461 32.7133L15.2626 31.3712H14.9272L15.0949 32.5455C14.9272 32.7133 14.9272 32.7133 15.0949 32.7133Z" fill="white"/>
<path d="M38.7435 34.2233L37.4017 34.3911V34.5588C36.4552 35.4103 35.2962 35.9899 34.0474 36.2365C33.8797 36.2365 33.8797 36.2364 33.8797 36.0687V35.9009C33.8679 35.7268 33.7934 35.5629 33.6701 35.4395C33.5467 35.3161 33.3829 35.2416 33.2088 35.2299H17.6112C17.5201 35.2189 17.4278 35.2283 17.3408 35.2573C17.2538 35.2863 17.1743 35.3342 17.108 35.3976C16.6049 35.7332 15.934 36.0687 15.4309 36.4042C15.3646 36.4676 15.2851 36.5156 15.1981 36.5446C15.1111 36.5736 15.0188 36.5829 14.9277 36.572H13.4183C13.2506 36.572 13.0828 36.572 13.0828 36.4042C12.412 35.2299 11.7411 34.3911 10.9025 33.049C10.7348 32.8812 10.7348 32.8812 10.9025 32.7134L9.89623 31.7068C9.80515 31.7973 9.74624 31.9152 9.72852 32.0424C9.86818 32.4269 10.0983 32.7721 10.3994 33.049C10.5671 33.2167 10.7348 33.5522 10.9025 33.72L11.4057 34.3911C11.8347 34.9814 12.2268 35.5977 12.5797 36.2365L12.7474 36.572C12.9151 36.7397 12.9151 36.9075 13.2506 36.9075H15.2632C15.3542 36.9185 15.4466 36.9091 15.5336 36.8801C15.6206 36.8511 15.7 36.8032 15.7663 36.7397L17.6112 35.7332C17.6982 35.6374 17.8178 35.5776 17.9466 35.5654H33.0411C33.3765 35.5654 33.3765 35.9009 33.3765 36.0687V36.572C33.3841 36.6584 33.4219 36.7394 33.4832 36.8008C33.5445 36.8622 33.6255 36.8999 33.712 36.9075C35.5658 36.5788 37.3008 35.7689 38.7435 34.5588V34.2233Z" fill="white"/>
<path d="M33.2082 31.8747V32.5458C33.2082 32.7136 33.0405 33.0491 32.8728 33.0491H32.5374C32.4463 33.06 32.354 33.0507 32.267 33.0217C32.18 32.9927 32.1005 32.9447 32.0342 32.8813C31.8665 32.7136 31.8665 32.2103 31.8665 32.0425L32.0342 31.707C33.0305 28.2777 33.4277 24.7022 33.2082 21.1379C33.1924 22.6304 32.9083 24.1078 32.3697 25.4997C32.1813 27.7674 31.7884 30.0134 31.1956 32.2103C30.8602 33.2168 31.5311 33.7201 32.3697 33.7201H33.2082C33.3823 33.7084 33.5462 33.6339 33.6695 33.5105C33.7929 33.3871 33.8673 33.2232 33.8791 33.0491V32.7136L33.5437 31.707C33.2082 31.5392 33.2082 31.707 33.2082 31.8747Z" fill="white"/>
<path d="M27.1707 26.0033C26.7737 26.0011 26.3801 26.0777 26.0128 26.2286C25.6456 26.3796 25.3119 26.602 25.0311 26.8828C24.7503 27.1637 24.528 27.4974 24.3771 27.8648C24.2262 28.2322 24.1496 28.6259 24.1518 29.0231C24.1343 29.3599 24.1847 29.6969 24.2999 30.0139C24.4151 30.3309 24.5929 30.6215 24.8227 30.8684L26.1644 29.8619C25.9784 29.5558 25.8637 29.2118 25.829 28.8553C25.829 28.3659 26.0234 27.8965 26.3694 27.5504C26.7153 27.2043 27.1846 27.0099 27.6739 27.0099C28.1632 27.0099 28.6324 27.2043 28.9784 27.5504C29.3244 27.8965 29.5188 28.3659 29.5188 28.8553C29.5319 29.1178 29.4771 29.3793 29.3596 29.6145C29.242 29.8496 29.0658 30.0504 28.8479 30.1974L29.5188 30.8684C29.9127 30.3293 30.1454 29.6893 30.1896 29.0231C30.1919 28.6259 30.1153 28.2322 29.9644 27.8648C29.8134 27.4974 29.5912 27.1637 29.3104 26.8828C29.0296 26.602 28.6959 26.3796 28.3286 26.2286C27.9614 26.0777 27.5678 26.0011 27.1707 26.0033Z" fill="white"/>
<path d="M12.915 15.2662C14.8789 16.3576 16.6846 17.7122 18.2819 19.2925C18.2375 19.2925 18.1948 19.3102 18.1633 19.3416C18.1319 19.3731 18.1142 19.4158 18.1142 19.4603C18.6363 19.8916 19.0889 20.4009 19.456 20.9701C20.1268 21.809 20.4622 22.3122 20.7977 22.6478C21.3008 22.6478 21.6363 22.6478 21.804 22.48C21.9717 22.3122 21.9717 22.3122 21.6363 21.9767C21.6363 21.809 21.4685 21.809 21.4685 21.6412C21.4685 21.4734 21.1331 21.1379 20.9654 20.9701C20.7977 20.8024 20.63 20.4669 20.4622 20.2991C20.2551 20.1079 20.0846 19.8805 19.9591 19.628L19.456 19.1247L18.9528 18.6215L18.4497 18.1182L17.9465 17.6149L17.4434 17.1116C17.2756 16.9438 17.1079 16.7761 16.9402 16.7761C16.7725 16.6083 16.6048 16.6083 16.4371 16.4405C16.2693 16.2728 16.1016 16.2728 15.9339 16.105C15.7662 15.9372 15.5985 15.9372 15.4308 15.7695C15.263 15.6017 15.0953 15.6017 14.9276 15.434C14.7599 15.2662 14.5922 15.2662 14.4245 15.0984C14.3374 15.0027 14.2178 14.9429 14.089 14.9307C13.9619 14.9129 13.8441 14.854 13.7536 14.7629C13.5859 14.5951 13.4182 14.5951 13.7536 14.2596C14.563 13.4337 15.4632 12.7021 16.4371 12.0787H16.6048L17.2756 11.0721C17.1079 11.0721 16.9402 11.0721 16.9402 11.2399C15.4469 12.1627 14.0917 13.2923 12.915 14.5951C12.7473 14.7629 12.7473 14.7629 12.7473 14.9307C12.4119 14.7629 12.5796 14.9307 12.915 15.2662Z" fill="white"/>
<path d="M19.9588 10.2333C21.9463 11.7889 23.6004 13.7287 24.8226 15.9373H24.4871C25.2535 17.3452 25.9258 18.8024 26.4997 20.2991V20.4669H27.1706C27.3383 20.4669 27.3383 20.4669 27.3383 20.2991V20.1314C26.4522 17.0552 24.8418 14.2364 22.6423 11.911L22.4745 11.7432L22.3068 11.5754L22.1391 11.4077L21.9714 11.2399L21.8037 11.0722C21.7592 11.0722 21.7165 11.0545 21.6851 11.023C21.6536 10.9916 21.636 10.9489 21.636 10.9044L21.4682 10.7366L21.3005 10.5689L21.1328 10.4011C20.9651 10.2333 20.9651 10.0656 21.3005 10.0656C22.3507 9.82892 23.4152 9.66081 24.4871 9.56229H25.158L26.332 9.059H24.9903C23.3987 9.02283 21.812 9.24956 20.2942 9.73006C19.9588 9.73006 19.9588 9.89782 19.9588 10.0656C19.7911 9.89782 19.7911 10.0656 19.9588 10.2333Z" fill="white"/>
<path d="M37.2333 34.2237C36.2449 33.4357 35.1022 32.8641 33.8789 32.546C33.7112 32.546 33.7112 32.546 33.7112 32.7138V32.8816C33.6994 33.0557 33.625 33.2196 33.5016 33.343C33.3783 33.4664 33.2144 33.5408 33.0403 33.5526H32.2018C32.0202 33.5442 31.8427 33.4966 31.6813 33.4129C31.5199 33.3293 31.3786 33.2117 31.267 33.0682C31.1555 32.9247 31.0763 32.7588 31.035 32.5817C30.9937 32.4047 30.9912 32.2208 31.0277 32.0428C34.0466 20.9704 30.6923 14.0921 25.8285 9.73026C25.3254 9.22697 24.99 9.39473 24.3191 9.39473C23.2373 9.39781 22.1625 9.56757 21.1325 9.89802C20.797 9.89802 20.797 10.0658 20.9648 10.2335C24.0821 12.8769 26.3563 16.3765 27.5057 20.2993C27.5057 20.4671 27.5057 20.4671 27.338 20.4671C26.9045 20.4744 26.4763 20.3703 26.0945 20.1647C25.7128 19.959 25.3902 19.6588 25.1577 19.2928C22.7894 16.3676 19.8866 13.9195 16.6041 12.0789C16.5743 12.0406 16.5362 12.0096 16.4926 11.9883C16.449 11.9669 16.4011 11.9558 16.3526 11.9558C16.304 11.9558 16.2561 11.9669 16.2125 11.9883C16.1689 12.0096 16.1308 12.0406 16.101 12.0789C15.0671 12.6152 14.1539 13.3574 13.4175 14.2599C13.3792 14.2897 13.3482 14.3278 13.3269 14.3714C13.3055 14.415 13.2944 14.463 13.2944 14.5115C13.2944 14.5601 13.3055 14.608 13.3269 14.6516C13.3482 14.6952 13.3792 14.7334 13.4175 14.7632C16.7752 16.5668 19.6953 19.0868 21.9711 22.1447C22.0345 22.211 22.0824 22.2905 22.1114 22.3776C22.1404 22.4646 22.1497 22.5569 22.1388 22.648C21.6576 22.7953 21.1483 22.8264 20.6527 22.739C20.1572 22.6515 19.6894 22.4479 19.2876 22.1447C16.6692 20.661 13.9179 19.4254 11.0695 18.4539C10.7341 18.2862 10.5663 18.4539 10.5663 18.6217C9.92011 19.8891 9.46783 21.2463 9.22461 22.648C9.22461 22.8158 9.22461 22.8158 9.39233 22.8158C15.7656 24.1579 18.9522 27.0099 19.7907 32.0428C19.8615 32.2921 19.8613 32.5562 19.7902 32.8054C19.719 33.0547 19.5798 33.2791 19.388 33.4534C19.1963 33.6278 18.9597 33.7451 18.7049 33.7923C18.4502 33.8395 18.1873 33.8146 17.9459 33.7204L14.927 32.7138H10.5663C10.3986 32.7138 10.2309 32.8816 10.3986 33.0493C11.2372 34.3914 11.9081 35.2303 12.5789 36.4046C12.5789 36.5724 12.7467 36.5724 12.9144 36.5724H14.4238C14.5149 36.5833 14.6072 36.574 14.6942 36.545C14.7812 36.5159 14.8607 36.468 14.927 36.4046C15.4301 36.0691 16.101 35.7335 16.6041 35.398C16.6704 35.3346 16.7499 35.2867 16.8369 35.2577C16.9239 35.2287 17.0162 35.2193 17.1073 35.2303H32.7049C32.879 35.242 33.0428 35.3165 33.1662 35.4399C33.2895 35.5633 33.364 35.7272 33.3758 35.9013V36.0691C33.3758 36.2368 33.3758 36.2368 33.5435 36.2368C34.7798 35.9544 35.9302 35.3791 36.8978 34.5592C37.401 34.3914 37.401 34.2237 37.2333 34.2237ZM27.1703 32.2105C26.5732 32.2105 25.9895 32.0334 25.4931 31.7016C24.9966 31.3698 24.6097 30.8982 24.3812 30.3464C24.1527 29.7946 24.0929 29.1874 24.2094 28.6017C24.3259 28.0159 24.6134 27.4778 25.0356 27.0555C25.4578 26.6332 25.9957 26.3456 26.5813 26.2291C27.1669 26.1126 27.7739 26.1724 28.3255 26.4009C28.8772 26.6295 29.3487 27.0165 29.6804 27.5131C30.0121 28.0097 30.1892 28.5935 30.1892 29.1908C30.164 29.9837 29.8378 30.7372 29.2771 31.2981C28.7163 31.8591 27.9629 32.1853 27.1703 32.2105Z" fill="white"/>
<path d="M37.2333 34.2237C36.2449 33.4357 35.1022 32.8641 33.8789 32.546C33.7112 32.546 33.7112 32.546 33.7112 32.7138V32.8816C33.6994 33.0557 33.625 33.2196 33.5016 33.343C33.3783 33.4664 33.2144 33.5408 33.0403 33.5526H32.2018C32.0202 33.5442 31.8427 33.4966 31.6813 33.4129C31.5199 33.3293 31.3786 33.2117 31.267 33.0682C31.1555 32.9247 31.0763 32.7588 31.035 32.5817C30.9937 32.4047 30.9912 32.2208 31.0277 32.0428C34.0466 20.9704 30.6923 14.0921 25.8285 9.73026C25.3254 9.22697 24.99 9.39473 24.3191 9.39473C23.2373 9.39781 22.1625 9.56757 21.1325 9.89802C20.797 9.89802 20.797 10.0658 20.9648 10.2335C24.0821 12.8769 26.3563 16.3765 27.5057 20.2993C27.5057 20.4671 27.5057 20.4671 27.338 20.4671C26.9045 20.4744 26.4763 20.3703 26.0945 20.1647C25.7128 19.959 25.3902 19.6588 25.1577 19.2928C22.7894 16.3676 19.8866 13.9195 16.6041 12.0789C16.5743 12.0406 16.5362 12.0096 16.4926 11.9883C16.449 11.9669 16.4011 11.9558 16.3526 11.9558C16.304 11.9558 16.2561 11.9669 16.2125 11.9883C16.1689 12.0096 16.1308 12.0406 16.101 12.0789C15.0671 12.6152 14.1539 13.3574 13.4175 14.2599C13.3792 14.2897 13.3482 14.3278 13.3269 14.3714C13.3055 14.415 13.2944 14.463 13.2944 14.5115C13.2944 14.5601 13.3055 14.608 13.3269 14.6516C13.3482 14.6952 13.3792 14.7334 13.4175 14.7632C16.7752 16.5668 19.6953 19.0868 21.9711 22.1447C22.0345 22.211 22.0824 22.2905 22.1114 22.3776C22.1404 22.4646 22.1497 22.5569 22.1388 22.648C21.6576 22.7953 21.1483 22.8264 20.6527 22.739C20.1572 22.6515 19.6894 22.4479 19.2876 22.1447C16.6692 20.661 13.9179 19.4254 11.0695 18.4539C10.7341 18.2862 10.5663 18.4539 10.5663 18.6217C9.92011 19.8891 9.46783 21.2463 9.22461 22.648C9.22461 22.8158 9.22461 22.8158 9.39233 22.8158C15.7656 24.1579 18.9522 27.0099 19.7907 32.0428C19.8615 32.2921 19.8613 32.5562 19.7902 32.8054C19.719 33.0547 19.5798 33.2791 19.388 33.4534C19.1963 33.6278 18.9597 33.7451 18.7049 33.7923C18.4502 33.8395 18.1873 33.8146 17.9459 33.7204L14.927 32.7138H10.5663C10.3986 32.7138 10.2309 32.8816 10.3986 33.0493C11.2372 34.3914 11.9081 35.2303 12.5789 36.4046C12.5789 36.5724 12.7467 36.5724 12.9144 36.5724H14.4238C14.5149 36.5833 14.6072 36.574 14.6942 36.545C14.7812 36.5159 14.8607 36.468 14.927 36.4046C15.4301 36.0691 16.101 35.7335 16.6041 35.398C16.6704 35.3346 16.7499 35.2867 16.8369 35.2577C16.9239 35.2287 17.0162 35.2193 17.1073 35.2303H32.7049C32.879 35.242 33.0428 35.3165 33.1662 35.4399C33.2895 35.5633 33.364 35.7272 33.3758 35.9013V36.0691C33.3758 36.2368 33.3758 36.2368 33.5435 36.2368C34.7798 35.9544 35.9302 35.3791 36.8978 34.5592C37.401 34.3914 37.401 34.2237 37.2333 34.2237ZM27.1703 32.2105C26.5732 32.2105 25.9895 32.0334 25.4931 31.7016C24.9966 31.3698 24.6097 30.8982 24.3812 30.3464C24.1527 29.7946 24.0929 29.1874 24.2094 28.6017C24.3259 28.0159 24.6134 27.4778 25.0356 27.0555C25.4578 26.6332 25.9957 26.3456 26.5813 26.2291C27.1669 26.1126 27.7739 26.1724 28.3255 26.4009C28.8772 26.6295 29.3487 27.0165 29.6804 27.5131C30.0121 28.0097 30.1892 28.5935 30.1892 29.1908C30.164 29.9837 29.8378 30.7372 29.2771 31.2981C28.7163 31.8591 27.9629 32.1853 27.1703 32.2105Z" fill="white"/>
<path d="M37.2333 34.2237C36.2449 33.4357 35.1022 32.8641 33.8789 32.546C33.7112 32.546 33.7112 32.546 33.7112 32.7138V32.8816C33.6994 33.0557 33.625 33.2196 33.5016 33.343C33.3783 33.4664 33.2144 33.5408 33.0403 33.5526H32.2018C32.0202 33.5442 31.8427 33.4966 31.6813 33.4129C31.5199 33.3293 31.3786 33.2117 31.267 33.0682C31.1555 32.9247 31.0763 32.7588 31.035 32.5817C30.9937 32.4047 30.9912 32.2208 31.0277 32.0428C34.0466 20.9704 30.6923 14.0921 25.8285 9.73026C25.3254 9.22697 24.99 9.39473 24.3191 9.39473C23.2373 9.39781 22.1625 9.56757 21.1325 9.89802C20.797 9.89802 20.797 10.0658 20.9648 10.2335C24.0821 12.8769 26.3563 16.3765 27.5057 20.2993C27.5057 20.4671 27.5057 20.4671 27.338 20.4671C26.9045 20.4744 26.4763 20.3703 26.0945 20.1647C25.7128 19.959 25.3902 19.6588 25.1577 19.2928C22.7894 16.3676 19.8866 13.9195 16.6041 12.0789C16.5743 12.0406 16.5362 12.0096 16.4926 11.9883C16.449 11.9669 16.4011 11.9558 16.3526 11.9558C16.304 11.9558 16.2561 11.9669 16.2125 11.9883C16.1689 12.0096 16.1308 12.0406 16.101 12.0789C15.0671 12.6152 14.1539 13.3574 13.4175 14.2599C13.3792 14.2897 13.3482 14.3278 13.3269 14.3714C13.3055 14.415 13.2944 14.463 13.2944 14.5115C13.2944 14.5601 13.3055 14.608 13.3269 14.6516C13.3482 14.6952 13.3792 14.7334 13.4175 14.7632C16.7752 16.5668 19.6953 19.0868 21.9711 22.1447C22.0345 22.211 22.0824 22.2905 22.1114 22.3776C22.1404 22.4646 22.1497 22.5569 22.1388 22.648C21.6576 22.7953 21.1483 22.8264 20.6527 22.739C20.1572 22.6515 19.6894 22.4479 19.2876 22.1447C16.6692 20.661 13.9179 19.4254 11.0695 18.4539C10.7341 18.2862 10.5663 18.4539 10.5663 18.6217C9.92011 19.8891 9.46783 21.2463 9.22461 22.648C9.22461 22.8158 9.22461 22.8158 9.39233 22.8158C15.7656 24.1579 18.9522 27.0099 19.7907 32.0428C19.8615 32.2921 19.8613 32.5562 19.7902 32.8054C19.719 33.0547 19.5798 33.2791 19.388 33.4534C19.1963 33.6278 18.9597 33.7451 18.7049 33.7923C18.4502 33.8395 18.1873 33.8146 17.9459 33.7204L14.927 32.7138H10.5663C10.3986 32.7138 10.2309 32.8816 10.3986 33.0493C11.2372 34.3914 11.9081 35.2303 12.5789 36.4046C12.5789 36.5724 12.7467 36.5724 12.9144 36.5724H14.4238C14.5149 36.5833 14.6072 36.574 14.6942 36.545C14.7812 36.5159 14.8607 36.468 14.927 36.4046C15.4301 36.0691 16.101 35.7335 16.6041 35.398C16.6704 35.3346 16.7499 35.2867 16.8369 35.2577C16.9239 35.2287 17.0162 35.2193 17.1073 35.2303H32.7049C32.879 35.242 33.0428 35.3165 33.1662 35.4399C33.2895 35.5633 33.364 35.7272 33.3758 35.9013V36.0691C33.3758 36.2368 33.3758 36.2368 33.5435 36.2368C34.7798 35.9544 35.9302 35.3791 36.8978 34.5592C37.401 34.3914 37.401 34.2237 37.2333 34.2237ZM27.1703 32.2105C26.5732 32.2105 25.9895 32.0334 25.4931 31.7016C24.9966 31.3698 24.6097 30.8982 24.3812 30.3464C24.1527 29.7946 24.0929 29.1874 24.2094 28.6017C24.3259 28.0159 24.6134 27.4778 25.0356 27.0555C25.4578 26.6332 25.9957 26.3456 26.5813 26.2291C27.1669 26.1126 27.7739 26.1724 28.3255 26.4009C28.8772 26.6295 29.3487 27.0165 29.6804 27.5131C30.0121 28.0097 30.1892 28.5935 30.1892 29.1908C30.164 29.9837 29.8378 30.7372 29.2771 31.2981C28.7163 31.8591 27.9629 32.1853 27.1703 32.2105Z" fill="white"/>
<path d="M38.7424 33.7203C37.3121 32.3626 35.4952 31.4832 33.5432 31.2039C33.3692 31.2156 33.2053 31.2901 33.0819 31.4135C32.9586 31.5369 32.8841 31.7008 32.8723 31.8749V32.546C32.8723 32.7137 32.8723 32.7137 32.7046 32.7137H32.3692C32.2015 32.7137 32.2015 32.7137 32.0338 32.546V32.0427L32.2015 31.7071C34.2141 24.9966 34.8849 15.7696 27.0023 9.05912C26.6668 8.72359 26.3314 8.72359 25.996 8.55583H24.822C23.2304 8.51966 21.6437 8.74639 20.1259 9.22688C19.7905 9.39465 19.6227 9.56241 19.6227 9.73017C19.6055 9.86272 19.6282 9.99741 19.6879 10.117C19.7477 10.2365 19.8418 10.3355 19.9582 10.4012C21.7064 11.9113 23.2311 13.6624 24.4865 15.6019C23.8157 15.6019 23.4802 15.2664 22.9771 14.7631C21.2325 13.2881 19.3827 11.9424 17.4424 10.7368C17.2747 10.7368 17.107 10.569 16.9393 10.569C16.8482 10.558 16.7559 10.5674 16.6689 10.5964C16.5819 10.6254 16.5024 10.6733 16.4361 10.7368C14.855 11.6734 13.4385 12.8636 12.2432 14.2598C12.1798 14.3261 12.1319 14.4056 12.1029 14.4926C12.0739 14.5796 12.0645 14.672 12.0755 14.7631C12.0755 15.0986 12.4109 15.2664 12.9141 15.4341C14.7539 16.5066 16.4939 17.7418 18.1133 19.1249H17.7779C17.2452 19.0639 16.7311 18.8925 16.2684 18.6216C14.6272 17.8639 12.9478 17.192 11.2369 16.6085H10.9015C10.3983 16.6085 10.2306 16.944 10.2306 17.1118C9.36906 18.7476 8.74771 20.4992 8.38574 22.3124C8.38574 22.8157 8.55346 23.319 9.05661 23.319C15.0944 24.3256 18.281 27.0098 18.9519 31.8749C18.9519 32.0427 18.9519 32.3782 18.7842 32.3782C18.6971 32.4739 18.5775 32.5337 18.4487 32.546C18.3577 32.5569 18.2653 32.5476 18.1783 32.5186C18.0913 32.4895 18.0118 32.4416 17.9456 32.3782L15.2621 31.0361C15.135 31.0184 15.0171 30.9594 14.9267 30.8683H10.2306C9.55976 30.8683 9.39204 31.2039 9.39204 31.7071C9.39204 32.2104 9.72747 32.3782 10.0629 32.8815C10.2306 33.0493 10.3983 33.3848 10.5661 33.5525L11.0692 34.2236C11.4982 34.8139 11.8903 35.4302 12.2432 36.069L12.4109 36.4045C12.5787 36.74 12.7464 36.74 13.0818 36.74H15.0944C15.1854 36.751 15.2778 36.7416 15.3648 36.7126C15.4518 36.6836 15.5313 36.6357 15.5975 36.5723L17.4424 35.5657H32.8723C32.8944 35.5657 32.9162 35.57 32.9365 35.5785C32.9569 35.5869 32.9754 35.5993 32.9909 35.6148C33.0065 35.6304 33.0189 35.6489 33.0273 35.6693C33.0357 35.6896 33.0401 35.7114 33.0401 35.7335V36.2368C33.0401 36.5723 33.2078 36.9078 33.5432 36.9078H33.7109C35.6629 36.6285 37.4798 35.7491 38.9101 34.3914C38.9735 34.3251 39.0215 34.2456 39.0504 34.1585C39.0795 34.0715 39.0888 33.9791 39.0778 33.8881C39.0778 34.0558 38.9101 33.8881 38.7424 33.7203ZM38.5747 34.5591C37.2175 35.8976 35.4405 36.7271 33.5432 36.9078C33.3755 36.9078 33.3755 36.74 33.3755 36.5723V36.069C33.3836 36.0009 33.3761 35.932 33.3537 35.8672C33.3313 35.8025 33.2945 35.7436 33.246 35.6952C33.1976 35.6467 33.1388 35.6099 33.0741 35.5875C33.0093 35.5651 32.9404 35.5576 32.8723 35.5657H17.6101C17.5191 35.5547 17.4267 35.5641 17.3397 35.5931C17.2527 35.6221 17.1733 35.67 17.107 35.7335C16.4361 36.069 15.933 36.4045 15.2621 36.74C15.135 36.7578 15.0171 36.8167 14.9267 36.9078H12.9141C12.7464 36.9078 12.5787 36.9078 12.5787 36.74L12.4109 36.4045C11.5724 35.0624 11.5724 34.8946 10.7338 33.7203C10.2306 32.8815 9.55976 32.3782 9.55976 32.0427C9.55167 31.9746 9.55911 31.9056 9.58154 31.8409C9.60396 31.7761 9.64078 31.7173 9.68922 31.6689C9.73766 31.6204 9.79646 31.5836 9.86118 31.5612C9.92591 31.5387 9.99488 31.5313 10.0629 31.5394H15.0944C15.0944 31.5394 16.9393 32.3782 17.7779 32.8815C18.6164 33.3848 19.455 32.8815 19.2873 32.0427C18.4487 26.3387 14.4235 24.1578 9.05661 23.1512C8.72118 23.1512 8.72117 22.8157 8.72117 22.4802C9.02481 20.6744 9.5898 18.9224 10.3983 17.2795C10.4782 17.1772 10.5798 17.094 10.6959 17.0359C10.8119 16.9779 10.9395 16.9465 11.0692 16.944C12.7907 17.4984 14.4719 18.171 16.1007 18.9571C17.4424 19.6282 17.9456 19.4604 18.4487 19.1249V18.7894C16.7058 17.3124 14.8559 15.9666 12.9141 14.7631C12.4109 14.5953 12.2432 14.4275 12.5787 14.092C13.7554 12.7892 15.1106 11.6596 16.6038 10.7368C16.6961 10.6542 16.8155 10.6086 16.9393 10.6086C17.063 10.6086 17.1825 10.6542 17.2747 10.7368C19.215 11.9424 21.0648 13.2881 22.8094 14.7631C23.3567 15.277 24.0717 15.575 24.822 15.6019C24.9897 15.6019 25.1574 15.6019 25.1574 15.4341C23.847 13.2881 22.2055 11.363 20.2936 9.73017C20.1259 9.56241 20.1259 9.56241 20.1259 9.39465C20.1259 9.22688 20.2936 9.22688 20.4613 9.22688C21.9791 8.74639 23.5658 8.51966 25.1574 8.55583H26.1637C26.4991 8.55583 26.6668 8.72359 27.0023 8.89136C35.2204 15.7696 33.7109 25.6677 32.0338 31.2039C32.0338 31.3716 32.0338 31.3716 31.866 31.5394C31.8396 31.8835 31.8972 32.229 32.0338 32.546C32.2015 32.7137 32.3692 32.8815 32.5369 32.8815H32.8723C33.0032 32.8735 33.1266 32.818 33.2193 32.7252C33.312 32.6325 33.3675 32.5091 33.3755 32.3782V31.7071C33.383 31.6207 33.4208 31.5397 33.4822 31.4783C33.5435 31.417 33.6245 31.3792 33.7109 31.3716C35.5143 31.7014 37.1949 32.513 38.5747 33.7203C38.6658 33.8108 38.7247 33.9287 38.7424 34.0558C38.7424 34.3914 38.5747 34.3914 38.5747 34.5591Z" fill="#050A19"/>
<path d="M27.6735 26.8421C27.2423 26.8421 26.8207 26.97 26.4622 27.2097C26.1036 27.4493 25.8242 27.7899 25.6591 28.1884C25.4941 28.5869 25.4509 29.0254 25.5351 29.4485C25.6192 29.8716 25.8268 30.2602 26.1318 30.5652C26.4367 30.8702 26.8252 31.0779 27.2481 31.162C27.6711 31.2462 28.1094 31.203 28.5078 31.0379C28.9062 30.8729 29.2468 30.5933 29.4863 30.2347C29.7259 29.876 29.8538 29.4544 29.8538 29.023C29.8147 28.4575 29.5724 27.9252 29.1717 27.5244C28.771 27.1236 28.2388 26.8812 27.6735 26.8421ZM27.6735 30.7007C27.3086 30.7007 26.9519 30.5924 26.6485 30.3896C26.3451 30.1869 26.1087 29.8987 25.969 29.5615C25.8294 29.2243 25.7929 28.8532 25.864 28.4952C25.9352 28.1373 26.1109 27.8085 26.369 27.5504C26.627 27.2923 26.9557 27.1165 27.3136 27.0453C27.6714 26.9741 28.0424 27.0107 28.3795 27.1503C28.7166 27.29 29.0047 27.5265 29.2074 27.83C29.4102 28.1335 29.5184 28.4903 29.5184 28.8553C29.5448 29.1041 29.5152 29.3557 29.4318 29.5916C29.3485 29.8275 29.2134 30.0417 29.0365 30.2187C28.8596 30.3956 28.6454 30.5307 28.4096 30.6141C28.1737 30.6975 27.9222 30.7271 27.6735 30.7007Z" fill="#050A19"/>
<path d="M27.673 30.7004C27.3081 30.7004 26.9514 30.5921 26.648 30.3894C26.3447 30.1866 26.1082 29.8984 25.9686 29.5612C25.8289 29.224 25.7924 28.8529 25.8636 28.495C25.9348 28.137 26.1105 27.8082 26.3685 27.5501C26.6265 27.292 26.9552 27.1162 27.3131 27.045C27.671 26.9738 28.0419 27.0104 28.379 27.1501C28.7161 27.2897 29.0042 27.5263 29.207 27.8297C29.4097 28.1332 29.5179 28.49 29.5179 28.855C29.5443 29.1038 29.5147 29.3554 29.4314 29.5913C29.348 29.8272 29.2129 30.0415 29.036 30.2184C28.8592 30.3953 28.6449 30.5304 28.4091 30.6138C28.1733 30.6972 27.9218 30.7268 27.673 30.7004Z" fill="#050A19"/>
<path d="M64.739 36.9076C68.261 37.0754 73.9634 37.2432 77.3177 37.2432C91.7413 37.2432 93.4185 37.2432 93.4185 29.3583C93.4185 23.151 91.5736 22.6478 84.0264 22.48L75.1374 22.3122C71.1122 22.1445 70.9445 21.8089 70.9445 19.9635C70.9445 18.1182 71.4476 18.1182 81.1752 18.1182C83.0201 18.1182 88.8901 18.2859 92.0767 18.2859C92.1448 18.294 92.2137 18.2866 92.2785 18.2641C92.3432 18.2417 92.402 18.2049 92.4504 18.1564C92.4989 18.108 92.5357 18.0492 92.5581 17.9844C92.5805 17.9197 92.588 17.8507 92.5799 17.7826V13.7563C92.588 13.6883 92.5805 13.6193 92.5581 13.5545C92.5357 13.4898 92.4989 13.431 92.4504 13.3825C92.402 13.3341 92.3432 13.2972 92.2785 13.2748C92.2137 13.2524 92.1448 13.2449 92.0767 13.253C89.0579 13.0853 84.0264 12.9175 80.3366 12.9175C66.2484 12.9175 63.9004 13.253 63.9004 20.4668C63.9004 26.6741 65.2421 27.5129 74.2988 27.8484L82.3492 28.1839C86.2067 28.3517 86.2067 28.855 86.2067 30.1971C86.2067 32.2103 86.039 32.2103 76.9823 32.2103C72.7894 32.2103 68.4287 32.0425 64.5713 31.8747C64.5032 31.8666 64.4343 31.8741 64.3695 31.8965C64.3048 31.9189 64.246 31.9558 64.1976 32.0042C64.1491 32.0527 64.1123 32.1115 64.0899 32.1762C64.0675 32.241 64.06 32.31 64.0681 32.378V36.5721C64.4035 36.7399 64.5713 36.9076 64.739 36.9076ZM217.193 28.1839H206.627L211.491 18.6214H212.329L217.193 28.1839ZM186.333 24.8287V25.1642C186.333 31.2037 185.83 31.5392 177.948 31.5392H171.407V18.6214H177.948C185.83 18.6214 186.333 18.7892 186.333 24.8287ZM152.119 24.8287V25.1642C152.119 31.8747 151.784 31.8747 144.069 31.8747C136.354 31.8747 136.018 31.707 136.018 25.1642V24.8287C136.018 18.1182 136.354 18.1182 144.069 18.1182C151.784 18.1182 152.119 18.1182 152.119 24.8287ZM228.933 36.4043L217.529 13.5885C217.361 13.253 217.193 13.253 217.025 13.253H206.963C206.627 13.253 206.459 13.4208 206.459 13.5885L195.055 36.4043C194.887 36.7399 195.055 37.0754 195.39 37.0754H201.931C202.266 37.0754 202.434 36.9076 202.434 36.7399L204.111 33.3846H219.709L221.386 36.7399C221.554 37.0754 221.722 37.0754 221.889 37.0754H228.43C228.933 36.9076 229.101 36.7399 228.933 36.4043ZM177.948 13.0853H164.698C164.63 13.0772 164.561 13.0846 164.496 13.107C164.432 13.1295 164.373 13.1663 164.324 13.2148C164.276 13.2632 164.239 13.322 164.217 13.3868C164.194 13.4515 164.187 13.5205 164.195 13.5885V36.4043C164.187 36.4724 164.194 36.5414 164.217 36.6061C164.239 36.6709 164.276 36.7297 164.324 36.7781C164.373 36.8266 164.432 36.8634 164.496 36.8858C164.561 36.9083 164.63 36.9157 164.698 36.9076H177.948C192.036 36.9076 193.881 36.2366 193.881 25.1642V24.9964C193.881 13.7563 192.036 13.0853 177.948 13.0853ZM126.794 36.4043L113.712 23.4866L126.123 13.7563C126.459 13.4208 126.291 13.0853 125.955 13.0853H117.905C117.67 13.0783 117.438 13.1363 117.234 13.253L104.655 23.3188V13.5885C104.664 13.5205 104.656 13.4515 104.634 13.3868C104.611 13.322 104.574 13.2632 104.526 13.2148C104.478 13.1663 104.419 13.1295 104.354 13.107C104.289 13.0846 104.22 13.0772 104.152 13.0853H97.9468C97.8788 13.0772 97.8098 13.0846 97.7451 13.107C97.6804 13.1295 97.6216 13.1663 97.5731 13.2148C97.5247 13.2632 97.4879 13.322 97.4655 13.3868C97.443 13.4515 97.4356 13.5205 97.4437 13.5885V36.4043C97.4356 36.4724 97.443 36.5414 97.4655 36.6061C97.4879 36.6709 97.5247 36.7297 97.5731 36.7781C97.6216 36.8266 97.6804 36.8634 97.7451 36.8858C97.8098 36.9083 97.8788 36.9157 97.9468 36.9076H104.152C104.22 36.9157 104.289 36.9083 104.354 36.8858C104.419 36.8634 104.478 36.8266 104.526 36.7781C104.574 36.7297 104.611 36.6709 104.634 36.6061C104.656 36.5414 104.664 36.4724 104.655 36.4043V30.7004L108.345 27.6807L117.402 36.5721C117.482 36.6744 117.583 36.7576 117.699 36.8157C117.816 36.8737 117.943 36.9051 118.073 36.9076H126.794C127.129 36.9076 127.129 36.5721 126.794 36.4043ZM128.303 24.8287V25.1642C128.303 36.7399 130.148 37.4109 144.069 37.4109C157.989 37.4109 159.834 36.7399 159.834 25.1642V24.8287C159.834 13.253 157.989 12.582 144.069 12.582C130.148 12.582 128.303 13.4208 128.303 24.8287ZM72.6216 7.54907L75.6405 10.9043C75.7204 11.0067 75.822 11.0899 75.9381 11.1479C76.0541 11.206 76.1817 11.2374 76.3114 11.2399H82.6846C83.0201 11.2399 83.1878 11.2399 83.3555 10.9043L86.3744 7.54907C86.7098 7.21355 86.5421 6.87802 86.039 6.87802H81.846C81.7163 6.88051 81.5888 6.91191 81.4727 6.96996C81.3567 7.028 81.255 7.11122 81.1752 7.21355L79.8335 9.05894H78.9949L77.6531 7.21355C77.5733 7.11122 77.4717 7.028 77.3556 6.96996C77.2395 6.91191 77.112 6.88051 76.9823 6.87802H72.7894C72.4539 7.04578 72.2862 7.38131 72.6216 7.54907Z" fill="white"/>
</svg>
