<svg width="143" height="32" viewBox="0 0 143 32" fill="none" xmlns="http://www.w3.org/2000/svg">
<path d="M15.396 30.5265C13.4206 30.5079 11.4663 30.1151 9.63579 29.3686C7.87286 28.6389 6.27112 27.5656 4.92297 26.2106C3.57483 24.8556 2.50695 23.2457 1.78095 21.4738C1.028 19.6371 0.63676 17.6709 0.628906 15.6844C0.647327 13.6989 1.03817 11.7347 1.78095 9.89489C2.50695 8.123 3.57483 6.51313 4.92297 5.15813C6.27112 3.80314 7.87286 2.72984 9.63579 2.00015C11.4633 1.24338 13.4195 0.850149 15.396 0.842255C17.3714 0.860769 19.3257 1.2536 21.1562 2.00015C22.9192 2.72984 24.5209 3.80314 25.869 5.15813C27.2172 6.51313 28.2851 8.123 29.0111 9.89489C29.764 11.7317 30.1553 13.6978 30.1631 15.6844C30.1447 17.6698 29.7538 19.634 29.0111 21.4738C28.2851 23.2457 27.2172 24.8556 25.869 26.2106C24.5209 27.5656 22.9192 28.6389 21.1562 29.3686C19.3287 30.1253 17.3725 30.5186 15.396 30.5265Z" fill="white"/>
<path d="M15.3953 0.736847C12.4539 0.736847 9.57859 1.61349 7.13293 3.25593C4.68727 4.89837 2.78111 7.23283 1.6555 9.9641C0.529881 12.6954 0.235369 15.7008 0.809202 18.6003C1.38304 21.4998 2.79944 24.1632 4.8793 26.2536C6.95917 28.344 9.60907 29.7676 12.4939 30.3444C15.3788 30.9211 18.369 30.6251 21.0865 29.4938C23.804 28.3624 26.1266 26.4466 27.7608 23.9885C29.3949 21.5304 30.2671 18.6405 30.2671 15.6842C30.2533 11.7242 28.682 7.93033 25.896 5.13015C23.11 2.32998 19.3353 0.750718 15.3953 0.736847V0.736847ZM15.3953 30.4211C12.4953 30.4211 9.66051 29.5568 7.2493 27.9374C4.83809 26.3181 2.95877 24.0166 1.84901 21.3238C0.739253 18.631 0.448889 15.6679 1.01464 12.8092C1.58039 9.95053 2.97685 7.32468 5.02742 5.26369C7.07798 3.20271 9.69057 1.79916 12.5348 1.23054C15.379 0.661913 18.3271 0.953752 21.0063 2.06915C23.6855 3.18454 25.9755 5.0734 27.5866 7.49686C29.1977 9.92032 30.0576 12.7695 30.0576 15.6842C30.0576 19.5927 28.5129 23.341 25.7631 26.1047C23.0134 28.8684 19.284 30.4211 15.3953 30.4211Z" fill="#11192E"/>
<path d="M15.3958 30.421C23.4936 30.421 30.0581 23.823 30.0581 15.6841C30.0581 7.54517 23.4936 0.947266 15.3958 0.947266C7.29797 0.947266 0.733398 7.54517 0.733398 15.6841C0.733398 23.823 7.29797 30.421 15.3958 30.421Z" fill="#11192E"/>
<path d="M15.3955 29.1582C13.6219 29.1632 11.8652 28.812 10.2286 28.1251C8.5919 27.4382 7.10833 26.4295 5.86499 25.1582C4.60346 23.906 3.60201 22.4145 2.91881 20.7701C2.23561 19.1257 1.88428 17.3612 1.88521 15.5792C1.87065 13.7952 2.21578 12.0267 2.89977 10.3804C3.58377 8.73411 4.59245 7.24411 5.86499 6.00029C7.11081 4.73235 8.59485 3.72582 10.2309 3.03915C11.867 2.35248 13.6225 1.99936 15.3955 2.00029C17.1705 1.98566 18.9301 2.33254 20.5681 3.02001C22.2061 3.70748 23.6885 4.72129 24.9261 6.00029C26.1876 7.25244 27.1891 8.74402 27.8723 10.3884C28.5555 12.0328 28.9068 13.7972 28.9059 15.5792C28.9204 17.3633 28.5753 19.1318 27.8913 20.7781C27.2073 22.4244 26.1986 23.9144 24.9261 25.1582C23.6885 26.4372 22.2061 27.451 20.5681 28.1385C18.9301 28.8259 17.1705 29.1728 15.3955 29.1582Z" fill="white"/>
<path d="M15.3961 28.9476C13.6625 28.9566 11.9445 28.6166 10.3437 27.9477C8.74282 27.2788 7.29141 26.2945 6.07505 25.0528C4.83144 23.8365 3.84669 22.3789 3.18057 20.7685C2.51445 19.1581 2.18084 17.4284 2.2 15.6844C2.2083 12.1694 3.60126 8.80068 6.07422 6.31516C8.54718 3.82965 11.8989 2.4296 15.3961 2.42126C18.8934 2.4296 22.2451 3.82965 24.718 6.31516C27.191 8.80068 28.584 12.1694 28.5923 15.6844C28.6012 17.4269 28.263 19.1535 27.5974 20.7625C26.9319 22.3715 25.9526 23.8303 24.7172 25.0528C23.507 26.3028 22.0568 27.2925 20.4545 27.962C18.8522 28.6315 17.1313 28.9668 15.3961 28.9476Z" fill="white"/>
<path d="M15.3957 27.8949C12.9936 27.8939 10.6457 27.1772 8.64882 25.8354C6.6519 24.4936 5.09554 22.587 4.17645 20.3564C3.25735 18.1259 3.01677 15.6716 3.48512 13.3036C3.95346 10.9357 5.1097 8.76044 6.80771 7.05279C7.93504 5.91845 9.27377 5.01857 10.7474 4.4046C12.2209 3.79063 13.8005 3.47461 15.3957 3.47461C16.9909 3.47461 18.5704 3.79063 20.044 4.4046C21.5176 5.01857 22.8563 5.91845 23.9836 7.05279C25.6816 8.76044 26.8379 10.9357 27.3062 13.3036C27.7746 15.6716 27.534 18.1259 26.6149 20.3564C25.6958 22.587 24.1394 24.4936 22.1425 25.8354C20.1456 27.1772 17.7977 27.8939 15.3957 27.8949Z" fill="white"/>
<path d="M9.42608 20.526L11.3112 21.1575C11.462 21.2166 11.6261 21.2322 11.7853 21.2027C11.9444 21.1731 12.0921 21.0994 12.2118 20.99C12.3315 20.8806 12.4185 20.7398 12.4629 20.5835C12.5074 20.4271 12.5075 20.2613 12.4633 20.1049C11.9396 16.947 9.94973 15.0523 5.96995 14.3154C5.86521 14.3154 5.86521 14.3154 5.86521 14.2102C5.96848 13.3191 6.25372 12.459 6.70306 11.6838C6.70306 11.6559 6.7141 11.6292 6.73374 11.6094C6.75338 11.5897 6.78002 11.5786 6.8078 11.5786V10.7365C6.70306 10.7365 6.70306 10.8417 6.59833 10.947C6.04419 11.9663 5.6553 13.0678 5.44629 14.2102C5.44629 14.4207 5.55102 14.6312 5.76048 14.6312C9.63554 15.2628 11.6254 17.0523 12.0444 20.1049C12.0444 20.3154 12.0444 20.4207 11.9396 20.526C11.8982 20.5657 11.8486 20.5958 11.7943 20.614C11.74 20.6322 11.6823 20.6381 11.6254 20.6312C11.4778 20.647 11.3294 20.6097 11.2065 20.526L9.53081 19.6839H9.32135L9.42608 20.4207C9.32135 20.526 9.32135 20.526 9.42608 20.526Z" fill="white"/>
<path d="M24.1937 21.4733L23.3558 21.5785V21.6838C22.7648 22.218 22.0411 22.5817 21.2612 22.7364C21.1565 22.7364 21.1565 22.7364 21.1565 22.6312V22.5259C21.1491 22.4167 21.1026 22.3138 21.0256 22.2364C20.9486 22.159 20.8463 22.1122 20.7376 22.1048H10.9976C10.9407 22.098 10.883 22.1038 10.8287 22.122C10.7744 22.1402 10.7247 22.1703 10.6834 22.2101C10.3692 22.4206 9.95025 22.6312 9.63606 22.8417C9.59468 22.8815 9.54504 22.9116 9.49071 22.9298C9.43639 22.948 9.37872 22.9538 9.32186 22.9469H8.37928C8.27455 22.9469 8.16982 22.9469 8.16982 22.8417C7.75089 22.1048 7.33197 21.5785 6.80831 20.7364C6.70358 20.6312 6.70358 20.6312 6.80831 20.5259L6.17993 19.8943C6.12305 19.9511 6.08626 20.025 6.0752 20.1048C6.16241 20.3461 6.30609 20.5627 6.49412 20.7364C6.59885 20.8417 6.70358 21.0522 6.80831 21.1575L7.12251 21.5785C7.39042 21.9489 7.63526 22.3356 7.85563 22.7364L7.96036 22.9469C8.06509 23.0522 8.06509 23.1575 8.27455 23.1575H9.53133C9.58818 23.1644 9.64585 23.1585 9.70017 23.1403C9.7545 23.1221 9.80414 23.092 9.84552 23.0522L10.9976 22.4206C11.0519 22.3606 11.1266 22.323 11.207 22.3154H20.6328C20.8423 22.3154 20.8423 22.5259 20.8423 22.6312V22.9469C20.847 23.0012 20.8706 23.052 20.9089 23.0905C20.9472 23.129 20.9978 23.1527 21.0518 23.1575C22.2094 22.9512 23.2928 22.4431 24.1937 21.6838V21.4733Z" fill="white"/>
<path d="M20.7367 19.9995V20.4206C20.7367 20.5259 20.6319 20.7364 20.5272 20.7364H20.3177C20.2609 20.7433 20.2032 20.7374 20.1489 20.7192C20.0946 20.701 20.0449 20.6709 20.0035 20.6311C19.8988 20.5259 19.8988 20.2101 19.8988 20.1048L20.0035 19.8943C20.6257 17.7426 20.8737 15.4992 20.7367 13.2627C20.7268 14.1992 20.5494 15.1262 20.213 15.9995C20.0954 17.4224 19.85 18.8316 19.4799 20.2101C19.2704 20.8416 19.6894 21.1574 20.213 21.1574H20.7367C20.8454 21.15 20.9477 21.1033 21.0247 21.0259C21.1017 20.9485 21.1482 20.8456 21.1556 20.7364V20.5259L20.9461 19.8943C20.7367 19.789 20.7367 19.8943 20.7367 19.9995Z" fill="white"/>
<path d="M16.9664 16.3153C16.7184 16.3139 16.4727 16.362 16.2433 16.4567C16.014 16.5514 15.8056 16.6909 15.6303 16.8672C15.455 17.0434 15.3161 17.2528 15.2219 17.4833C15.1277 17.7138 15.0798 17.9608 15.0812 18.21C15.0703 18.4214 15.1017 18.6328 15.1737 18.8318C15.2457 19.0307 15.3567 19.213 15.5002 19.3679L16.338 18.7364C16.2218 18.5443 16.1502 18.3285 16.1285 18.1048C16.1285 17.7977 16.2499 17.5032 16.466 17.286C16.682 17.0689 16.975 16.9469 17.2806 16.9469C17.5861 16.9469 17.8792 17.0689 18.0952 17.286C18.3113 17.5032 18.4326 17.7977 18.4326 18.1048C18.4408 18.2695 18.4066 18.4336 18.3332 18.5811C18.2598 18.7287 18.1498 18.8547 18.0137 18.9469L18.4326 19.3679C18.6786 19.0297 18.8239 18.6281 18.8516 18.21C18.8529 17.9608 18.8051 17.7138 18.7109 17.4833C18.6166 17.2528 18.4778 17.0434 18.3025 16.8672C18.1272 16.6909 17.9188 16.5514 17.6895 16.4567C17.4601 16.362 17.2143 16.3139 16.9664 16.3153Z" fill="white"/>
<path d="M8.06461 9.57863C9.29098 10.2634 10.4185 11.1134 11.416 12.1049C11.3882 12.1049 11.3616 12.116 11.342 12.1358C11.3223 12.1555 11.3113 12.1823 11.3113 12.2102C11.6373 12.4809 11.9199 12.8004 12.1491 13.1576C12.5681 13.6839 12.7775 13.9997 12.987 14.2102C13.3012 14.2102 13.5106 14.2102 13.6154 14.1049C13.7201 13.9997 13.7201 13.9997 13.5106 13.7892C13.5106 13.6839 13.4059 13.6839 13.4059 13.5786C13.4059 13.4734 13.1964 13.2628 13.0917 13.1576C12.987 13.0523 12.8822 12.8418 12.7775 12.7365C12.6481 12.6166 12.5417 12.4739 12.4633 12.3155L12.1491 11.9997L11.8349 11.6839L11.5207 11.3681L11.2065 11.0523L10.8924 10.7365C10.7876 10.6313 10.6829 10.526 10.5782 10.526C10.4734 10.4207 10.3687 10.4207 10.264 10.3155C10.1592 10.2102 10.0545 10.2102 9.94977 10.1049C9.84504 9.99968 9.74031 9.99968 9.63558 9.89442C9.53085 9.78916 9.42612 9.78916 9.32138 9.68389C9.21665 9.57863 9.11192 9.57863 9.00719 9.47337C8.95283 9.41331 8.87815 9.37578 8.79773 9.3681C8.71833 9.35698 8.64476 9.32001 8.58827 9.26284C8.48353 9.15758 8.3788 9.15758 8.58827 8.94705C9.0937 8.42886 9.65584 7.9698 10.264 7.57863H10.3687L10.7876 6.94705C10.6829 6.94705 10.5782 6.94705 10.5782 7.05232C9.64567 7.63135 8.79942 8.34013 8.06461 9.15758C7.95988 9.26284 7.95988 9.26284 7.95988 9.3681C7.75042 9.26284 7.85515 9.3681 8.06461 9.57863Z" fill="white"/>
<path d="M12.4633 6.4207C13.7044 7.39672 14.7374 8.61389 15.5005 9.99965H15.2911C15.7696 10.8831 16.1894 11.7973 16.5478 12.7365V12.8418H16.9668C17.0715 12.8418 17.0715 12.8418 17.0715 12.7365V12.6312C16.5181 10.7011 15.5125 8.93241 14.139 7.47334L14.0343 7.36807L13.9296 7.26281L13.8248 7.15755L13.7201 7.05228L13.6154 6.94702C13.5876 6.94702 13.5609 6.93593 13.5413 6.91619C13.5217 6.89645 13.5106 6.86968 13.5106 6.84176L13.4059 6.73649L13.3012 6.63123L13.1964 6.52597C13.0917 6.4207 13.0917 6.31544 13.3012 6.31544C13.957 6.16695 14.6217 6.06146 15.2911 5.99965H15.71L16.4431 5.68386H15.6053C14.6114 5.66117 13.6206 5.80343 12.6728 6.10492C12.4633 6.10492 12.4633 6.21018 12.4633 6.31544C12.3586 6.21018 12.3586 6.31544 12.4633 6.4207Z" fill="white"/>
<path d="M23.2509 21.4736C22.6337 20.9792 21.9201 20.6206 21.1562 20.421C21.0515 20.421 21.0515 20.421 21.0515 20.5263V20.6315C21.0442 20.7408 20.9977 20.8436 20.9206 20.921C20.8436 20.9984 20.7413 21.0452 20.6326 21.0526H20.1089C19.9956 21.0473 19.8847 21.0174 19.7839 20.9649C19.6832 20.9125 19.5949 20.8387 19.5252 20.7486C19.4556 20.6586 19.4061 20.5545 19.3803 20.4434C19.3545 20.3323 19.353 20.2169 19.3758 20.1052C21.261 13.1578 19.1663 8.84205 16.1291 6.10521C15.8149 5.78942 15.6055 5.89468 15.1866 5.89468C14.5111 5.89661 13.8399 6.00313 13.1967 6.21047C12.9872 6.21047 12.9872 6.31573 13.0919 6.421C15.0386 8.07956 16.4587 10.2754 17.1764 12.7368C17.1764 12.842 17.1764 12.842 17.0717 12.842C16.801 12.8466 16.5336 12.7813 16.2952 12.6523C16.0569 12.5233 15.8554 12.3349 15.7102 12.1052C14.2313 10.2698 12.4187 8.73377 10.3689 7.57889C10.3503 7.55484 10.3265 7.53538 10.2993 7.52199C10.272 7.50861 10.2421 7.50165 10.2118 7.50165C10.1815 7.50165 10.1516 7.50861 10.1244 7.52199C10.0971 7.53538 10.0733 7.55484 10.0547 7.57889C9.40914 7.91538 8.83887 8.38107 8.37902 8.94731C8.35509 8.96601 8.33573 8.98995 8.32241 9.01732C8.30909 9.04468 8.30217 9.07474 8.30217 9.10521C8.30217 9.13567 8.30909 9.16573 8.32241 9.19309C8.33573 9.22046 8.35509 9.2444 8.37902 9.2631C10.4757 10.3948 12.2992 11.976 13.7203 13.8947C13.7599 13.9363 13.7898 13.9862 13.8079 14.0408C13.826 14.0954 13.8319 14.1533 13.825 14.2105C13.5246 14.3029 13.2066 14.3224 12.8971 14.2675C12.5876 14.2126 12.2955 14.0849 12.0446 13.8947C10.4095 12.9637 8.69146 12.1884 6.91279 11.5789C6.70332 11.4736 6.59859 11.5789 6.59859 11.6842C6.19505 12.4794 5.91262 13.331 5.76074 14.2105C5.76074 14.3157 5.76074 14.3157 5.86547 14.3157C9.84526 15.1578 11.8352 16.9473 12.3588 20.1052C12.403 20.2616 12.4029 20.4274 12.3585 20.5838C12.314 20.7401 12.2271 20.8809 12.1073 20.9903C11.9876 21.0997 11.8399 21.1734 11.6808 21.203C11.5217 21.2325 11.3575 21.2169 11.2068 21.1578L9.3216 20.5263H6.59859C6.49386 20.5263 6.38913 20.6315 6.49386 20.7368C7.01752 21.5789 7.43644 22.1052 7.85537 22.842C7.85537 22.9473 7.9601 22.9473 8.06483 22.9473H9.00741C9.06427 22.9542 9.12193 22.9483 9.17626 22.9301C9.23059 22.9119 9.28023 22.8818 9.3216 22.842C9.6358 22.6315 10.0547 22.421 10.3689 22.2105C10.4103 22.1707 10.4599 22.1406 10.5143 22.1224C10.5686 22.1042 10.6263 22.0983 10.6831 22.1052H20.4231C20.5318 22.1126 20.6341 22.1593 20.7112 22.2367C20.7882 22.3142 20.8347 22.417 20.842 22.5263V22.6315C20.842 22.7368 20.842 22.7368 20.9468 22.7368C21.7188 22.5596 22.4372 22.1986 23.0414 21.6842C23.3556 21.5789 23.3556 21.4736 23.2509 21.4736ZM16.967 20.2105C16.5941 20.2105 16.2297 20.0993 15.9196 19.8911C15.6096 19.683 15.368 19.387 15.2253 19.0408C15.0826 18.6946 15.0453 18.3136 15.118 17.9461C15.1908 17.5785 15.3703 17.2409 15.634 16.976C15.8976 16.711 16.2335 16.5305 16.5992 16.4574C16.9649 16.3843 17.3439 16.4218 17.6884 16.5652C18.0329 16.7086 18.3273 16.9515 18.5344 17.2631C18.7416 17.5747 18.8521 17.941 18.8521 18.3157C18.8364 18.8132 18.6328 19.286 18.2826 19.638C17.9324 19.99 17.462 20.1947 16.967 20.2105Z" fill="#11192E"/>
<path d="M23.2509 21.4736C22.6337 20.9792 21.9201 20.6206 21.1562 20.421C21.0515 20.421 21.0515 20.421 21.0515 20.5263V20.6315C21.0442 20.7408 20.9977 20.8436 20.9206 20.921C20.8436 20.9984 20.7413 21.0452 20.6326 21.0526H20.1089C19.9956 21.0473 19.8847 21.0174 19.7839 20.9649C19.6832 20.9125 19.5949 20.8387 19.5252 20.7486C19.4556 20.6586 19.4061 20.5545 19.3803 20.4434C19.3545 20.3323 19.353 20.2169 19.3758 20.1052C21.261 13.1578 19.1663 8.84205 16.1291 6.10521C15.8149 5.78942 15.6055 5.89468 15.1866 5.89468C14.5111 5.89661 13.8399 6.00313 13.1967 6.21047C12.9872 6.21047 12.9872 6.31573 13.0919 6.421C15.0386 8.07956 16.4587 10.2754 17.1764 12.7368C17.1764 12.842 17.1764 12.842 17.0717 12.842C16.801 12.8466 16.5336 12.7813 16.2952 12.6523C16.0569 12.5233 15.8554 12.3349 15.7102 12.1052C14.2313 10.2698 12.4187 8.73377 10.3689 7.57889C10.3503 7.55484 10.3265 7.53538 10.2993 7.52199C10.272 7.50861 10.2421 7.50165 10.2118 7.50165C10.1815 7.50165 10.1516 7.50861 10.1244 7.52199C10.0971 7.53538 10.0733 7.55484 10.0547 7.57889C9.40914 7.91538 8.83887 8.38107 8.37902 8.94731C8.35509 8.96601 8.33573 8.98995 8.32241 9.01732C8.30909 9.04468 8.30217 9.07474 8.30217 9.10521C8.30217 9.13567 8.30909 9.16573 8.32241 9.19309C8.33573 9.22046 8.35509 9.2444 8.37902 9.2631C10.4757 10.3948 12.2992 11.976 13.7203 13.8947C13.7599 13.9363 13.7898 13.9862 13.8079 14.0408C13.826 14.0954 13.8319 14.1533 13.825 14.2105C13.5246 14.3029 13.2066 14.3224 12.8971 14.2675C12.5876 14.2126 12.2955 14.0849 12.0446 13.8947C10.4095 12.9637 8.69146 12.1884 6.91279 11.5789C6.70332 11.4736 6.59859 11.5789 6.59859 11.6842C6.19505 12.4794 5.91262 13.331 5.76074 14.2105C5.76074 14.3157 5.76074 14.3157 5.86547 14.3157C9.84526 15.1578 11.8352 16.9473 12.3588 20.1052C12.403 20.2616 12.4029 20.4274 12.3585 20.5838C12.314 20.7401 12.2271 20.8809 12.1073 20.9903C11.9876 21.0997 11.8399 21.1734 11.6808 21.203C11.5217 21.2325 11.3575 21.2169 11.2068 21.1578L9.3216 20.5263H6.59859C6.49386 20.5263 6.38913 20.6315 6.49386 20.7368C7.01752 21.5789 7.43644 22.1052 7.85537 22.842C7.85537 22.9473 7.9601 22.9473 8.06483 22.9473H9.00741C9.06427 22.9542 9.12193 22.9483 9.17626 22.9301C9.23059 22.9119 9.28023 22.8818 9.3216 22.842C9.6358 22.6315 10.0547 22.421 10.3689 22.2105C10.4103 22.1707 10.4599 22.1406 10.5143 22.1224C10.5686 22.1042 10.6263 22.0983 10.6831 22.1052H20.4231C20.5318 22.1126 20.6341 22.1593 20.7112 22.2367C20.7882 22.3142 20.8347 22.417 20.842 22.5263V22.6315C20.842 22.7368 20.842 22.7368 20.9468 22.7368C21.7188 22.5596 22.4372 22.1986 23.0414 21.6842C23.3556 21.5789 23.3556 21.4736 23.2509 21.4736ZM16.967 20.2105C16.5941 20.2105 16.2297 20.0993 15.9196 19.8911C15.6096 19.683 15.368 19.387 15.2253 19.0408C15.0826 18.6946 15.0453 18.3136 15.118 17.9461C15.1908 17.5785 15.3703 17.2409 15.634 16.976C15.8976 16.711 16.2335 16.5305 16.5992 16.4574C16.9649 16.3843 17.3439 16.4218 17.6884 16.5652C18.0329 16.7086 18.3273 16.9515 18.5344 17.2631C18.7416 17.5747 18.8521 17.941 18.8521 18.3157C18.8364 18.8132 18.6328 19.286 18.2826 19.638C17.9324 19.99 17.462 20.1947 16.967 20.2105Z" fill="#11192E"/>
<path d="M23.2509 21.4736C22.6337 20.9792 21.9201 20.6206 21.1562 20.421C21.0515 20.421 21.0515 20.421 21.0515 20.5263V20.6315C21.0442 20.7408 20.9977 20.8436 20.9206 20.921C20.8436 20.9984 20.7413 21.0452 20.6326 21.0526H20.1089C19.9956 21.0473 19.8847 21.0174 19.7839 20.9649C19.6832 20.9125 19.5949 20.8387 19.5252 20.7486C19.4556 20.6586 19.4061 20.5545 19.3803 20.4434C19.3545 20.3323 19.353 20.2169 19.3758 20.1052C21.261 13.1578 19.1663 8.84205 16.1291 6.10521C15.8149 5.78942 15.6055 5.89468 15.1866 5.89468C14.5111 5.89661 13.8399 6.00313 13.1967 6.21047C12.9872 6.21047 12.9872 6.31573 13.0919 6.421C15.0386 8.07956 16.4587 10.2754 17.1764 12.7368C17.1764 12.842 17.1764 12.842 17.0717 12.842C16.801 12.8466 16.5336 12.7813 16.2952 12.6523C16.0569 12.5233 15.8554 12.3349 15.7102 12.1052C14.2313 10.2698 12.4187 8.73377 10.3689 7.57889C10.3503 7.55484 10.3265 7.53538 10.2993 7.52199C10.272 7.50861 10.2421 7.50165 10.2118 7.50165C10.1815 7.50165 10.1516 7.50861 10.1244 7.52199C10.0971 7.53538 10.0733 7.55484 10.0547 7.57889C9.40914 7.91538 8.83887 8.38107 8.37902 8.94731C8.35509 8.96601 8.33573 8.98995 8.32241 9.01732C8.30909 9.04468 8.30217 9.07474 8.30217 9.10521C8.30217 9.13567 8.30909 9.16573 8.32241 9.19309C8.33573 9.22046 8.35509 9.2444 8.37902 9.2631C10.4757 10.3948 12.2992 11.976 13.7203 13.8947C13.7599 13.9363 13.7898 13.9862 13.8079 14.0408C13.826 14.0954 13.8319 14.1533 13.825 14.2105C13.5246 14.3029 13.2066 14.3224 12.8971 14.2675C12.5876 14.2126 12.2955 14.0849 12.0446 13.8947C10.4095 12.9637 8.69146 12.1884 6.91279 11.5789C6.70332 11.4736 6.59859 11.5789 6.59859 11.6842C6.19505 12.4794 5.91262 13.331 5.76074 14.2105C5.76074 14.3157 5.76074 14.3157 5.86547 14.3157C9.84526 15.1578 11.8352 16.9473 12.3588 20.1052C12.403 20.2616 12.4029 20.4274 12.3585 20.5838C12.314 20.7401 12.2271 20.8809 12.1073 20.9903C11.9876 21.0997 11.8399 21.1734 11.6808 21.203C11.5217 21.2325 11.3575 21.2169 11.2068 21.1578L9.3216 20.5263H6.59859C6.49386 20.5263 6.38913 20.6315 6.49386 20.7368C7.01752 21.5789 7.43644 22.1052 7.85537 22.842C7.85537 22.9473 7.9601 22.9473 8.06483 22.9473H9.00741C9.06427 22.9542 9.12193 22.9483 9.17626 22.9301C9.23059 22.9119 9.28023 22.8818 9.3216 22.842C9.6358 22.6315 10.0547 22.421 10.3689 22.2105C10.4103 22.1707 10.4599 22.1406 10.5143 22.1224C10.5686 22.1042 10.6263 22.0983 10.6831 22.1052H20.4231C20.5318 22.1126 20.6341 22.1593 20.7112 22.2367C20.7882 22.3142 20.8347 22.417 20.842 22.5263V22.6315C20.842 22.7368 20.842 22.7368 20.9468 22.7368C21.7188 22.5596 22.4372 22.1986 23.0414 21.6842C23.3556 21.5789 23.3556 21.4736 23.2509 21.4736ZM16.967 20.2105C16.5941 20.2105 16.2297 20.0993 15.9196 19.8911C15.6096 19.683 15.368 19.387 15.2253 19.0408C15.0826 18.6946 15.0453 18.3136 15.118 17.9461C15.1908 17.5785 15.3703 17.2409 15.634 16.976C15.8976 16.711 16.2335 16.5305 16.5992 16.4574C16.9649 16.3843 17.3439 16.4218 17.6884 16.5652C18.0329 16.7086 18.3273 16.9515 18.5344 17.2631C18.7416 17.5747 18.8521 17.941 18.8521 18.3157C18.8364 18.8132 18.6328 19.286 18.2826 19.638C17.9324 19.99 17.462 20.1947 16.967 20.2105Z" fill="#11192E"/>
<path d="M24.1927 21.1582C23.2995 20.3062 22.1649 19.7545 20.946 19.5792C20.8373 19.5866 20.735 19.6333 20.658 19.7107C20.5809 19.7882 20.5344 19.891 20.5271 20.0003V20.4213C20.5271 20.5266 20.5271 20.5266 20.4224 20.5266H20.2129C20.1082 20.5266 20.1082 20.5266 20.0034 20.4213V20.1055L20.1082 19.895C21.3649 15.6845 21.7839 9.89499 16.8615 5.68447C16.652 5.47394 16.4426 5.47394 16.2331 5.36868H15.5C14.5061 5.34598 13.5153 5.48824 12.5675 5.78973C12.358 5.89499 12.2533 6.00026 12.2533 6.10552C12.2425 6.18869 12.2567 6.2732 12.294 6.34822C12.3314 6.42323 12.3901 6.48534 12.4628 6.52657C13.5545 7.4741 14.5066 8.57281 15.2905 9.78973C14.8716 9.78973 14.6621 9.5792 14.3479 9.26342C13.2586 8.33795 12.1035 7.4936 10.8918 6.7371C10.7871 6.7371 10.6823 6.63184 10.5776 6.63184C10.5208 6.62496 10.4631 6.63083 10.4088 6.64903C10.3544 6.66723 10.3048 6.69731 10.2634 6.7371C9.27607 7.3248 8.39152 8.07159 7.64515 8.94763C7.60556 8.98921 7.57563 9.0391 7.55752 9.09371C7.53941 9.14831 7.53357 9.20627 7.54041 9.26342C7.54041 9.47394 7.74988 9.5792 8.06407 9.68447C9.21292 10.3574 10.2995 11.1324 11.3107 12.0003H11.1013C10.7687 11.962 10.4476 11.8544 10.1587 11.6845C9.13384 11.2091 8.08511 10.7874 7.01676 10.4213H6.8073C6.4931 10.4213 6.38837 10.6318 6.38837 10.7371C5.85036 11.7635 5.46236 12.8626 5.23633 14.0003C5.23633 14.316 5.34106 14.6318 5.65525 14.6318C9.42558 15.2634 11.4155 16.9476 11.8344 20.0003C11.8344 20.1055 11.8344 20.316 11.7297 20.316C11.6753 20.3761 11.6006 20.4136 11.5202 20.4213C11.4633 20.4282 11.4057 20.4223 11.3513 20.4041C11.297 20.3859 11.2474 20.3558 11.206 20.316L9.53031 19.4739C9.45091 19.4628 9.37734 19.4258 9.32084 19.3687H6.38837C5.96945 19.3687 5.86472 19.5792 5.86472 19.895C5.86472 20.2108 6.07418 20.316 6.28364 20.6318C6.38837 20.7371 6.4931 20.9476 6.59783 21.0529L6.91203 21.4739C7.17994 21.8443 7.42478 22.231 7.64515 22.6318L7.74988 22.8424C7.85461 23.0529 7.95934 23.0529 8.1688 23.0529H9.42558C9.48243 23.0598 9.5401 23.0539 9.59442 23.0357C9.64875 23.0175 9.69839 22.9874 9.73977 22.9476L10.8918 22.316H20.5271C20.5408 22.316 20.5545 22.3188 20.5672 22.3241C20.5799 22.3294 20.5914 22.3371 20.6011 22.3469C20.6109 22.3567 20.6186 22.3683 20.6238 22.381C20.6291 22.3938 20.6318 22.4075 20.6318 22.4213V22.7371C20.6318 22.9476 20.7365 23.1582 20.946 23.1582H21.0507C22.2697 22.9829 23.4042 22.4311 24.2974 21.5792C24.337 21.5376 24.3669 21.4877 24.385 21.4331C24.4031 21.3785 24.409 21.3206 24.4021 21.2634C24.4021 21.3687 24.2974 21.2634 24.1927 21.1582ZM24.0879 21.6845C23.2404 22.5243 22.1308 23.0448 20.946 23.1582C20.8413 23.1582 20.8413 23.0529 20.8413 22.9476V22.6318C20.8463 22.5891 20.8417 22.5459 20.8277 22.5052C20.8137 22.4646 20.7907 22.4277 20.7604 22.3973C20.7302 22.3669 20.6935 22.3438 20.653 22.3297C20.6126 22.3156 20.5696 22.311 20.5271 22.316H10.9965C10.9397 22.3092 10.882 22.315 10.8277 22.3332C10.7734 22.3514 10.7237 22.3815 10.6824 22.4213C10.2634 22.6318 9.94923 22.8424 9.53031 23.0529C9.45091 23.064 9.37734 23.101 9.32084 23.1582H8.06407C7.95934 23.1582 7.85461 23.1582 7.85461 23.0529L7.74988 22.8424C7.22622 22.0003 7.22622 21.895 6.70256 21.1582C6.38837 20.6318 5.96945 20.316 5.96945 20.1055C5.96439 20.0628 5.96904 20.0195 5.98305 19.9789C5.99705 19.9383 6.02004 19.9014 6.05029 19.871C6.08054 19.8406 6.11725 19.8175 6.15767 19.8034C6.19809 19.7893 6.24116 19.7847 6.28364 19.7897H9.42558C9.42558 19.7897 10.5776 20.316 11.1013 20.6318C11.6249 20.9476 12.1486 20.6318 12.0439 20.1055C11.5202 16.5266 9.00665 15.1582 5.65525 14.5266C5.44579 14.5266 5.44579 14.316 5.44579 14.1055C5.6354 12.9725 5.98821 11.8732 6.4931 10.8424C6.54295 10.7782 6.60642 10.7259 6.6789 10.6895C6.75137 10.6531 6.83101 10.6334 6.91203 10.6318C7.98702 10.9797 9.03683 11.4017 10.054 11.895C10.8918 12.316 11.206 12.2108 11.5202 12.0003V11.7897C10.4318 10.863 9.27662 10.0186 8.06407 9.26342C7.74988 9.15815 7.64515 9.05289 7.85461 8.84236C8.58942 8.02492 9.43567 7.31613 10.3682 6.7371C10.4258 6.68531 10.5003 6.65668 10.5776 6.65668C10.6549 6.65668 10.7295 6.68531 10.7871 6.7371C11.9987 7.4936 13.1538 8.33795 14.2432 9.26342C14.585 9.58589 15.0315 9.77288 15.5 9.78973C15.6047 9.78973 15.7094 9.78973 15.7094 9.68447C14.8912 8.33795 13.8661 7.13003 12.6722 6.10552C12.5675 6.00026 12.5675 6.00026 12.5675 5.89499C12.5675 5.78973 12.6722 5.78973 12.777 5.78973C13.7248 5.48824 14.7156 5.34598 15.7094 5.36868H16.3378C16.5473 5.36868 16.652 5.47394 16.8615 5.5792C21.9933 9.89499 21.0507 16.1055 20.0034 19.5792C20.0034 19.6845 20.0034 19.6845 19.8987 19.7897C19.8822 20.0057 19.9181 20.2224 20.0034 20.4213C20.1082 20.5266 20.2129 20.6318 20.3176 20.6318H20.5271C20.6088 20.6268 20.6859 20.592 20.7437 20.5338C20.8016 20.4756 20.8363 20.3982 20.8413 20.316V19.895C20.846 19.8408 20.8696 19.7899 20.9079 19.7514C20.9462 19.7129 20.9968 19.6892 21.0507 19.6845C22.1768 19.8914 23.2263 20.4006 24.0879 21.1582C24.1448 21.2149 24.1816 21.2889 24.1927 21.3687C24.1927 21.5792 24.0879 21.5792 24.0879 21.6845Z" fill="white"/>
<path d="M17.2805 16.8423C17.0112 16.8423 16.7479 16.9226 16.524 17.0729C16.3001 17.2233 16.1256 17.437 16.0226 17.6871C15.9195 17.9371 15.8926 18.2123 15.9451 18.4777C15.9976 18.7432 16.1273 18.987 16.3177 19.1784C16.5081 19.3697 16.7507 19.5001 17.0148 19.5529C17.2789 19.6057 17.5527 19.5786 17.8015 19.475C18.0503 19.3714 18.2629 19.196 18.4125 18.971C18.5621 18.746 18.642 18.4814 18.642 18.2107C18.6175 17.8559 18.4662 17.5219 18.216 17.2704C17.9658 17.0189 17.6335 16.8669 17.2805 16.8423ZM17.2805 19.2634C17.0526 19.2634 16.8299 19.1955 16.6404 19.0682C16.451 18.941 16.3033 18.7602 16.2161 18.5486C16.1289 18.337 16.1061 18.1042 16.1505 17.8796C16.195 17.655 16.3047 17.4487 16.4658 17.2867C16.627 17.1248 16.8322 17.0145 17.0557 16.9698C17.2792 16.9251 17.5108 16.9481 17.7213 17.0357C17.9318 17.1234 18.1118 17.2718 18.2383 17.4622C18.3649 17.6526 18.4325 17.8765 18.4325 18.1055C18.449 18.2616 18.4305 18.4194 18.3785 18.5675C18.3264 18.7155 18.2421 18.8499 18.1316 18.9609C18.0211 19.072 17.8874 19.1567 17.7401 19.2091C17.5928 19.2614 17.4358 19.2799 17.2805 19.2634Z" fill="white"/>
<path d="M17.28 19.2635C17.0521 19.2635 16.8294 19.1955 16.6399 19.0683C16.4505 18.9411 16.3028 18.7602 16.2156 18.5487C16.1284 18.3371 16.1056 18.1043 16.1501 17.8797C16.1945 17.6551 16.3042 17.4487 16.4654 17.2868C16.6265 17.1249 16.8317 17.0146 17.0552 16.9699C17.2787 16.9252 17.5103 16.9482 17.7208 17.0358C17.9314 17.1234 18.1113 17.2719 18.2379 17.4623C18.3645 17.6527 18.432 17.8765 18.432 18.1056C18.4485 18.2617 18.4301 18.4195 18.378 18.5676C18.3259 18.7156 18.2416 18.85 18.1311 18.961C18.0207 19.072 17.8869 19.1568 17.7396 19.2091C17.5924 19.2615 17.4353 19.28 17.28 19.2635Z" fill="white"/>
<path d="M40.426 23.1578C42.6254 23.2631 46.1862 23.3683 48.2808 23.3683C57.2877 23.3683 58.335 23.3683 58.335 18.421C58.335 14.5262 57.183 14.2104 52.4701 14.1052L46.9193 13.9999C44.4058 13.8947 44.3011 13.6841 44.3011 12.5262C44.3011 11.3683 44.6152 11.3683 50.6897 11.3683C51.8417 11.3683 55.5073 11.4736 57.4972 11.4736C57.5397 11.4787 57.5827 11.474 57.6232 11.4599C57.6636 11.4459 57.7003 11.4227 57.7305 11.3923C57.7608 11.3619 57.7838 11.325 57.7978 11.2844C57.8118 11.2438 57.8164 11.2005 57.8114 11.1578V8.63149C57.8164 8.5888 57.8118 8.54551 57.7978 8.50489C57.7838 8.46426 57.7608 8.42736 57.7305 8.39696C57.7003 8.36656 57.6636 8.34345 57.6232 8.32937C57.5827 8.3153 57.5397 8.31063 57.4972 8.3157C55.612 8.21044 52.4701 8.10518 50.166 8.10518C41.3686 8.10518 39.9023 8.3157 39.9023 12.842C39.9023 16.7368 40.7402 17.2631 46.3957 17.4736L51.4228 17.6841C53.8316 17.7894 53.8316 18.1052 53.8316 18.9473C53.8316 20.2104 53.7269 20.2104 48.0714 20.2104C45.4531 20.2104 42.7301 20.1052 40.3213 19.9999C40.2788 19.9948 40.2357 19.9995 40.1953 20.0136C40.1549 20.0277 40.1182 20.0508 40.0879 20.0812C40.0577 20.1116 40.0347 20.1485 40.0207 20.1891C40.0067 20.2297 40.002 20.273 40.0071 20.3157V22.9473C40.2165 23.0525 40.3213 23.1578 40.426 23.1578ZM135.627 17.6841H129.029L132.066 11.6841H132.589L135.627 17.6841ZM116.356 15.5789V15.7894C116.356 19.5789 116.042 19.7894 111.12 19.7894H107.035V11.6841H111.12C116.042 11.6841 116.356 11.7894 116.356 15.5789ZM94.9909 15.5789V15.7894C94.9909 19.9999 94.7815 19.9999 89.9639 19.9999C85.1462 19.9999 84.9368 19.8947 84.9368 15.7894V15.5789C84.9368 11.3683 85.1462 11.3683 89.9639 11.3683C94.7815 11.3683 94.9909 11.3683 94.9909 15.5789ZM142.958 22.842L135.836 8.52623C135.731 8.3157 135.627 8.3157 135.522 8.3157H129.238C129.029 8.3157 128.924 8.42097 128.924 8.52623L121.802 22.842C121.697 23.0525 121.802 23.2631 122.012 23.2631H126.096C126.306 23.2631 126.41 23.1578 126.41 23.0525L127.458 20.9473H137.198L138.245 23.0525C138.35 23.2631 138.454 23.2631 138.559 23.2631H142.644C142.958 23.1578 143.063 23.0525 142.958 22.842ZM111.12 8.21044H102.846C102.803 8.20536 102.76 8.21004 102.72 8.22411C102.679 8.23819 102.643 8.26129 102.612 8.2917C102.582 8.3221 102.559 8.359 102.545 8.39962C102.531 8.44025 102.527 8.48354 102.532 8.52623V22.842C102.527 22.8847 102.531 22.928 102.545 22.9686C102.559 23.0093 102.582 23.0462 102.612 23.0766C102.643 23.107 102.679 23.1301 102.72 23.1441C102.76 23.1582 102.803 23.1629 102.846 23.1578H111.12C119.917 23.1578 121.069 22.7368 121.069 15.7894V15.6841C121.069 8.63149 119.917 8.21044 111.12 8.21044ZM79.1765 22.842L71.0075 14.7368L78.7576 8.63149C78.9671 8.42097 78.8623 8.21044 78.6529 8.21044H73.6258C73.4792 8.20606 73.3342 8.24249 73.2069 8.3157L65.352 14.6315V8.52623C65.3571 8.48354 65.3524 8.44025 65.3384 8.39962C65.3244 8.359 65.3014 8.3221 65.2712 8.2917C65.2409 8.26129 65.2042 8.23819 65.1638 8.22411C65.1234 8.21004 65.0803 8.20536 65.0378 8.21044H61.1628C61.1203 8.20536 61.0772 8.21004 61.0368 8.22411C60.9964 8.23819 60.9597 8.26129 60.9294 8.2917C60.8992 8.3221 60.8762 8.359 60.8622 8.39962C60.8482 8.44025 60.8435 8.48354 60.8486 8.52623V22.842C60.8435 22.8847 60.8482 22.928 60.8622 22.9686C60.8762 23.0093 60.8992 23.0462 60.9294 23.0766C60.9597 23.107 60.9964 23.1301 61.0368 23.1441C61.0772 23.1582 61.1203 23.1629 61.1628 23.1578H65.0378C65.0803 23.1629 65.1234 23.1582 65.1638 23.1441C65.2042 23.1301 65.2409 23.107 65.2712 23.0766C65.3014 23.0462 65.3244 23.0093 65.3384 22.9686C65.3524 22.928 65.3571 22.8847 65.352 22.842V19.2631L67.6561 17.3683L73.3116 22.9473C73.3614 23.0115 73.4249 23.0637 73.4974 23.1001C73.5699 23.1365 73.6495 23.1563 73.7305 23.1578H79.1765C79.386 23.1578 79.386 22.9473 79.1765 22.842ZM80.1191 15.5789V15.7894C80.1191 23.0525 81.2712 23.4736 89.9639 23.4736C98.6565 23.4736 99.8086 23.0525 99.8086 15.7894V15.5789C99.8086 8.31571 98.6565 7.89465 89.9639 7.89465C81.2712 7.89465 80.1191 8.42097 80.1191 15.5789ZM45.3484 4.73676L47.2335 6.84202C47.2834 6.90622 47.3468 6.95844 47.4193 6.99486C47.4918 7.03128 47.5714 7.05099 47.6525 7.05255H51.6322C51.8417 7.05255 51.9464 7.05255 52.0512 6.84202L53.9363 4.73676C54.1458 4.52623 54.0411 4.3157 53.7269 4.3157H51.1086C51.0276 4.31726 50.9479 4.33697 50.8755 4.37339C50.803 4.40981 50.7395 4.46203 50.6897 4.52623L49.8518 5.68413H49.3282L48.4903 4.52623C48.4405 4.46203 48.377 4.40981 48.3045 4.37339C48.232 4.33697 48.1524 4.31726 48.0714 4.3157H45.4531C45.2436 4.42097 45.1389 4.63149 45.3484 4.73676Z" fill="#11192E"/>
</svg>
