<svg width="57" height="46" viewBox="0 0 57 46" fill="none" xmlns="http://www.w3.org/2000/svg">
<path d="M19.1667 0.0014044C18.8278 0.00143819 18.5028 0.13606 18.2632 0.375675C18.0236 0.615291 17.8889 0.940276 17.8889 1.27914V17.8897H10.2222C10.1823 17.8879 10.1424 17.8879 10.1024 17.8897C9.78474 17.9197 9.48973 18.0674 9.27544 18.3039C9.06115 18.5403 8.94308 18.8484 8.94446 19.1675V35.7781H1.27779C1.23788 35.7762 1.19791 35.7762 1.158 35.7781C0.840296 35.808 0.545293 35.9558 0.331003 36.1922C0.116712 36.4287 -0.00135801 36.7367 1.17864e-05 37.0558V44.7222C3.52847e-05 45.0611 0.134664 45.3861 0.374288 45.6257C0.613912 45.8654 0.938905 46 1.27779 46H54.9445C55.2833 46 55.6083 45.8654 55.848 45.6257C56.0876 45.3861 56.2222 45.0611 56.2222 44.7222V37.0558C56.2222 36.7169 56.0876 36.392 55.8479 36.1524C55.6083 35.9128 55.2833 35.7781 54.9445 35.7781H47.2778V19.1675C47.2792 18.8484 47.1611 18.5403 46.9468 18.3039C46.7325 18.0674 46.4375 17.9197 46.1198 17.8897C46.0799 17.8879 46.0399 17.8879 46 17.8897H38.3333V1.27914C38.3347 0.960042 38.2167 0.65198 38.0024 0.415528C37.7881 0.179076 37.4931 0.0313463 37.1754 0.0014044C37.1355 -0.000468133 37.0955 -0.000468133 37.0556 0.0014044H19.1667ZM20.4445 2.55688H35.7778V17.8897H28.1111H20.4445V2.55688ZM11.5 20.4452H26.8333V35.7781H11.5V20.4452ZM29.3889 20.4452H37.0556H44.7222V35.7781H29.3889V20.4452ZM2.55557 38.3336H10.1224H15.9722V43.4445H2.55557V38.3336ZM18.5278 38.3336H37.6945V43.4445H18.5278V38.3336ZM40.25 38.3336H46.0998H53.6667V43.4445H40.25V38.3336Z" fill="#11192E"/>
</svg>
