<svg width="236" height="39" viewBox="0 0 236 39" fill="none" xmlns="http://www.w3.org/2000/svg">
<g clip-path="url(#clip0_77_179)">
<path d="M1.81801 36.5524V2.44762C1.81801 2.12381 2.0926 1.8381 2.43348 1.8381H42.6095C42.9409 1.8381 43.2155 2.12381 43.2155 2.44762V36.5524C43.2155 36.8952 42.9409 37.1714 42.6095 37.1714H2.43348C2.0926 37.1714 1.81801 36.8952 1.81801 36.5524ZM2.43348 0C1.08891 0 0 1.10476 0 2.44762V36.5524C0 37.9048 1.08891 39 2.43348 39H42.6095C43.9446 39 45.0335 37.9048 45.0335 36.5524V2.44762C45.0335 1.10476 43.9541 0 42.6095 0H2.43348Z" fill="white"/>
<path d="M36.7109 23.3621L25.3768 23.324C24.6098 23.324 23.9848 22.705 23.9848 21.9336C23.9848 21.6288 24.089 21.3526 24.25 21.1241L30.0354 15.2669C30.2911 14.9526 30.5941 14.8479 31.0296 14.8479C31.38 14.8479 31.683 14.9717 31.9197 15.1717L37.8471 21.1717C37.9986 21.4002 38.0839 21.6669 38.0839 21.9526C38.0933 22.7336 37.4779 23.3621 36.7109 23.3621ZM19.7144 23.324L8.37082 23.3526C7.61332 23.3526 6.99785 22.7241 6.99785 21.9526C6.99785 21.6669 7.08307 21.4002 7.2251 21.1717L13.162 15.1717C13.4177 14.9621 13.7396 14.8479 14.0616 14.8479C14.4971 14.8479 14.8001 14.9526 15.0558 15.2669L20.8412 21.1241C20.9927 21.3526 21.0969 21.6288 21.0969 21.9336C21.0969 22.705 20.4814 23.324 19.7144 23.324ZM39.4379 5.25738L31.986 12.7621V12.7812C31.7492 13.0574 31.361 13.2098 31.0107 13.2098C30.6603 13.2098 30.3479 13.0383 30.0827 12.7336L22.5172 5.1431L14.98 12.7431C14.7149 13.0479 14.3835 13.2098 14.0332 13.2098C13.6828 13.2098 13.3041 13.0383 13.0579 12.7621L5.61541 5.25738L5.55859 5.20976V34.0002H39.4947V5.20976L39.4379 5.25738Z" fill="white"/>
<path d="M68.4971 33.9619V11.2952H57.0967V5.20949H87.6335V11.2952H76.877V33.9524H68.4971V33.9619ZM91.5062 33.9619V5.20949H119.032V11.5238H98.8161V16.9619H118.606V22.619H98.8161V28.2857H119.032V33.9428H91.5062V33.9619ZM160.524 33.9619V5.20949H188.05V11.5238H167.834V16.9619H187.624V22.619H167.834V28.2857H188.05V33.9428H160.524V33.9619ZM226.702 34.0095L213.369 18.8476L225.357 5.20949H215.358L208.351 13.1333L201.373 5.20949H191.374L203.314 18.8476L189.982 33.9619H200.094L208.342 24.5809L216.589 34.0095H226.702ZM124.401 5.20949V33.9619H131.919V23.0666H139.343L147.628 33.9524H156.651C156.651 33.9524 148.376 22.9524 148.48 23.0666C157.721 23.2762 161.187 5.19997 145.469 5.19997L124.401 5.20949ZM131.976 11.0762H145.308C149.664 11.0762 149.777 16.9619 145.469 16.9619H131.919L131.976 11.0762ZM231.606 33.5333C229.599 33.5333 227.989 31.8762 227.989 29.819C227.989 27.7619 229.599 26.1047 231.606 26.1047C233.604 26.1047 235.223 27.7619 235.223 29.819C235.223 31.8666 233.604 33.5333 231.606 33.5333ZM227.194 29.819C227.194 32.2666 229.163 34.2381 231.606 34.2381C234.04 34.2381 236.009 32.2571 236.009 29.819C236.009 27.3714 234.04 25.3809 231.606 25.3809C229.163 25.3809 227.194 27.3714 227.194 29.819ZM230.622 29.5428V27.9714H231.692C232.241 27.9714 232.809 28.0476 232.809 28.7333C232.809 29.5047 232.174 29.5333 231.464 29.5333L230.622 29.5428ZM229.845 32.4381H230.622V30.2666H231.474L232.894 32.4381H233.671L232.203 30.2C232.979 30.1238 233.585 29.6857 233.585 28.7619C233.585 27.7428 232.97 27.2476 231.824 27.2476H229.836L229.845 32.4381Z" fill="white"/>
</g>
<defs>
<clipPath id="clip0_77_179">
<rect width="236" height="39" fill="white"/>
</clipPath>
</defs>
</svg>
