<svg width="42" height="44" viewBox="0 0 42 44" fill="none" xmlns="http://www.w3.org/2000/svg">
<path d="M35.0469 0.15625H6.95312C5.27123 0.158109 3.65875 0.827063 2.46947 2.01634C1.28019 3.20563 0.611234 4.8181 0.609375 6.5V40.9375C0.610155 41.6583 0.896844 42.3494 1.40654 42.8591C1.91624 43.3688 2.60731 43.6555 3.32812 43.6562H8.76562C9.48644 43.6555 10.1775 43.3688 10.6872 42.8591C11.1969 42.3494 11.4836 41.6583 11.4844 40.9375V36.4062H30.5156V40.9375C30.5164 41.6583 30.8031 42.3494 31.3128 42.8591C31.8225 43.3688 32.5136 43.6555 33.2344 43.6562H38.6719C39.3927 43.6555 40.0838 43.3688 40.5935 42.8591C41.1032 42.3494 41.3898 41.6583 41.3906 40.9375V6.5C41.3888 4.8181 40.7198 3.20563 39.5305 2.01634C38.3413 0.827063 36.7288 0.158109 35.0469 0.15625ZM2.42188 34.5938V20.0938H39.5781V34.5938H2.42188ZM2.42188 9.21875H39.5781V18.2812H2.42188V9.21875ZM6.95312 1.96875H35.0469C36.2482 1.97007 37.4 2.44789 38.2495 3.29738C39.099 4.14687 39.5768 5.29864 39.5781 6.5V7.40625H2.42188V6.5C2.42319 5.29864 2.90102 4.14687 3.7505 3.29738C4.59999 2.44789 5.75177 1.97007 6.95312 1.96875ZM9.67188 40.9375C9.67163 41.1778 9.57608 41.4081 9.40617 41.578C9.23627 41.748 9.0059 41.8435 8.76562 41.8438H3.32812C3.08785 41.8435 2.85748 41.748 2.68757 41.578C2.51767 41.4081 2.42211 41.1778 2.42188 40.9375V36.4062H9.67188V40.9375ZM38.6719 41.8438H33.2344C32.9941 41.8435 32.7637 41.748 32.5938 41.578C32.4239 41.4081 32.3284 41.1778 32.3281 40.9375V36.4062H39.5781V40.9375C39.5779 41.1778 39.4823 41.4081 39.3124 41.578C39.1425 41.748 38.9122 41.8435 38.6719 41.8438ZM12.8438 27.3438C12.8438 27.7022 12.7374 28.0527 12.5383 28.3507C12.3391 28.6488 12.0561 28.8811 11.7249 29.0183C11.3937 29.1555 11.0292 29.1914 10.6776 29.1214C10.3261 29.0515 10.0031 28.8789 9.74962 28.6254C9.49614 28.3719 9.32351 28.0489 9.25358 27.6974C9.18364 27.3458 9.21953 26.9813 9.35672 26.6501C9.4939 26.3189 9.72621 26.0359 10.0243 25.8367C10.3223 25.6376 10.6728 25.5312 11.0312 25.5312C11.5118 25.5318 11.9724 25.723 12.3122 26.0628C12.652 26.4026 12.8432 26.8632 12.8438 27.3438ZM32.7812 27.3438C32.7812 27.7022 32.6749 28.0527 32.4758 28.3507C32.2766 28.6488 31.9936 28.8811 31.6624 29.0183C31.3312 29.1555 30.9667 29.1914 30.6151 29.1214C30.2636 29.0515 29.9406 28.8789 29.6871 28.6254C29.4336 28.3719 29.261 28.0489 29.1911 27.6974C29.1211 27.3458 29.157 26.9813 29.2942 26.6501C29.4314 26.3189 29.6637 26.0359 29.9618 25.8367C30.2598 25.6376 30.6103 25.5312 30.9688 25.5312C31.4493 25.5318 31.9099 25.723 32.2497 26.0628C32.5895 26.4026 32.7807 26.8632 32.7812 27.3438Z" fill="#11192E"/>
</svg>
