<svg width="60" height="48" viewBox="0 0 60 48" fill="none" xmlns="http://www.w3.org/2000/svg">
<path d="M59 33V20C59 19.7348 58.8946 19.4804 58.7071 19.2929C58.5196 19.1054 58.2652 19 58 19H26C25.7348 19 25.4804 19.1054 25.2929 19.2929C25.1054 19.4804 25 19.7348 25 20V33H24V15C24 14.7348 23.8946 14.4804 23.7071 14.2929C23.5196 14.1054 23.2652 14 23 14H12V16H22V42C22 42.2652 22.1054 42.5196 22.2929 42.7071C22.4804 42.8946 22.7348 43 23 43H23.09C23.325 44.3975 24.0477 45.6665 25.1296 46.5817C26.2116 47.4969 27.5829 47.999 29 47.999C30.4171 47.999 31.7884 47.4969 32.8704 46.5817C33.9523 45.6665 34.675 44.3975 34.91 43H46.09C46.325 44.3975 47.0477 45.6665 48.1296 46.5817C49.2116 47.4969 50.5829 47.999 52 47.999C53.4171 47.999 54.7884 47.4969 55.8704 46.5817C56.9523 45.6665 57.675 44.3975 57.91 43H59C59.2652 43 59.5196 42.8946 59.7071 42.7071C59.8946 42.5196 60 42.2652 60 42V34C60 33.7348 59.8946 33.4804 59.7071 33.2929C59.5196 33.1054 59.2652 33 59 33ZM57 33H41V21H57V33ZM27 21H39V33H27V21ZM29 46C28.1158 45.9967 27.2576 45.7005 26.5596 45.1577C25.8615 44.6149 25.363 43.8561 25.142 43H28V44H30V43H32.858C32.637 43.8561 32.1385 44.6149 31.4404 45.1577C30.7424 45.7005 29.8842 45.9967 29 46ZM52 46C51.1158 45.9967 50.2576 45.7005 49.5596 45.1577C48.8615 44.6149 48.363 43.8561 48.142 43H51V44H53V43H55.858C55.637 43.8561 55.1385 44.6149 54.4404 45.1577C53.7424 45.7005 52.8842 45.9967 52 46ZM58 41H24V35H58V41Z" fill="#11192E"/>
<path d="M16 21H7C6.73478 21 6.48043 21.1054 6.29289 21.2929C6.10536 21.4804 6 21.7348 6 22V27C6 27.2652 6.10536 27.5196 6.29289 27.7071C6.48043 27.8946 6.73478 28 7 28H16C16.2652 28 16.5196 27.8946 16.7071 27.7071C16.8946 27.5196 17 27.2652 17 27V22C17 21.7348 16.8946 21.4804 16.7071 21.2929C16.5196 21.1054 16.2652 21 16 21ZM15 26H8V23H15V26Z" fill="#11192E"/>
<path d="M17 29H13V31H17V29Z" fill="#11192E"/>
<path d="M10 48C11.4166 47.9974 12.7866 47.4941 13.868 46.5792C14.9495 45.6643 15.6727 44.3965 15.91 43H20C20.2652 43 20.5196 42.8946 20.7071 42.7071C20.8946 42.5196 21 42.2652 21 42V18C21 17.7348 20.8946 17.4804 20.7071 17.2929C20.5196 17.1054 20.2652 17 20 17H6C5.20435 17 4.44129 17.3161 3.87868 17.8787C3.31607 18.4413 3 19.2044 3 20V28.634L0.485 30.143C0.337089 30.2319 0.214689 30.3575 0.129702 30.5077C0.0447151 30.6578 3.28176e-05 30.8274 0 31V42C0 42.2652 0.105357 42.5196 0.292893 42.7071C0.48043 42.8946 0.734784 43 1 43H4.09C4.32727 44.3965 5.05052 45.6643 6.13197 46.5792C7.21342 47.4941 8.58345 47.9974 10 48ZM10 46C9.11579 45.9967 8.25759 45.7005 7.55957 45.1577C6.86155 44.6149 6.36305 43.8561 6.142 43H9V44H11V43H13.858C13.637 43.8561 13.1385 44.6149 12.4404 45.1577C11.7424 45.7005 10.8842 45.9967 10 46ZM2 31.566L4.515 30.058C4.66306 29.969 4.78555 29.8433 4.87054 29.6929C4.95554 29.5425 5.00014 29.3727 5 29.2V20C5 19.7348 5.10536 19.4804 5.29289 19.2929C5.48043 19.1054 5.73478 19 6 19H19V41H2V31.566Z" fill="#11192E"/>
<path d="M37.9999 0H29.9999C29.7347 0 29.4803 0.105357 29.2928 0.292893C29.1052 0.48043 28.9999 0.734784 28.9999 1V6H26.9999C26.7957 6.00022 26.5965 6.06295 26.429 6.17976C26.2615 6.29656 26.1337 6.46184 26.063 6.65338C25.9922 6.84492 25.9817 7.05354 26.033 7.25119C26.0843 7.44884 26.1949 7.62605 26.3499 7.759L33.3499 13.759C33.531 13.9139 33.7615 13.9991 33.9999 13.9991C34.2382 13.9991 34.4688 13.9139 34.6499 13.759L41.6499 7.759C41.8049 7.62605 41.9154 7.44884 41.9667 7.25119C42.018 7.05354 42.0076 6.84492 41.9368 6.65338C41.866 6.46184 41.7383 6.29656 41.5708 6.17976C41.4033 6.06295 41.2041 6.00022 40.9999 6H38.9999V1C38.9999 0.734784 38.8945 0.48043 38.707 0.292893C38.5195 0.105357 38.2651 0 37.9999 0ZM33.9999 11.683L29.6999 8H29.9999C30.2651 8 30.5195 7.89464 30.707 7.70711C30.8945 7.51957 30.9999 7.26522 30.9999 7V2H36.9999V7C36.9999 7.26522 37.1052 7.51957 37.2928 7.70711C37.4803 7.89464 37.7347 8 37.9999 8H38.2999L33.9999 11.683Z" fill="#11192E"/>
<path d="M55.9999 0H47.9999C47.7347 0 47.4803 0.105357 47.2928 0.292893C47.1052 0.48043 46.9999 0.734784 46.9999 1V6H44.9999C44.7957 6.00022 44.5965 6.06295 44.429 6.17976C44.2615 6.29656 44.1338 6.46184 44.063 6.65338C43.9922 6.84492 43.9817 7.05354 44.033 7.25119C44.0843 7.44884 44.1949 7.62605 44.3499 7.759L51.3499 13.759C51.531 13.9139 51.7615 13.9991 51.9999 13.9991C52.2382 13.9991 52.4688 13.9139 52.6499 13.759L59.6499 7.759C59.8049 7.62605 59.9154 7.44884 59.9667 7.25119C60.018 7.05354 60.0076 6.84492 59.9368 6.65338C59.866 6.46184 59.7383 6.29656 59.5708 6.17976C59.4033 6.06295 59.2041 6.00022 58.9999 6H56.9999V1C56.9999 0.734784 56.8945 0.48043 56.707 0.292893C56.5195 0.105357 56.2651 0 55.9999 0ZM51.9999 11.683L47.6999 8H47.9999C48.2651 8 48.5195 7.89464 48.707 7.70711C48.8945 7.51957 48.9999 7.26522 48.9999 7V2H54.9999V7C54.9999 7.26522 55.1052 7.51957 55.2928 7.70711C55.4803 7.89464 55.7347 8 55.9999 8H56.2999L51.9999 11.683Z" fill="#11192E"/>
<path d="M57 38H25V40H57V38Z" fill="#11192E"/>
</svg>
